<?xml version="1.0" encoding="UTF-8" standalone="no"?>
<!DOCTYPE svg PUBLIC "-//W3C//DTD SVG 1.1//EN"
 "http://www.w3.org/Graphics/SVG/1.1/DTD/svg11.dtd">
<!-- Generated by graphviz version 2.43.0 (0)
 -->
<!-- Title: snakemake_dag Pages: 1 -->
<svg width="734pt" height="1510pt"
 viewBox="0.00 0.00 734.00 1510.00" xmlns="http://www.w3.org/2000/svg" xmlns:xlink="http://www.w3.org/1999/xlink">
<g id="graph0" class="graph" transform="scale(1 1) rotate(0) translate(4 1506)">
<title>snakemake_dag</title>
<polygon fill="white" stroke="transparent" points="-4,4 -4,-1506 730,-1506 730,4 -4,4"/>
<!-- 0 -->
<g id="node1" class="node">
<title>0</title>
<text text-anchor="start" x="255.5" y="-125.6" font-family="sans" font-weight="bold" font-size="18.00">all</text>
<text text-anchor="start" x="99.5" y="-101.8" font-family="sans" font-size="10.00"> </text>
<text text-anchor="start" x="103.5" y="-101.8" font-family="sans" font-weight="bold" font-size="14.00">↪ input</text>
<text text-anchor="start" x="161.5" y="-101.8" font-family="sans" font-size="10.00"> </text>
<text text-anchor="start" x="99.5" y="-82" font-family="monospace" font-size="10.00">RES/BCNexus_RES.png</text>
<text text-anchor="start" x="99.5" y="-64" font-family="monospace" font-size="10.00">workflow/check_flags/check_flag_scenario_file_dump.check</text>
<text text-anchor="start" x="99.5" y="-46" font-family="monospace" font-size="10.00">workflow/check_flags/dashboard_deployed.check</text>
<text text-anchor="start" x="99.5" y="-28" font-family="monospace" font-size="10.00">workflow/check_flags/otoole_ResultsFile_genrated.check</text>
<text text-anchor="start" x="429.5" y="-10" font-family="sans" font-size="10.00"> &#160;</text>
<polygon fill="#d9ad57" stroke="#d9ad57" points="93.5,-116 93.5,-116 443.5,-116 443.5,-116 93.5,-116"/>
<polygon fill="#d9ad57" stroke="#d9ad57" points="93.5,-22 93.5,-22 443.5,-22 443.5,-22 93.5,-22"/>
<polygon fill="none" stroke="#d9ad57" stroke-width="2" points="93,-1 93,-145 442,-145 442,-1 93,-1"/>
</g>
<!-- 1 -->
<g id="node2" class="node">
<title>1</title>
<text text-anchor="start" x="11.5" y="-683.6" font-family="sans" font-weight="bold" font-size="18.00">Output_Data_Interfacing_otoole</text>
<text text-anchor="start" x="7.5" y="-659.8" font-family="sans" font-size="10.00"> </text>
<text text-anchor="start" x="11.5" y="-659.8" font-family="sans" font-weight="bold" font-size="14.00">↪ input</text>
<text text-anchor="start" x="69.5" y="-659.8" font-family="sans" font-size="10.00"> </text>
<text text-anchor="start" x="7.5" y="-640" font-family="monospace" font-size="10.00">workflow/check_flags/check_flag_model_run.check</text>
<text text-anchor="start" x="7.5" y="-622" font-family="monospace" font-size="10.00">workflow/docs/CBC_solution.sol</text>
<text text-anchor="start" x="254.5" y="-601.8" font-family="sans" font-size="10.00"> </text>
<text text-anchor="start" x="258.5" y="-601.8" font-family="sans" font-weight="bold" font-size="14.00">output →</text>
<text text-anchor="start" x="328.5" y="-601.8" font-family="sans" font-size="10.00"> </text>
<text text-anchor="start" x="7.5" y="-582" font-family="monospace" font-size="10.00">results</text>
<text text-anchor="start" x="7.5" y="-564" font-family="monospace" font-size="10.00">workflow/check_flags/otoole_ResultsFile_genrated.check</text>
<polygon fill="#57d982" stroke="#57d982" points="1.5,-674 1.5,-674 339.5,-674 339.5,-674 1.5,-674"/>
<polygon fill="#57d982" stroke="#57d982" points="1.5,-616 1.5,-616 339.5,-616 339.5,-616 1.5,-616"/>
<polygon fill="none" stroke="#57d982" stroke-width="2" points="1,-555 1,-703 338,-703 338,-555 1,-555"/>
</g>
<!-- 1&#45;&gt;0 -->
<g id="edge1" class="edge">
<title>1&#45;&gt;0</title>
<path fill="none" stroke="grey" stroke-width="2" d="M152.51,-553.82C135.28,-462.68 117.47,-305 166.5,-182 170.32,-172.42 175.42,-163.19 181.32,-154.43"/>
<polygon fill="grey" stroke="grey" stroke-width="2" points="184.24,-156.36 187.2,-146.19 178.54,-152.3 184.24,-156.36"/>
</g>
<!-- 7 -->
<g id="node8" class="node">
<title>7</title>
<text text-anchor="start" x="267" y="-497.6" font-family="sans" font-weight="bold" font-size="18.00">scenario_Results</text>
<text text-anchor="start" x="182.5" y="-473.8" font-family="sans" font-size="10.00"> </text>
<text text-anchor="start" x="186.5" y="-473.8" font-family="sans" font-weight="bold" font-size="14.00">↪ input</text>
<text text-anchor="start" x="244.5" y="-473.8" font-family="sans" font-size="10.00"> </text>
<text text-anchor="start" x="182.5" y="-454" font-family="monospace" font-size="10.00">model/model_BCNexus.txt</text>
<text text-anchor="start" x="182.5" y="-436" font-family="monospace" font-size="10.00">results</text>
<text text-anchor="start" x="182.5" y="-418" font-family="monospace" font-size="10.00">workflow/check_flags/otoole_ResultsFile_genrated.check</text>
<text text-anchor="start" x="182.5" y="-400" font-family="monospace" font-size="10.00">workflow/data.txt</text>
<text text-anchor="start" x="441.5" y="-379.8" font-family="sans" font-size="10.00"> </text>
<text text-anchor="start" x="445.5" y="-379.8" font-family="sans" font-weight="bold" font-size="14.00">output →</text>
<text text-anchor="start" x="515.5" y="-379.8" font-family="sans" font-size="10.00"> </text>
<text text-anchor="start" x="182.5" y="-360" font-family="monospace" font-size="10.00">workflow/BCNexus_Scenarios/scenario_files/Sample</text>
<text text-anchor="start" x="182.5" y="-342" font-family="monospace" font-size="10.00">workflow/check_flags/check_flag_scenario_file_dump.check</text>
<polygon fill="#57d957" stroke="#57d957" points="176.5,-488 176.5,-488 526.5,-488 526.5,-488 176.5,-488"/>
<polygon fill="#57d957" stroke="#57d957" points="176.5,-394 176.5,-394 526.5,-394 526.5,-394 176.5,-394"/>
<polygon fill="none" stroke="#57d957" stroke-width="2" points="176,-333 176,-517 525,-517 525,-333 176,-333"/>
</g>
<!-- 1&#45;&gt;7 -->
<g id="edge10" class="edge">
<title>1&#45;&gt;7</title>
<path fill="none" stroke="grey" stroke-width="2" d="M235.87,-553.93C244.07,-544.78 252.55,-535.31 261.03,-525.85"/>
<polygon fill="grey" stroke="grey" stroke-width="2" points="263.75,-528.06 267.81,-518.28 258.53,-523.39 263.75,-528.06"/>
</g>
<!-- 2 -->
<g id="node3" class="node">
<title>2</title>
<text text-anchor="start" x="112" y="-887.6" font-family="sans" font-weight="bold" font-size="18.00">RUN_MODEL</text>
<text text-anchor="start" x="32.5" y="-863.8" font-family="sans" font-size="10.00"> </text>
<text text-anchor="start" x="36.5" y="-863.8" font-family="sans" font-weight="bold" font-size="14.00">↪ input</text>
<text text-anchor="start" x="94.5" y="-863.8" font-family="sans" font-size="10.00"> </text>
<text text-anchor="start" x="32.5" y="-844" font-family="monospace" font-size="10.00">workflow/processed_data.txt</text>
<text text-anchor="start" x="32.5" y="-826" font-family="monospace" font-size="10.00">workflow/processed_model_BCNexus.txt</text>
<text text-anchor="start" x="237.5" y="-805.8" font-family="sans" font-size="10.00"> </text>
<text text-anchor="start" x="241.5" y="-805.8" font-family="sans" font-weight="bold" font-size="14.00">output →</text>
<text text-anchor="start" x="311.5" y="-805.8" font-family="sans" font-size="10.00"> </text>
<text text-anchor="start" x="32.5" y="-786" font-family="monospace" font-size="10.00">workflow/LP_file/BCNexus.lp</text>
<text text-anchor="start" x="32.5" y="-768" font-family="monospace" font-size="10.00">workflow/check_flags/check_flag_model_run.check</text>
<text text-anchor="start" x="32.5" y="-750" font-family="monospace" font-size="10.00">workflow/docs/CBC_solution.sol</text>
<polygon fill="#5782d9" stroke="#5782d9" points="26.5,-878 26.5,-878 322.5,-878 322.5,-878 26.5,-878"/>
<polygon fill="#5782d9" stroke="#5782d9" points="26.5,-820 26.5,-820 322.5,-820 322.5,-820 26.5,-820"/>
<polygon fill="none" stroke="#5782d9" stroke-width="2" points="26,-741 26,-907 321,-907 321,-741 26,-741"/>
</g>
<!-- 2&#45;&gt;1 -->
<g id="edge5" class="edge">
<title>2&#45;&gt;1</title>
<path fill="none" stroke="grey" stroke-width="2" d="M171.77,-739.75C171.6,-731.34 171.42,-722.79 171.25,-714.36"/>
<polygon fill="grey" stroke="grey" stroke-width="2" points="174.74,-714.09 171.04,-704.16 167.75,-714.23 174.74,-714.09"/>
</g>
<!-- 3 -->
<g id="node4" class="node">
<title>3</title>
<text text-anchor="start" x="94" y="-1109.6" font-family="sans" font-weight="bold" font-size="18.00">Preprocess_data</text>
<text text-anchor="start" x="23.5" y="-1085.8" font-family="sans" font-size="10.00"> </text>
<text text-anchor="start" x="27.5" y="-1085.8" font-family="sans" font-weight="bold" font-size="14.00">↪ input</text>
<text text-anchor="start" x="85.5" y="-1085.8" font-family="sans" font-size="10.00"> </text>
<text text-anchor="start" x="23.5" y="-1066" font-family="monospace" font-size="10.00">model/model_BCNexus.txt</text>
<text text-anchor="start" x="23.5" y="-1048" font-family="monospace" font-size="10.00">workflow/check_flags/otoole_datafile_prepared.check</text>
<text text-anchor="start" x="23.5" y="-1030" font-family="monospace" font-size="10.00">workflow/data.txt</text>
<text text-anchor="start" x="23.5" y="-1012" font-family="monospace" font-size="10.00">workflow/scripts/preprocess_data.py</text>
<text text-anchor="start" x="252.5" y="-991.8" font-family="sans" font-size="10.00"> </text>
<text text-anchor="start" x="256.5" y="-991.8" font-family="sans" font-weight="bold" font-size="14.00">output →</text>
<text text-anchor="start" x="326.5" y="-991.8" font-family="sans" font-size="10.00"> </text>
<text text-anchor="start" x="23.5" y="-972" font-family="monospace" font-size="10.00">workflow/processed_data.txt</text>
<text text-anchor="start" x="23.5" y="-954" font-family="monospace" font-size="10.00">workflow/processed_model_BCNexus.txt</text>
<polygon fill="#57d9d9" stroke="#57d9d9" points="17.5,-1100 17.5,-1100 337.5,-1100 337.5,-1100 17.5,-1100"/>
<polygon fill="#57d9d9" stroke="#57d9d9" points="17.5,-1006 17.5,-1006 337.5,-1006 337.5,-1006 17.5,-1006"/>
<polygon fill="none" stroke="#57d9d9" stroke-width="2" points="17,-945 17,-1129 336,-1129 336,-945 17,-945"/>
</g>
<!-- 3&#45;&gt;2 -->
<g id="edge6" class="edge">
<title>3&#45;&gt;2</title>
<path fill="none" stroke="grey" stroke-width="2" d="M175.19,-943.76C175.07,-935.32 174.95,-926.77 174.83,-918.33"/>
<polygon fill="grey" stroke="grey" stroke-width="2" points="178.32,-918.04 174.68,-908.09 171.32,-918.14 178.32,-918.04"/>
</g>
<!-- 4 -->
<g id="node5" class="node">
<title>4</title>
<text text-anchor="start" x="217.5" y="-1295.6" font-family="sans" font-weight="bold" font-size="18.00">Input_Data_Interfacing_otoole</text>
<text text-anchor="start" x="214.5" y="-1271.8" font-family="sans" font-size="10.00"> </text>
<text text-anchor="start" x="218.5" y="-1271.8" font-family="sans" font-weight="bold" font-size="14.00">↪ input</text>
<text text-anchor="start" x="276.5" y="-1271.8" font-family="sans" font-size="10.00"> </text>
<text text-anchor="start" x="214.5" y="-1252" font-family="monospace" font-size="10.00">data</text>
<text text-anchor="start" x="214.5" y="-1234" font-family="monospace" font-size="10.00">workflow/check_flags/Model_shell_complete.check</text>
<text text-anchor="start" x="443.5" y="-1213.8" font-family="sans" font-size="10.00"> </text>
<text text-anchor="start" x="447.5" y="-1213.8" font-family="sans" font-weight="bold" font-size="14.00">output →</text>
<text text-anchor="start" x="517.5" y="-1213.8" font-family="sans" font-size="10.00"> </text>
<text text-anchor="start" x="214.5" y="-1194" font-family="monospace" font-size="10.00">workflow/check_flags/otoole_datafile_prepared.check</text>
<text text-anchor="start" x="214.5" y="-1176" font-family="monospace" font-size="10.00">workflow/data.txt</text>
<polygon fill="#57d9ad" stroke="#57d9ad" points="208.5,-1286 208.5,-1286 528.5,-1286 528.5,-1286 208.5,-1286"/>
<polygon fill="#57d9ad" stroke="#57d9ad" points="208.5,-1228 208.5,-1228 528.5,-1228 528.5,-1228 208.5,-1228"/>
<polygon fill="none" stroke="#57d9ad" stroke-width="2" points="208,-1167 208,-1315 527,-1315 527,-1167 208,-1167"/>
</g>
<!-- 4&#45;&gt;3 -->
<g id="edge7" class="edge">
<title>4&#45;&gt;3</title>
<path fill="none" stroke="grey" stroke-width="2" d="M297.46,-1165.93C288.72,-1156.69 279.68,-1147.12 270.65,-1137.57"/>
<polygon fill="grey" stroke="grey" stroke-width="2" points="273.17,-1135.14 263.75,-1130.28 268.08,-1139.95 273.17,-1135.14"/>
</g>
<!-- 4&#45;&gt;7 -->
<g id="edge11" class="edge">
<title>4&#45;&gt;7</title>
<path fill="none" stroke="grey" stroke-width="2" d="M365.95,-1165.97C362.91,-1020 356.11,-694.82 352.64,-528.41"/>
<polygon fill="grey" stroke="grey" stroke-width="2" points="356.13,-528.1 352.42,-518.17 349.13,-528.24 356.13,-528.1"/>
</g>
<!-- 8 -->
<g id="node9" class="node">
<title>8</title>
<text text-anchor="start" x="515" y="-869.6" font-family="sans" font-weight="bold" font-size="18.00">make_RES</text>
<text text-anchor="start" x="412.5" y="-845.8" font-family="sans" font-size="10.00"> </text>
<text text-anchor="start" x="416.5" y="-845.8" font-family="sans" font-weight="bold" font-size="14.00">↪ input</text>
<text text-anchor="start" x="474.5" y="-845.8" font-family="sans" font-size="10.00"> </text>
<text text-anchor="start" x="412.5" y="-826" font-family="monospace" font-size="10.00">workflow/check_flags/otoole_datafile_prepared.check</text>
<text text-anchor="start" x="412.5" y="-808" font-family="monospace" font-size="10.00">workflow/data.txt</text>
<text text-anchor="start" x="641.5" y="-787.8" font-family="sans" font-size="10.00"> </text>
<text text-anchor="start" x="645.5" y="-787.8" font-family="sans" font-weight="bold" font-size="14.00">output →</text>
<text text-anchor="start" x="715.5" y="-787.8" font-family="sans" font-size="10.00"> </text>
<text text-anchor="start" x="412.5" y="-768" font-family="monospace" font-size="10.00">RES/BCNexus_RES.png</text>
<polygon fill="#d98257" stroke="#d98257" points="406.5,-860 406.5,-860 726.5,-860 726.5,-860 406.5,-860"/>
<polygon fill="#d98257" stroke="#d98257" points="406.5,-802 406.5,-802 726.5,-802 726.5,-802 406.5,-802"/>
<polygon fill="none" stroke="#d98257" stroke-width="2" points="406,-759 406,-889 725,-889 725,-759 406,-759"/>
</g>
<!-- 4&#45;&gt;8 -->
<g id="edge12" class="edge">
<title>4&#45;&gt;8</title>
<path fill="none" stroke="grey" stroke-width="2" d="M402.9,-1165.81C438.79,-1090.57 494.03,-974.79 529.97,-899.46"/>
<polygon fill="grey" stroke="grey" stroke-width="2" points="533.33,-900.56 534.48,-890.02 527.01,-897.54 533.33,-900.56"/>
</g>
<!-- 5 -->
<g id="node6" class="node">
<title>5</title>
<text text-anchor="start" x="308" y="-1481.6" font-family="sans" font-weight="bold" font-size="18.00">Model_Shell</text>
<text text-anchor="start" x="226.5" y="-1457.8" font-family="sans" font-size="10.00"> </text>
<text text-anchor="start" x="230.5" y="-1457.8" font-family="sans" font-weight="bold" font-size="14.00">↪ input</text>
<text text-anchor="start" x="288.5" y="-1457.8" font-family="sans" font-size="10.00"> </text>
<text text-anchor="start" x="226.5" y="-1438" font-family="monospace" font-size="10.00">config/BCNexus_CLEWsy.yaml</text>
<text text-anchor="start" x="226.5" y="-1420" font-family="monospace" font-size="10.00">user_inputs</text>
<text text-anchor="start" x="431.5" y="-1399.8" font-family="sans" font-size="10.00"> </text>
<text text-anchor="start" x="435.5" y="-1399.8" font-family="sans" font-weight="bold" font-size="14.00">output →</text>
<text text-anchor="start" x="505.5" y="-1399.8" font-family="sans" font-size="10.00"> </text>
<text text-anchor="start" x="226.5" y="-1380" font-family="monospace" font-size="10.00">user_inputs/Sets/CLEWsy_outputs</text>
<text text-anchor="start" x="226.5" y="-1362" font-family="monospace" font-size="10.00">workflow/check_flags/Model_shell_complete.check</text>
<polygon fill="#57add9" stroke="#57add9" points="220.5,-1472 220.5,-1472 516.5,-1472 516.5,-1472 220.5,-1472"/>
<polygon fill="#57add9" stroke="#57add9" points="220.5,-1414 220.5,-1414 516.5,-1414 516.5,-1414 220.5,-1414"/>
<polygon fill="none" stroke="#57add9" stroke-width="2" points="220,-1353 220,-1501 515,-1501 515,-1353 220,-1353"/>
</g>
<!-- 5&#45;&gt;4 -->
<g id="edge8" class="edge">
<title>5&#45;&gt;4</title>
<path fill="none" stroke="grey" stroke-width="2" d="M367.5,-1351.96C367.5,-1343.49 367.5,-1334.81 367.5,-1326.22"/>
<polygon fill="grey" stroke="grey" stroke-width="2" points="371,-1326.19 367.5,-1316.19 364,-1326.19 371,-1326.19"/>
</g>
<!-- 6 -->
<g id="node7" class="node">
<title>6</title>
<text text-anchor="start" x="278" y="-275.6" font-family="sans" font-weight="bold" font-size="18.00">deploy_dashboard</text>
<text text-anchor="start" x="201.5" y="-251.8" font-family="sans" font-size="10.00"> </text>
<text text-anchor="start" x="205.5" y="-251.8" font-family="sans" font-weight="bold" font-size="14.00">↪ input</text>
<text text-anchor="start" x="263.5" y="-251.8" font-family="sans" font-size="10.00"> </text>
<text text-anchor="start" x="201.5" y="-232" font-family="monospace" font-size="10.00">workflow/check_flags/check_flag_scenario_file_dump.check</text>
<text text-anchor="start" x="460.5" y="-211.8" font-family="sans" font-size="10.00"> </text>
<text text-anchor="start" x="464.5" y="-211.8" font-family="sans" font-weight="bold" font-size="14.00">output →</text>
<text text-anchor="start" x="534.5" y="-211.8" font-family="sans" font-size="10.00"> </text>
<text text-anchor="start" x="201.5" y="-192" font-family="monospace" font-size="10.00">workflow/check_flags/dashboard_deployed.check</text>
<polygon fill="#d9d957" stroke="#d9d957" points="195.5,-266 195.5,-266 545.5,-266 545.5,-266 195.5,-266"/>
<polygon fill="#d9d957" stroke="#d9d957" points="195.5,-226 195.5,-226 545.5,-226 545.5,-226 195.5,-226"/>
<polygon fill="none" stroke="#d9d957" stroke-width="2" points="195,-183 195,-295 544,-295 544,-183 195,-183"/>
</g>
<!-- 6&#45;&gt;0 -->
<g id="edge4" class="edge">
<title>6&#45;&gt;0</title>
<path fill="none" stroke="grey" stroke-width="2" d="M334.4,-181.56C329.03,-172.92 323.39,-163.87 317.77,-154.83"/>
<polygon fill="grey" stroke="grey" stroke-width="2" points="320.65,-152.83 312.4,-146.18 314.7,-156.52 320.65,-152.83"/>
</g>
<!-- 7&#45;&gt;0 -->
<g id="edge3" class="edge">
<title>7&#45;&gt;0</title>
<path fill="none" stroke="grey" stroke-width="2" d="M208.75,-331.88C199.18,-320.87 190.84,-308.9 184.5,-296 162.14,-250.53 168.2,-229.97 184.5,-182 187.67,-172.68 192,-163.54 197.03,-154.76"/>
<polygon fill="grey" stroke="grey" stroke-width="2" points="200.09,-156.47 202.28,-146.11 194.1,-152.84 200.09,-156.47"/>
</g>
<!-- 7&#45;&gt;6 -->
<g id="edge9" class="edge">
<title>7&#45;&gt;6</title>
<path fill="none" stroke="grey" stroke-width="2" d="M360,-332C360.9,-323.31 361.79,-314.63 362.66,-306.25"/>
<polygon fill="grey" stroke="grey" stroke-width="2" points="366.15,-306.51 363.7,-296.21 359.19,-305.79 366.15,-306.51"/>
</g>
<!-- 8&#45;&gt;0 -->
<g id="edge2" class="edge">
<title>8&#45;&gt;0</title>
<path fill="none" stroke="grey" stroke-width="2" d="M586.17,-757.54C621.26,-632.73 677.3,-357.55 553.5,-182 529.08,-147.37 492.06,-123.83 452.69,-107.84"/>
<polygon fill="grey" stroke="grey" stroke-width="2" points="453.77,-104.5 443.18,-104.14 451.23,-111.03 453.77,-104.5"/>
</g>
</g>
</svg>
