<?xml version="1.0" encoding="UTF-8" standalone="no"?>
<!DOCTYPE svg PUBLIC "-//W3C//DTD SVG 1.1//EN"
 "http://www.w3.org/Graphics/SVG/1.1/DTD/svg11.dtd">
<!-- Generated by graphviz version 2.43.0 (0)
 -->
<!-- Title: snakemake_dag Pages: 1 -->
<svg width="241pt" height="692pt"
 viewBox="0.00 0.00 241.00 692.00" xmlns="http://www.w3.org/2000/svg" xmlns:xlink="http://www.w3.org/1999/xlink">
<g id="graph0" class="graph" transform="scale(1 1) rotate(0) translate(4 688)">
<title>snakemake_dag</title>
<polygon fill="white" stroke="transparent" points="-4,4 -4,-688 237,-688 237,4 -4,4"/>
<!-- 0 -->
<g id="node1" class="node">
<title>0</title>
<path fill="none" stroke="#56d88a" stroke-width="2" d="M147,-36C147,-36 117,-36 117,-36 111,-36 105,-30 105,-24 105,-24 105,-12 105,-12 105,-6 111,0 117,0 117,0 147,0 147,0 153,0 159,-6 159,-12 159,-12 159,-24 159,-24 159,-30 153,-36 147,-36"/>
<text text-anchor="middle" x="132" y="-15.5" font-family="sans" font-size="10.00">Results</text>
</g>
<!-- 1 -->
<g id="node2" class="node">
<title>1</title>
<path fill="none" stroke="#d89c56" stroke-width="2" d="M160,-108C160,-108 104,-108 104,-108 98,-108 92,-102 92,-96 92,-96 92,-84 92,-84 92,-78 98,-72 104,-72 104,-72 160,-72 160,-72 166,-72 172,-78 172,-84 172,-84 172,-96 172,-96 172,-102 166,-108 160,-108"/>
<text text-anchor="middle" x="132" y="-87.5" font-family="sans" font-size="10.00">Visualization</text>
</g>
<!-- 1&#45;&gt;0 -->
<g id="edge1" class="edge">
<title>1&#45;&gt;0</title>
<path fill="none" stroke="grey" stroke-width="2" d="M132,-71.7C132,-63.98 132,-54.71 132,-46.11"/>
<polygon fill="grey" stroke="grey" stroke-width="2" points="135.5,-46.1 132,-36.1 128.5,-46.1 135.5,-46.1"/>
</g>
<!-- 2 -->
<g id="node3" class="node">
<title>2</title>
<path fill="none" stroke="#ced856" stroke-width="2" d="M160,-180C160,-180 12,-180 12,-180 6,-180 0,-174 0,-168 0,-168 0,-156 0,-156 0,-150 6,-144 12,-144 12,-144 160,-144 160,-144 166,-144 172,-150 172,-156 172,-156 172,-168 172,-168 172,-174 166,-180 160,-180"/>
<text text-anchor="middle" x="86" y="-159.5" font-family="sans" font-size="10.00">Output_Data_Interfacing_otoole</text>
</g>
<!-- 2&#45;&gt;0 -->
<g id="edge2" class="edge">
<title>2&#45;&gt;0</title>
<path fill="none" stroke="grey" stroke-width="2" d="M81.54,-143.93C77.59,-125.5 73.76,-95.61 83,-72 87.2,-61.28 94.69,-51.43 102.58,-43.2"/>
<polygon fill="grey" stroke="grey" stroke-width="2" points="105.12,-45.61 109.85,-36.13 100.24,-40.59 105.12,-45.61"/>
</g>
<!-- 2&#45;&gt;1 -->
<g id="edge4" class="edge">
<title>2&#45;&gt;1</title>
<path fill="none" stroke="grey" stroke-width="2" d="M97.37,-143.7C102.72,-135.56 109.2,-125.69 115.11,-116.7"/>
<polygon fill="grey" stroke="grey" stroke-width="2" points="118.19,-118.38 120.76,-108.1 112.34,-114.54 118.19,-118.38"/>
</g>
<!-- 3 -->
<g id="node4" class="node">
<title>3</title>
<path fill="none" stroke="#569ad8" stroke-width="2" d="M124.5,-252C124.5,-252 69.5,-252 69.5,-252 63.5,-252 57.5,-246 57.5,-240 57.5,-240 57.5,-228 57.5,-228 57.5,-222 63.5,-216 69.5,-216 69.5,-216 124.5,-216 124.5,-216 130.5,-216 136.5,-222 136.5,-228 136.5,-228 136.5,-240 136.5,-240 136.5,-246 130.5,-252 124.5,-252"/>
<text text-anchor="middle" x="97" y="-231.5" font-family="sans" font-size="10.00">RUN_MODEL</text>
</g>
<!-- 3&#45;&gt;2 -->
<g id="edge5" class="edge">
<title>3&#45;&gt;2</title>
<path fill="none" stroke="grey" stroke-width="2" d="M94.28,-215.7C93.07,-207.98 91.61,-198.71 90.26,-190.11"/>
<polygon fill="grey" stroke="grey" stroke-width="2" points="93.7,-189.44 88.69,-180.1 86.78,-190.53 93.7,-189.44"/>
</g>
<!-- 4 -->
<g id="node5" class="node">
<title>4</title>
<path fill="none" stroke="#68d856" stroke-width="2" d="M140.5,-324C140.5,-324 67.5,-324 67.5,-324 61.5,-324 55.5,-318 55.5,-312 55.5,-312 55.5,-300 55.5,-300 55.5,-294 61.5,-288 67.5,-288 67.5,-288 140.5,-288 140.5,-288 146.5,-288 152.5,-294 152.5,-300 152.5,-300 152.5,-312 152.5,-312 152.5,-318 146.5,-324 140.5,-324"/>
<text text-anchor="middle" x="104" y="-303.5" font-family="sans" font-size="10.00">Preprocess_data</text>
</g>
<!-- 4&#45;&gt;3 -->
<g id="edge6" class="edge">
<title>4&#45;&gt;3</title>
<path fill="none" stroke="grey" stroke-width="2" d="M102.27,-287.7C101.5,-279.98 100.57,-270.71 99.71,-262.11"/>
<polygon fill="grey" stroke="grey" stroke-width="2" points="103.19,-261.71 98.71,-252.1 96.22,-262.4 103.19,-261.71"/>
</g>
<!-- 5 -->
<g id="node6" class="node">
<title>5</title>
<path fill="none" stroke="#56c1d8" stroke-width="2" d="M212,-396C212,-396 72,-396 72,-396 66,-396 60,-390 60,-384 60,-384 60,-372 60,-372 60,-366 66,-360 72,-360 72,-360 212,-360 212,-360 218,-360 224,-366 224,-372 224,-372 224,-384 224,-384 224,-390 218,-396 212,-396"/>
<text text-anchor="middle" x="142" y="-375.5" font-family="sans" font-size="10.00">Input_Data_Interfacing_otoole</text>
</g>
<!-- 5&#45;&gt;4 -->
<g id="edge7" class="edge">
<title>5&#45;&gt;4</title>
<path fill="none" stroke="grey" stroke-width="2" d="M132.61,-359.7C128.24,-351.64 122.94,-341.89 118.1,-332.98"/>
<polygon fill="grey" stroke="grey" stroke-width="2" points="121.13,-331.22 113.29,-324.1 114.98,-334.56 121.13,-331.22"/>
</g>
<!-- 11 -->
<g id="node12" class="node">
<title>11</title>
<path fill="none" stroke="#d8bc56" stroke-width="2" d="M216,-252C216,-252 172,-252 172,-252 166,-252 160,-246 160,-240 160,-240 160,-228 160,-228 160,-222 166,-216 172,-216 172,-216 216,-216 216,-216 222,-216 228,-222 228,-228 228,-228 228,-240 228,-240 228,-246 222,-252 216,-252"/>
<text text-anchor="middle" x="194" y="-231.5" font-family="sans" font-size="10.00">make_RES</text>
</g>
<!-- 5&#45;&gt;11 -->
<g id="edge14" class="edge">
<title>5&#45;&gt;11</title>
<path fill="none" stroke="grey" stroke-width="2" d="M148.27,-359.87C157.21,-335.46 173.7,-290.43 184.25,-261.64"/>
<polygon fill="grey" stroke="grey" stroke-width="2" points="187.55,-262.78 187.71,-252.19 180.98,-260.38 187.55,-262.78"/>
</g>
<!-- 6 -->
<g id="node7" class="node">
<title>6</title>
<path fill="none" stroke="#56d8a9" stroke-width="2" d="M187.5,-468C187.5,-468 96.5,-468 96.5,-468 90.5,-468 84.5,-462 84.5,-456 84.5,-456 84.5,-444 84.5,-444 84.5,-438 90.5,-432 96.5,-432 96.5,-432 187.5,-432 187.5,-432 193.5,-432 199.5,-438 199.5,-444 199.5,-444 199.5,-456 199.5,-456 199.5,-462 193.5,-468 187.5,-468"/>
<text text-anchor="middle" x="142" y="-447.5" font-family="sans" font-size="10.00">Scenario_Data_Files</text>
</g>
<!-- 6&#45;&gt;5 -->
<g id="edge8" class="edge">
<title>6&#45;&gt;5</title>
<path fill="none" stroke="grey" stroke-width="2" d="M142,-431.7C142,-423.98 142,-414.71 142,-406.11"/>
<polygon fill="grey" stroke="grey" stroke-width="2" points="145.5,-406.1 142,-396.1 138.5,-406.1 145.5,-406.1"/>
</g>
<!-- 7 -->
<g id="node8" class="node">
<title>7</title>
<path fill="none" stroke="#56d86b" stroke-width="2" d="M119,-540C119,-540 67,-540 67,-540 61,-540 55,-534 55,-528 55,-528 55,-516 55,-516 55,-510 61,-504 67,-504 67,-504 119,-504 119,-504 125,-504 131,-510 131,-516 131,-516 131,-528 131,-528 131,-534 125,-540 119,-540"/>
<text text-anchor="middle" x="93" y="-519.5" font-family="sans" font-size="10.00">Model_Shell</text>
</g>
<!-- 7&#45;&gt;6 -->
<g id="edge9" class="edge">
<title>7&#45;&gt;6</title>
<path fill="none" stroke="grey" stroke-width="2" d="M105.11,-503.7C110.87,-495.47 117.86,-485.48 124.21,-476.42"/>
<polygon fill="grey" stroke="grey" stroke-width="2" points="127.16,-478.3 130.03,-468.1 121.42,-474.29 127.16,-478.3"/>
</g>
<!-- 8 -->
<g id="node9" class="node">
<title>8</title>
<path fill="none" stroke="#d85656" stroke-width="2" d="M206.5,-684C206.5,-684 77.5,-684 77.5,-684 71.5,-684 65.5,-678 65.5,-672 65.5,-672 65.5,-660 65.5,-660 65.5,-654 71.5,-648 77.5,-648 77.5,-648 206.5,-648 206.5,-648 212.5,-648 218.5,-654 218.5,-660 218.5,-660 218.5,-672 218.5,-672 218.5,-678 212.5,-684 206.5,-684"/>
<text text-anchor="middle" x="142" y="-663.5" font-family="sans" font-size="10.00">Temporal_Resolution_config</text>
</g>
<!-- 8&#45;&gt;7 -->
<g id="edge11" class="edge">
<title>8&#45;&gt;7</title>
<path fill="none" stroke="grey" stroke-width="2" d="M136.09,-647.87C127.7,-623.56 112.26,-578.82 102.32,-550.01"/>
<polygon fill="grey" stroke="grey" stroke-width="2" points="105.5,-548.5 98.93,-540.19 98.88,-550.78 105.5,-548.5"/>
</g>
<!-- 10 -->
<g id="node11" class="node">
<title>10</title>
<path fill="none" stroke="#567bd8" stroke-width="2" d="M218.5,-612C218.5,-612 151.5,-612 151.5,-612 145.5,-612 139.5,-606 139.5,-600 139.5,-600 139.5,-588 139.5,-588 139.5,-582 145.5,-576 151.5,-576 151.5,-576 218.5,-576 218.5,-576 224.5,-576 230.5,-582 230.5,-588 230.5,-588 230.5,-600 230.5,-600 230.5,-606 224.5,-612 218.5,-612"/>
<text text-anchor="middle" x="185" y="-591.5" font-family="sans" font-size="10.00">Scenario_setup</text>
</g>
<!-- 8&#45;&gt;10 -->
<g id="edge13" class="edge">
<title>8&#45;&gt;10</title>
<path fill="none" stroke="grey" stroke-width="2" d="M152.63,-647.7C157.63,-639.56 163.69,-629.69 169.21,-620.7"/>
<polygon fill="grey" stroke="grey" stroke-width="2" points="172.24,-622.46 174.49,-612.1 166.28,-618.79 172.24,-622.46"/>
</g>
<!-- 9 -->
<g id="node10" class="node">
<title>9</title>
<path fill="none" stroke="#88d856" stroke-width="2" d="M221,-540C221,-540 161,-540 161,-540 155,-540 149,-534 149,-528 149,-528 149,-516 149,-516 149,-510 155,-504 161,-504 161,-504 221,-504 221,-504 227,-504 233,-510 233,-516 233,-516 233,-528 233,-528 233,-534 227,-540 221,-540"/>
<text text-anchor="middle" x="191" y="-519.5" font-family="sans" font-size="10.00">Data_pipeline</text>
</g>
<!-- 9&#45;&gt;6 -->
<g id="edge10" class="edge">
<title>9&#45;&gt;6</title>
<path fill="none" stroke="grey" stroke-width="2" d="M178.89,-503.7C173.13,-495.47 166.14,-485.48 159.79,-476.42"/>
<polygon fill="grey" stroke="grey" stroke-width="2" points="162.58,-474.29 153.97,-468.1 156.84,-478.3 162.58,-474.29"/>
</g>
<!-- 10&#45;&gt;9 -->
<g id="edge12" class="edge">
<title>10&#45;&gt;9</title>
<path fill="none" stroke="grey" stroke-width="2" d="M186.48,-575.7C187.14,-567.98 187.94,-558.71 188.68,-550.11"/>
<polygon fill="grey" stroke="grey" stroke-width="2" points="192.17,-550.37 189.53,-540.1 185.19,-549.77 192.17,-550.37"/>
</g>
<!-- 11&#45;&gt;0 -->
<g id="edge3" class="edge">
<title>11&#45;&gt;0</title>
<path fill="none" stroke="grey" stroke-width="2" d="M196.17,-215.66C199.23,-185.16 202.29,-120.54 181,-72 176.34,-61.37 168.63,-51.49 160.7,-43.21"/>
<polygon fill="grey" stroke="grey" stroke-width="2" points="163.02,-40.59 153.43,-36.09 158.12,-45.59 163.02,-40.59"/>
</g>
</g>
</svg>
