<?xml version="1.0" encoding="UTF-8" standalone="no"?>
<!DOCTYPE svg PUBLIC "-//W3C//DTD SVG 1.1//EN"
 "http://www.w3.org/Graphics/SVG/1.1/DTD/svg11.dtd">
<!-- Generated by graphviz version 2.43.0 (0)
 -->
<!-- Title: snakemake_dag Pages: 1 -->
<svg width="1238pt" height="1806pt"
 viewBox="0.00 0.00 1238.00 1806.00" xmlns="http://www.w3.org/2000/svg" xmlns:xlink="http://www.w3.org/1999/xlink">
<g id="graph0" class="graph" transform="scale(1 1) rotate(0) translate(4 1802)">
<title>snakemake_dag</title>
<polygon fill="white" stroke="transparent" points="-4,4 -4,-1802 1234,-1802 1234,4 -4,4"/>
<!-- 0 -->
<g id="node1" class="node">
<title>0</title>
<text text-anchor="start" x="245" y="-107.6" font-family="sans" font-weight="bold" font-size="18.00">Results</text>
<text text-anchor="start" x="146.5" y="-83.8" font-family="sans" font-size="10.00"> </text>
<text text-anchor="start" x="150.5" y="-83.8" font-family="sans" font-weight="bold" font-size="14.00">↪ input</text>
<text text-anchor="start" x="208.5" y="-83.8" font-family="sans" font-size="10.00"> </text>
<text text-anchor="start" x="146.5" y="-64" font-family="monospace" font-size="10.00">check_flags/Plots_generated.check</text>
<text text-anchor="start" x="146.5" y="-46" font-family="monospace" font-size="10.00">check_flags/otoole_ResultsFile_genrated.check</text>
<text text-anchor="start" x="146.5" y="-28" font-family="monospace" font-size="10.00">docs/BCNexus_RES.png</text>
<text text-anchor="start" x="410.5" y="-10" font-family="sans" font-size="10.00"> &#160;</text>
<polygon fill="#57a9d9" stroke="#57a9d9" points="140.5,-98 140.5,-98 424.5,-98 424.5,-98 140.5,-98"/>
<polygon fill="#57a9d9" stroke="#57a9d9" points="140.5,-22 140.5,-22 424.5,-22 424.5,-22 140.5,-22"/>
<polygon fill="none" stroke="#57a9d9" stroke-width="2" points="140,-1 140,-127 423,-127 423,-1 140,-1"/>
</g>
<!-- 1 -->
<g id="node2" class="node">
<title>1</title>
<text text-anchor="start" x="217.5" y="-347.6" font-family="sans" font-weight="bold" font-size="18.00">Visualization</text>
<text text-anchor="start" x="146.5" y="-323.8" font-family="sans" font-size="10.00"> </text>
<text text-anchor="start" x="150.5" y="-323.8" font-family="sans" font-weight="bold" font-size="14.00">↪ input</text>
<text text-anchor="start" x="208.5" y="-323.8" font-family="sans" font-size="10.00"> </text>
<text text-anchor="start" x="146.5" y="-304" font-family="monospace" font-size="10.00">Scripts/Capacity_VIS.py</text>
<text text-anchor="start" x="146.5" y="-286" font-family="monospace" font-size="10.00">Scripts/Dashboard.py</text>
<text text-anchor="start" x="146.5" y="-268" font-family="monospace" font-size="10.00">Scripts/Emission_VIS.py</text>
<text text-anchor="start" x="146.5" y="-250" font-family="monospace" font-size="10.00">Scripts/Energy_VIS.py</text>
<text text-anchor="start" x="146.5" y="-232" font-family="monospace" font-size="10.00">Scripts/Landuse_VIS.py</text>
<text text-anchor="start" x="146.5" y="-214" font-family="monospace" font-size="10.00">check_flags/otoole_ResultsFile_genrated.check</text>
<text text-anchor="start" x="339.5" y="-193.8" font-family="sans" font-size="10.00"> </text>
<text text-anchor="start" x="343.5" y="-193.8" font-family="sans" font-weight="bold" font-size="14.00">output →</text>
<text text-anchor="start" x="413.5" y="-193.8" font-family="sans" font-size="10.00"> </text>
<text text-anchor="start" x="146.5" y="-174" font-family="monospace" font-size="10.00">check_flags/Plots_generated.check</text>
<polygon fill="#57d980" stroke="#57d980" points="140.5,-338 140.5,-338 424.5,-338 424.5,-338 140.5,-338"/>
<polygon fill="#57d980" stroke="#57d980" points="140.5,-208 140.5,-208 424.5,-208 424.5,-208 140.5,-208"/>
<polygon fill="none" stroke="#57d980" stroke-width="2" points="140,-165 140,-367 423,-367 423,-165 140,-165"/>
</g>
<!-- 1&#45;&gt;0 -->
<g id="edge3" class="edge">
<title>1&#45;&gt;0</title>
<path fill="none" stroke="grey" stroke-width="2" d="M281.5,-163.83C281.5,-155.15 281.5,-146.48 281.5,-138.09"/>
<polygon fill="grey" stroke="grey" stroke-width="2" points="285,-138 281.5,-128 278,-138 285,-138"/>
</g>
<!-- 2 -->
<g id="node3" class="node">
<title>2</title>
<text text-anchor="start" x="54.5" y="-515.6" font-family="sans" font-weight="bold" font-size="18.00">Output_Data_Interfacing_otoole</text>
<text text-anchor="start" x="54.5" y="-491.8" font-family="sans" font-size="10.00"> </text>
<text text-anchor="start" x="58.5" y="-491.8" font-family="sans" font-weight="bold" font-size="14.00">↪ input</text>
<text text-anchor="start" x="116.5" y="-491.8" font-family="sans" font-size="10.00"> </text>
<text text-anchor="start" x="54.5" y="-472" font-family="monospace" font-size="10.00">docs/CBC_solution.sol</text>
<text text-anchor="start" x="293.5" y="-451.8" font-family="sans" font-size="10.00"> </text>
<text text-anchor="start" x="297.5" y="-451.8" font-family="sans" font-weight="bold" font-size="14.00">output →</text>
<text text-anchor="start" x="367.5" y="-451.8" font-family="sans" font-size="10.00"> </text>
<text text-anchor="start" x="54.5" y="-432" font-family="monospace" font-size="10.00">check_flags/otoole_ResultsFile_genrated.check</text>
<text text-anchor="start" x="54.5" y="-414" font-family="monospace" font-size="10.00">results</text>
<polygon fill="#57d9d2" stroke="#57d9d2" points="48.5,-506 48.5,-506 378.5,-506 378.5,-506 48.5,-506"/>
<polygon fill="#57d9d2" stroke="#57d9d2" points="48.5,-466 48.5,-466 378.5,-466 378.5,-466 48.5,-466"/>
<polygon fill="none" stroke="#57d9d2" stroke-width="2" points="48,-405 48,-535 377,-535 377,-405 48,-405"/>
</g>
<!-- 2&#45;&gt;0 -->
<g id="edge2" class="edge">
<title>2&#45;&gt;0</title>
<path fill="none" stroke="grey" stroke-width="2" d="M148.52,-403.73C140.74,-392.56 133.98,-380.5 129.5,-368 98.93,-282.64 86.29,-243.71 129.5,-164 135.19,-153.51 142.52,-143.96 150.89,-135.29"/>
<polygon fill="grey" stroke="grey" stroke-width="2" points="153.43,-137.71 158.15,-128.22 148.54,-132.69 153.43,-137.71"/>
</g>
<!-- 2&#45;&gt;1 -->
<g id="edge4" class="edge">
<title>2&#45;&gt;1</title>
<path fill="none" stroke="grey" stroke-width="2" d="M234.71,-403.97C237.58,-395.59 240.57,-386.82 243.6,-377.95"/>
<polygon fill="grey" stroke="grey" stroke-width="2" points="246.98,-378.9 246.9,-368.3 240.35,-376.63 246.98,-378.9"/>
</g>
<!-- 3 -->
<g id="node4" class="node">
<title>3</title>
<text text-anchor="start" x="151" y="-701.6" font-family="sans" font-weight="bold" font-size="18.00">RUN_MODEL</text>
<text text-anchor="start" x="131.5" y="-677.8" font-family="sans" font-size="10.00"> </text>
<text text-anchor="start" x="135.5" y="-677.8" font-family="sans" font-weight="bold" font-size="14.00">↪ input</text>
<text text-anchor="start" x="193.5" y="-677.8" font-family="sans" font-size="10.00"> </text>
<text text-anchor="start" x="131.5" y="-658" font-family="monospace" font-size="10.00">processed_data.txt</text>
<text text-anchor="start" x="131.5" y="-640" font-family="monospace" font-size="10.00">processed_model_BCNexus.txt</text>
<text text-anchor="start" x="216.5" y="-619.8" font-family="sans" font-size="10.00"> </text>
<text text-anchor="start" x="220.5" y="-619.8" font-family="sans" font-weight="bold" font-size="14.00">output →</text>
<text text-anchor="start" x="290.5" y="-619.8" font-family="sans" font-size="10.00"> </text>
<text text-anchor="start" x="131.5" y="-600" font-family="monospace" font-size="10.00">LP_file/BCNexus.lp</text>
<text text-anchor="start" x="131.5" y="-582" font-family="monospace" font-size="10.00">docs/CBC_solution.sol</text>
<polygon fill="#5772d9" stroke="#5772d9" points="125.5,-692 125.5,-692 301.5,-692 301.5,-692 125.5,-692"/>
<polygon fill="#5772d9" stroke="#5772d9" points="125.5,-634 125.5,-634 301.5,-634 301.5,-634 125.5,-634"/>
<polygon fill="none" stroke="#5772d9" stroke-width="2" points="125,-573 125,-721 300,-721 300,-573 125,-573"/>
</g>
<!-- 3&#45;&gt;2 -->
<g id="edge5" class="edge">
<title>3&#45;&gt;2</title>
<path fill="none" stroke="grey" stroke-width="2" d="M212.5,-571.78C212.5,-563.37 212.5,-554.79 212.5,-546.37"/>
<polygon fill="grey" stroke="grey" stroke-width="2" points="216,-546.19 212.5,-536.19 209,-546.19 216,-546.19"/>
</g>
<!-- 4 -->
<g id="node5" class="node">
<title>4</title>
<text text-anchor="start" x="190.5" y="-905.6" font-family="sans" font-weight="bold" font-size="18.00">Preprocess_data</text>
<text text-anchor="start" x="190.5" y="-881.8" font-family="sans" font-size="10.00"> </text>
<text text-anchor="start" x="194.5" y="-881.8" font-family="sans" font-weight="bold" font-size="14.00">↪ input</text>
<text text-anchor="start" x="252.5" y="-881.8" font-family="sans" font-size="10.00"> </text>
<text text-anchor="start" x="190.5" y="-862" font-family="monospace" font-size="10.00">Scripts/preprocess_data.py</text>
<text text-anchor="start" x="190.5" y="-844" font-family="monospace" font-size="10.00">data.txt</text>
<text text-anchor="start" x="190.5" y="-826" font-family="monospace" font-size="10.00">model/model_BCNexus.txt</text>
<text text-anchor="start" x="278.5" y="-805.8" font-family="sans" font-size="10.00"> </text>
<text text-anchor="start" x="282.5" y="-805.8" font-family="sans" font-weight="bold" font-size="14.00">output →</text>
<text text-anchor="start" x="352.5" y="-805.8" font-family="sans" font-size="10.00"> </text>
<text text-anchor="start" x="190.5" y="-786" font-family="monospace" font-size="10.00">processed_data.txt</text>
<text text-anchor="start" x="190.5" y="-768" font-family="monospace" font-size="10.00">processed_model_BCNexus.txt</text>
<polygon fill="#57c4d9" stroke="#57c4d9" points="184.5,-896 184.5,-896 363.5,-896 363.5,-896 184.5,-896"/>
<polygon fill="#57c4d9" stroke="#57c4d9" points="184.5,-820 184.5,-820 363.5,-820 363.5,-820 184.5,-820"/>
<polygon fill="none" stroke="#57c4d9" stroke-width="2" points="184.5,-759 184.5,-925 362.5,-925 362.5,-759 184.5,-759"/>
</g>
<!-- 4&#45;&gt;3 -->
<g id="edge6" class="edge">
<title>4&#45;&gt;3</title>
<path fill="none" stroke="grey" stroke-width="2" d="M247.19,-757.75C244.47,-749.15 241.71,-740.41 238.99,-731.81"/>
<polygon fill="grey" stroke="grey" stroke-width="2" points="242.29,-730.64 235.94,-722.16 235.62,-732.75 242.29,-730.64"/>
</g>
<!-- 5 -->
<g id="node6" class="node">
<title>5</title>
<text text-anchor="start" x="182.5" y="-1073.6" font-family="sans" font-weight="bold" font-size="18.00">Input_Data_Interfacing_otoole</text>
<text text-anchor="start" x="182.5" y="-1049.8" font-family="sans" font-size="10.00"> </text>
<text text-anchor="start" x="186.5" y="-1049.8" font-family="sans" font-weight="bold" font-size="14.00">↪ input</text>
<text text-anchor="start" x="244.5" y="-1049.8" font-family="sans" font-size="10.00"> </text>
<text text-anchor="start" x="182.5" y="-1030" font-family="monospace" font-size="10.00">data</text>
<text text-anchor="start" x="405.5" y="-1009.8" font-family="sans" font-size="10.00"> </text>
<text text-anchor="start" x="409.5" y="-1009.8" font-family="sans" font-weight="bold" font-size="14.00">output →</text>
<text text-anchor="start" x="479.5" y="-1009.8" font-family="sans" font-size="10.00"> </text>
<text text-anchor="start" x="182.5" y="-990" font-family="monospace" font-size="10.00">check_flags/otoole_datafile_prepared.check</text>
<text text-anchor="start" x="182.5" y="-972" font-family="monospace" font-size="10.00">data.txt</text>
<polygon fill="#d95757" stroke="#d95757" points="176.5,-1064 176.5,-1064 490.5,-1064 490.5,-1064 176.5,-1064"/>
<polygon fill="#d95757" stroke="#d95757" points="176.5,-1024 176.5,-1024 490.5,-1024 490.5,-1024 176.5,-1024"/>
<polygon fill="none" stroke="#d95757" stroke-width="2" points="176,-963 176,-1093 489,-1093 489,-963 176,-963"/>
</g>
<!-- 5&#45;&gt;4 -->
<g id="edge7" class="edge">
<title>5&#45;&gt;4</title>
<path fill="none" stroke="grey" stroke-width="2" d="M311.62,-961.87C308.89,-953.37 306.06,-944.53 303.22,-935.68"/>
<polygon fill="grey" stroke="grey" stroke-width="2" points="306.53,-934.55 300.14,-926.09 299.86,-936.68 306.53,-934.55"/>
</g>
<!-- 15 -->
<g id="node16" class="node">
<title>15</title>
<text text-anchor="start" x="402" y="-692.6" font-family="sans" font-weight="bold" font-size="18.00">make_RES</text>
<text text-anchor="start" x="326.5" y="-668.8" font-family="sans" font-size="10.00"> </text>
<text text-anchor="start" x="330.5" y="-668.8" font-family="sans" font-weight="bold" font-size="14.00">↪ input</text>
<text text-anchor="start" x="388.5" y="-668.8" font-family="sans" font-size="10.00"> </text>
<text text-anchor="start" x="326.5" y="-649" font-family="monospace" font-size="10.00">check_flags/otoole_datafile_prepared.check</text>
<text text-anchor="start" x="326.5" y="-631" font-family="monospace" font-size="10.00">data.txt</text>
<text text-anchor="start" x="501.5" y="-610.8" font-family="sans" font-size="10.00"> </text>
<text text-anchor="start" x="505.5" y="-610.8" font-family="sans" font-weight="bold" font-size="14.00">output →</text>
<text text-anchor="start" x="575.5" y="-610.8" font-family="sans" font-size="10.00"> </text>
<text text-anchor="start" x="326.5" y="-591" font-family="monospace" font-size="10.00">docs/BCNexus_RES.png</text>
<polygon fill="#d97257" stroke="#d97257" points="320.5,-683 320.5,-683 586.5,-683 586.5,-683 320.5,-683"/>
<polygon fill="#d97257" stroke="#d97257" points="320.5,-625 320.5,-625 586.5,-625 586.5,-625 320.5,-625"/>
<polygon fill="none" stroke="#d97257" stroke-width="2" points="320,-582 320,-712 585,-712 585,-582 320,-582"/>
</g>
<!-- 5&#45;&gt;15 -->
<g id="edge18" class="edge">
<title>5&#45;&gt;15</title>
<path fill="none" stroke="grey" stroke-width="2" d="M359.36,-961.88C363.95,-950.01 368.51,-937.69 372.5,-926 395.67,-858.06 417.9,-779.34 433.02,-723.04"/>
<polygon fill="grey" stroke="grey" stroke-width="2" points="436.47,-723.72 435.67,-713.15 429.7,-721.91 436.47,-723.72"/>
</g>
<!-- 6 -->
<g id="node7" class="node">
<title>6</title>
<text text-anchor="start" x="233.5" y="-1259.6" font-family="sans" font-weight="bold" font-size="18.00">Scenario_Data_Files</text>
<text text-anchor="start" x="218.5" y="-1235.8" font-family="sans" font-size="10.00"> </text>
<text text-anchor="start" x="222.5" y="-1235.8" font-family="sans" font-weight="bold" font-size="14.00">↪ input</text>
<text text-anchor="start" x="280.5" y="-1235.8" font-family="sans" font-size="10.00"> </text>
<text text-anchor="start" x="218.5" y="-1216" font-family="monospace" font-size="10.00">Scripts/organize_files.py</text>
<text text-anchor="start" x="218.5" y="-1198" font-family="monospace" font-size="10.00">check_flags/Data_Updated.check</text>
<text text-anchor="start" x="218.5" y="-1180" font-family="monospace" font-size="10.00">check_flags/Model_shell_complete.check</text>
<text text-anchor="start" x="369.5" y="-1159.8" font-family="sans" font-size="10.00"> </text>
<text text-anchor="start" x="373.5" y="-1159.8" font-family="sans" font-weight="bold" font-size="14.00">output →</text>
<text text-anchor="start" x="443.5" y="-1159.8" font-family="sans" font-size="10.00"> </text>
<text text-anchor="start" x="218.5" y="-1140" font-family="monospace" font-size="10.00">data</text>
<polygon fill="#d9a957" stroke="#d9a957" points="212.5,-1250 212.5,-1250 454.5,-1250 454.5,-1250 212.5,-1250"/>
<polygon fill="#d9a957" stroke="#d9a957" points="212.5,-1174 212.5,-1174 454.5,-1174 454.5,-1174 212.5,-1174"/>
<polygon fill="none" stroke="#d9a957" stroke-width="2" points="212,-1131 212,-1279 453,-1279 453,-1131 212,-1131"/>
</g>
<!-- 6&#45;&gt;5 -->
<g id="edge8" class="edge">
<title>6&#45;&gt;5</title>
<path fill="none" stroke="grey" stroke-width="2" d="M332.5,-1129.78C332.5,-1121.37 332.5,-1112.79 332.5,-1104.37"/>
<polygon fill="grey" stroke="grey" stroke-width="2" points="336,-1104.19 332.5,-1094.19 329,-1104.19 336,-1104.19"/>
</g>
<!-- 7 -->
<g id="node8" class="node">
<title>7</title>
<text text-anchor="start" x="98" y="-1463.6" font-family="sans" font-weight="bold" font-size="18.00">Model_Shell</text>
<text text-anchor="start" x="7.5" y="-1439.8" font-family="sans" font-size="10.00"> </text>
<text text-anchor="start" x="11.5" y="-1439.8" font-family="sans" font-weight="bold" font-size="14.00">↪ input</text>
<text text-anchor="start" x="69.5" y="-1439.8" font-family="sans" font-size="10.00"> </text>
<text text-anchor="start" x="7.5" y="-1420" font-family="monospace" font-size="10.00">check_flags/Temporal_configuration_completed.check</text>
<text text-anchor="start" x="7.5" y="-1402" font-family="monospace" font-size="10.00">config_files/20230302_BCNexus_CLEWsy.yaml</text>
<text text-anchor="start" x="7.5" y="-1384" font-family="monospace" font-size="10.00">user_inputs</text>
<text text-anchor="start" x="230.5" y="-1363.8" font-family="sans" font-size="10.00"> </text>
<text text-anchor="start" x="234.5" y="-1363.8" font-family="sans" font-weight="bold" font-size="14.00">output →</text>
<text text-anchor="start" x="304.5" y="-1363.8" font-family="sans" font-size="10.00"> </text>
<text text-anchor="start" x="7.5" y="-1344" font-family="monospace" font-size="10.00">check_flags/Model_shell_complete.check</text>
<text text-anchor="start" x="7.5" y="-1326" font-family="monospace" font-size="10.00">user_inputs/Sets/CLEWsy_outputs</text>
<polygon fill="#57d99b" stroke="#57d99b" points="1.5,-1454 1.5,-1454 315.5,-1454 315.5,-1454 1.5,-1454"/>
<polygon fill="#57d99b" stroke="#57d99b" points="1.5,-1378 1.5,-1378 315.5,-1378 315.5,-1378 1.5,-1378"/>
<polygon fill="none" stroke="#57d99b" stroke-width="2" points="1,-1317 1,-1483 314,-1483 314,-1317 1,-1317"/>
</g>
<!-- 7&#45;&gt;6 -->
<g id="edge9" class="edge">
<title>7&#45;&gt;6</title>
<path fill="none" stroke="grey" stroke-width="2" d="M232.99,-1315.75C241.45,-1306.41 250.07,-1296.91 258.52,-1287.59"/>
<polygon fill="grey" stroke="grey" stroke-width="2" points="261.13,-1289.92 265.25,-1280.16 255.94,-1285.22 261.13,-1289.92"/>
</g>
<!-- 8 -->
<g id="node9" class="node">
<title>8</title>
<text text-anchor="start" x="19" y="-1777.6" font-family="sans" font-weight="bold" font-size="18.00">Temporal_Resolution_config</text>
<text text-anchor="start" x="7.5" y="-1756" font-family="sans" font-size="10.00"> &#160;</text>
<text text-anchor="start" x="230.5" y="-1735.8" font-family="sans" font-size="10.00"> </text>
<text text-anchor="start" x="234.5" y="-1735.8" font-family="sans" font-weight="bold" font-size="14.00">output →</text>
<text text-anchor="start" x="304.5" y="-1735.8" font-family="sans" font-size="10.00"> </text>
<text text-anchor="start" x="7.5" y="-1716" font-family="monospace" font-size="10.00">check_flags/Temporal_configuration_completed.check</text>
<polygon fill="#d98d57" stroke="#d98d57" points="1.5,-1768 1.5,-1768 315.5,-1768 315.5,-1768 1.5,-1768"/>
<polygon fill="#d98d57" stroke="#d98d57" points="1.5,-1750 1.5,-1750 315.5,-1750 315.5,-1750 1.5,-1750"/>
<polygon fill="none" stroke="#d98d57" stroke-width="2" points="1,-1707 1,-1797 314,-1797 314,-1707 1,-1707"/>
</g>
<!-- 8&#45;&gt;7 -->
<g id="edge11" class="edge">
<title>8&#45;&gt;7</title>
<path fill="none" stroke="grey" stroke-width="2" d="M157.5,-1705.96C157.5,-1652.84 157.5,-1563.11 157.5,-1494.7"/>
<polygon fill="grey" stroke="grey" stroke-width="2" points="161,-1494.34 157.5,-1484.34 154,-1494.34 161,-1494.34"/>
</g>
<!-- 14 -->
<g id="node15" class="node">
<title>14</title>
<text text-anchor="start" x="306.5" y="-1631.6" font-family="sans" font-weight="bold" font-size="18.00">Scenario_setup</text>
<text text-anchor="start" x="214.5" y="-1607.8" font-family="sans" font-size="10.00"> </text>
<text text-anchor="start" x="218.5" y="-1607.8" font-family="sans" font-weight="bold" font-size="14.00">↪ input</text>
<text text-anchor="start" x="276.5" y="-1607.8" font-family="sans" font-size="10.00"> </text>
<text text-anchor="start" x="214.5" y="-1588" font-family="monospace" font-size="10.00">check_flags/Temporal_configuration_completed.check</text>
<text text-anchor="start" x="473.5" y="-1567.8" font-family="sans" font-size="10.00"> </text>
<text text-anchor="start" x="477.5" y="-1567.8" font-family="sans" font-weight="bold" font-size="14.00">output →</text>
<text text-anchor="start" x="547.5" y="-1567.8" font-family="sans" font-size="10.00"> </text>
<text text-anchor="start" x="214.5" y="-1548" font-family="monospace" font-size="10.00">check_flags/Scenario_Setup_configuration_completed.check</text>
<polygon fill="#b7d957" stroke="#b7d957" points="208.5,-1622 208.5,-1622 558.5,-1622 558.5,-1622 208.5,-1622"/>
<polygon fill="#b7d957" stroke="#b7d957" points="208.5,-1582 208.5,-1582 558.5,-1582 558.5,-1582 208.5,-1582"/>
<polygon fill="none" stroke="#b7d957" stroke-width="2" points="208,-1539 208,-1651 557,-1651 557,-1539 208,-1539"/>
</g>
<!-- 8&#45;&gt;14 -->
<g id="edge17" class="edge">
<title>8&#45;&gt;14</title>
<path fill="none" stroke="grey" stroke-width="2" d="M222.88,-1705.96C244.61,-1690.99 269.19,-1674.06 292.45,-1658.04"/>
<polygon fill="grey" stroke="grey" stroke-width="2" points="294.69,-1660.74 300.94,-1652.18 290.72,-1654.97 294.69,-1660.74"/>
</g>
<!-- 9 -->
<g id="node10" class="node">
<title>9</title>
<text text-anchor="start" x="440.5" y="-1445.6" font-family="sans" font-weight="bold" font-size="18.00">Data_pipeline</text>
<text text-anchor="start" x="340.5" y="-1421.8" font-family="sans" font-size="10.00"> </text>
<text text-anchor="start" x="344.5" y="-1421.8" font-family="sans" font-weight="bold" font-size="14.00">↪ input</text>
<text text-anchor="start" x="402.5" y="-1421.8" font-family="sans" font-size="10.00"> </text>
<text text-anchor="start" x="340.5" y="-1402" font-family="monospace" font-size="10.00">check_flags/DemandData_updated.check</text>
<text text-anchor="start" x="340.5" y="-1384" font-family="monospace" font-size="10.00">check_flags/Scenario_Setup_configuration_completed.check</text>
<text text-anchor="start" x="599.5" y="-1363.8" font-family="sans" font-size="10.00"> </text>
<text text-anchor="start" x="603.5" y="-1363.8" font-family="sans" font-weight="bold" font-size="14.00">output →</text>
<text text-anchor="start" x="673.5" y="-1363.8" font-family="sans" font-size="10.00"> </text>
<text text-anchor="start" x="340.5" y="-1344" font-family="monospace" font-size="10.00">check_flags/Data_Updated.check</text>
<polygon fill="#d2d957" stroke="#d2d957" points="334.5,-1436 334.5,-1436 684.5,-1436 684.5,-1436 334.5,-1436"/>
<polygon fill="#d2d957" stroke="#d2d957" points="334.5,-1378 334.5,-1378 684.5,-1378 684.5,-1378 334.5,-1378"/>
<polygon fill="none" stroke="#d2d957" stroke-width="2" points="334,-1335 334,-1465 683,-1465 683,-1335 334,-1335"/>
</g>
<!-- 9&#45;&gt;6 -->
<g id="edge10" class="edge">
<title>9&#45;&gt;6</title>
<path fill="none" stroke="grey" stroke-width="2" d="M449.16,-1333.93C435.61,-1319.07 421.04,-1303.09 406.95,-1287.64"/>
<polygon fill="grey" stroke="grey" stroke-width="2" points="409.4,-1285.13 400.08,-1280.1 404.23,-1289.85 409.4,-1285.13"/>
</g>
<!-- 10 -->
<g id="node11" class="node">
<title>10</title>
<text text-anchor="start" x="672" y="-1649.6" font-family="sans" font-weight="bold" font-size="18.00">Demand_data</text>
<text text-anchor="start" x="593.5" y="-1625.8" font-family="sans" font-size="10.00"> </text>
<text text-anchor="start" x="597.5" y="-1625.8" font-family="sans" font-weight="bold" font-size="14.00">↪ input</text>
<text text-anchor="start" x="655.5" y="-1625.8" font-family="sans" font-size="10.00"> </text>
<text text-anchor="start" x="593.5" y="-1606" font-family="monospace" font-size="10.00">check_flags/Annual_Demand_updated.check</text>
<text text-anchor="start" x="593.5" y="-1588" font-family="monospace" font-size="10.00">check_flags/Specific_Annual_Demand_updated.check</text>
<text text-anchor="start" x="593.5" y="-1570" font-family="monospace" font-size="10.00">check_flags/Specific_Demand_Profile_updated.check</text>
<text text-anchor="start" x="810.5" y="-1549.8" font-family="sans" font-size="10.00"> </text>
<text text-anchor="start" x="814.5" y="-1549.8" font-family="sans" font-weight="bold" font-size="14.00">output →</text>
<text text-anchor="start" x="884.5" y="-1549.8" font-family="sans" font-size="10.00"> </text>
<text text-anchor="start" x="593.5" y="-1530" font-family="monospace" font-size="10.00">check_flags/DemandData_updated.check</text>
<polygon fill="#80d957" stroke="#80d957" points="587.5,-1640 587.5,-1640 895.5,-1640 895.5,-1640 587.5,-1640"/>
<polygon fill="#80d957" stroke="#80d957" points="587.5,-1564 587.5,-1564 895.5,-1564 895.5,-1564 587.5,-1564"/>
<polygon fill="none" stroke="#80d957" stroke-width="2" points="587,-1521 587,-1669 894,-1669 894,-1521 587,-1521"/>
</g>
<!-- 10&#45;&gt;9 -->
<g id="edge12" class="edge">
<title>10&#45;&gt;9</title>
<path fill="none" stroke="grey" stroke-width="2" d="M651.47,-1519.93C632.79,-1504.4 613.13,-1488.05 594.57,-1472.6"/>
<polygon fill="grey" stroke="grey" stroke-width="2" points="596.62,-1469.75 586.69,-1466.05 592.14,-1475.13 596.62,-1469.75"/>
</g>
<!-- 11 -->
<g id="node12" class="node">
<title>11</title>
<text text-anchor="start" x="376.5" y="-1777.6" font-family="sans" font-weight="bold" font-size="18.00">Annual_Demand</text>
<text text-anchor="start" x="340.5" y="-1756" font-family="sans" font-size="10.00"> &#160;</text>
<text text-anchor="start" x="497.5" y="-1735.8" font-family="sans" font-size="10.00"> </text>
<text text-anchor="start" x="501.5" y="-1735.8" font-family="sans" font-weight="bold" font-size="14.00">output →</text>
<text text-anchor="start" x="571.5" y="-1735.8" font-family="sans" font-size="10.00"> </text>
<text text-anchor="start" x="340.5" y="-1716" font-family="monospace" font-size="10.00">check_flags/Annual_Demand_updated.check</text>
<polygon fill="#d9c457" stroke="#d9c457" points="334.5,-1768 334.5,-1768 582.5,-1768 582.5,-1768 334.5,-1768"/>
<polygon fill="#d9c457" stroke="#d9c457" points="334.5,-1750 334.5,-1750 582.5,-1750 582.5,-1750 334.5,-1750"/>
<polygon fill="none" stroke="#d9c457" stroke-width="2" points="334,-1707 334,-1797 581,-1797 581,-1707 334,-1707"/>
</g>
<!-- 11&#45;&gt;10 -->
<g id="edge16" class="edge">
<title>11&#45;&gt;10</title>
<path fill="none" stroke="grey" stroke-width="2" d="M539.74,-1705.96C557.57,-1696.19 576.93,-1685.59 596.36,-1674.94"/>
<polygon fill="grey" stroke="grey" stroke-width="2" points="598.2,-1677.93 605.29,-1670.06 594.84,-1671.79 598.2,-1677.93"/>
</g>
<!-- 12 -->
<g id="node13" class="node">
<title>12</title>
<text text-anchor="start" x="627" y="-1777.6" font-family="sans" font-weight="bold" font-size="18.00">Specific_Annual_Demand</text>
<text text-anchor="start" x="607.5" y="-1756" font-family="sans" font-size="10.00"> &#160;</text>
<text text-anchor="start" x="818.5" y="-1735.8" font-family="sans" font-size="10.00"> </text>
<text text-anchor="start" x="822.5" y="-1735.8" font-family="sans" font-weight="bold" font-size="14.00">output →</text>
<text text-anchor="start" x="892.5" y="-1735.8" font-family="sans" font-size="10.00"> </text>
<text text-anchor="start" x="607.5" y="-1716" font-family="monospace" font-size="10.00">check_flags/Specific_Annual_Demand_updated.check</text>
<polygon fill="#57d9b7" stroke="#57d9b7" points="601.5,-1768 601.5,-1768 903.5,-1768 903.5,-1768 601.5,-1768"/>
<polygon fill="#57d9b7" stroke="#57d9b7" points="601.5,-1750 601.5,-1750 903.5,-1750 903.5,-1750 601.5,-1750"/>
<polygon fill="none" stroke="#57d9b7" stroke-width="2" points="601,-1707 601,-1797 902,-1797 902,-1707 601,-1707"/>
</g>
<!-- 12&#45;&gt;10 -->
<g id="edge15" class="edge">
<title>12&#45;&gt;10</title>
<path fill="none" stroke="grey" stroke-width="2" d="M748.29,-1705.75C747.72,-1697.72 747.11,-1689.13 746.49,-1680.43"/>
<polygon fill="grey" stroke="grey" stroke-width="2" points="749.96,-1679.9 745.76,-1670.18 742.98,-1680.4 749.96,-1679.9"/>
</g>
<!-- 13 -->
<g id="node14" class="node">
<title>13</title>
<text text-anchor="start" x="953" y="-1777.6" font-family="sans" font-weight="bold" font-size="18.00">Specific_Demand_Profile</text>
<text text-anchor="start" x="928.5" y="-1756" font-family="sans" font-size="10.00"> &#160;</text>
<text text-anchor="start" x="1145.5" y="-1735.8" font-family="sans" font-size="10.00"> </text>
<text text-anchor="start" x="1149.5" y="-1735.8" font-family="sans" font-weight="bold" font-size="14.00">output →</text>
<text text-anchor="start" x="1219.5" y="-1735.8" font-family="sans" font-size="10.00"> </text>
<text text-anchor="start" x="928.5" y="-1716" font-family="monospace" font-size="10.00">check_flags/Specific_Demand_Profile_updated.check</text>
<polygon fill="#57d964" stroke="#57d964" points="922.5,-1768 922.5,-1768 1230.5,-1768 1230.5,-1768 922.5,-1768"/>
<polygon fill="#57d964" stroke="#57d964" points="922.5,-1750 922.5,-1750 1230.5,-1750 1230.5,-1750 922.5,-1750"/>
<polygon fill="none" stroke="#57d964" stroke-width="2" points="922,-1707 922,-1797 1229,-1797 1229,-1707 922,-1707"/>
</g>
<!-- 13&#45;&gt;10 -->
<g id="edge14" class="edge">
<title>13&#45;&gt;10</title>
<path fill="none" stroke="grey" stroke-width="2" d="M978.15,-1705.96C955.01,-1695.25 929.69,-1683.54 904.48,-1671.87"/>
<polygon fill="grey" stroke="grey" stroke-width="2" points="905.74,-1668.6 895.2,-1667.58 902.8,-1674.95 905.74,-1668.6"/>
</g>
<!-- 14&#45;&gt;9 -->
<g id="edge13" class="edge">
<title>14&#45;&gt;9</title>
<path fill="none" stroke="grey" stroke-width="2" d="M419.11,-1537.92C432.01,-1518.16 446.72,-1495.64 460.42,-1474.65"/>
<polygon fill="grey" stroke="grey" stroke-width="2" points="463.48,-1476.36 466.02,-1466.07 457.62,-1472.53 463.48,-1476.36"/>
</g>
<!-- 15&#45;&gt;0 -->
<g id="edge1" class="edge">
<title>15&#45;&gt;0</title>
<path fill="none" stroke="grey" stroke-width="2" d="M467.46,-580.89C486.21,-483.24 507.5,-296.22 432.5,-164 426.58,-153.56 419.05,-144.03 410.53,-135.37"/>
<polygon fill="grey" stroke="grey" stroke-width="2" points="412.8,-132.69 403.16,-128.3 407.95,-137.75 412.8,-132.69"/>
</g>
</g>
</svg>
