<?xml version="1.0" encoding="UTF-8" standalone="no"?>
<!DOCTYPE svg PUBLIC "-//W3C//DTD SVG 1.1//EN"
 "http://www.w3.org/Graphics/SVG/1.1/DTD/svg11.dtd">
<!-- Generated by graphviz version 2.43.0 (0)
 -->
<!-- Title: snakemake_dag Pages: 1 -->
<svg width="172pt" height="476pt"
 viewBox="0.00 0.00 172.00 476.00" xmlns="http://www.w3.org/2000/svg" xmlns:xlink="http://www.w3.org/1999/xlink">
<g id="graph0" class="graph" transform="scale(1 1) rotate(0) translate(4 472)">
<title>snakemake_dag</title>
<polygon fill="white" stroke="transparent" points="-4,4 -4,-472 168,-472 168,4 -4,4"/>
<!-- 0 -->
<g id="node1" class="node">
<title>0</title>
<path fill="none" stroke="#d88d56" stroke-width="2" stroke-dasharray="5,2" d="M97,-36C97,-36 67,-36 67,-36 61,-36 55,-30 55,-24 55,-24 55,-12 55,-12 55,-6 61,0 67,0 67,0 97,0 97,0 103,0 109,-6 109,-12 109,-12 109,-24 109,-24 109,-30 103,-36 97,-36"/>
<text text-anchor="middle" x="82" y="-15.5" font-family="sans" font-size="10.00">Results</text>
</g>
<!-- 1 -->
<g id="node2" class="node">
<title>1</title>
<path fill="none" stroke="#56d88a" stroke-width="2" stroke-dasharray="5,2" d="M109.5,-180C109.5,-180 54.5,-180 54.5,-180 48.5,-180 42.5,-174 42.5,-168 42.5,-168 42.5,-156 42.5,-156 42.5,-150 48.5,-144 54.5,-144 54.5,-144 109.5,-144 109.5,-144 115.5,-144 121.5,-150 121.5,-156 121.5,-156 121.5,-168 121.5,-168 121.5,-174 115.5,-180 109.5,-180"/>
<text text-anchor="middle" x="82" y="-159.5" font-family="sans" font-size="10.00">RUN_MODEL</text>
</g>
<!-- 1&#45;&gt;0 -->
<g id="edge1" class="edge">
<title>1&#45;&gt;0</title>
<path fill="none" stroke="grey" stroke-width="2" d="M75.76,-143.59C72.43,-133.37 68.68,-120.12 67,-108 64.8,-92.15 64.8,-87.85 67,-72 68.18,-63.48 70.39,-54.39 72.75,-46.2"/>
<polygon fill="grey" stroke="grey" stroke-width="2" points="76.17,-46.99 75.76,-36.41 69.48,-44.94 76.17,-46.99"/>
</g>
<!-- 6 -->
<g id="node7" class="node">
<title>6</title>
<path fill="none" stroke="#88d856" stroke-width="2" stroke-dasharray="5,2" d="M144,-108C144,-108 88,-108 88,-108 82,-108 76,-102 76,-96 76,-96 76,-84 76,-84 76,-78 82,-72 88,-72 88,-72 144,-72 144,-72 150,-72 156,-78 156,-84 156,-84 156,-96 156,-96 156,-102 150,-108 144,-108"/>
<text text-anchor="middle" x="116" y="-87.5" font-family="sans" font-size="10.00">Visualization</text>
</g>
<!-- 1&#45;&gt;6 -->
<g id="edge7" class="edge">
<title>1&#45;&gt;6</title>
<path fill="none" stroke="grey" stroke-width="2" d="M90.4,-143.7C94.27,-135.73 98.95,-126.1 103.24,-117.26"/>
<polygon fill="grey" stroke="grey" stroke-width="2" points="106.47,-118.63 107.69,-108.1 100.17,-115.57 106.47,-118.63"/>
</g>
<!-- 2 -->
<g id="node3" class="node">
<title>2</title>
<path fill="none" stroke="#bed856" stroke-width="2" stroke-dasharray="5,2" d="M118.5,-252C118.5,-252 45.5,-252 45.5,-252 39.5,-252 33.5,-246 33.5,-240 33.5,-240 33.5,-228 33.5,-228 33.5,-222 39.5,-216 45.5,-216 45.5,-216 118.5,-216 118.5,-216 124.5,-216 130.5,-222 130.5,-228 130.5,-228 130.5,-240 130.5,-240 130.5,-246 124.5,-252 118.5,-252"/>
<text text-anchor="middle" x="82" y="-231.5" font-family="sans" font-size="10.00">Preprocess_data</text>
</g>
<!-- 2&#45;&gt;1 -->
<g id="edge3" class="edge">
<title>2&#45;&gt;1</title>
<path fill="none" stroke="grey" stroke-width="2" d="M82,-215.7C82,-207.98 82,-198.71 82,-190.11"/>
<polygon fill="grey" stroke="grey" stroke-width="2" points="85.5,-190.1 82,-180.1 78.5,-190.1 85.5,-190.1"/>
</g>
<!-- 3 -->
<g id="node4" class="node">
<title>3</title>
<path fill="none" stroke="#59d856" stroke-width="2" stroke-dasharray="5,2" d="M152,-324C152,-324 12,-324 12,-324 6,-324 0,-318 0,-312 0,-312 0,-300 0,-300 0,-294 6,-288 12,-288 12,-288 152,-288 152,-288 158,-288 164,-294 164,-300 164,-300 164,-312 164,-312 164,-318 158,-324 152,-324"/>
<text text-anchor="middle" x="82" y="-303.5" font-family="sans" font-size="10.00">Input_Data_Interfacing_otoole</text>
</g>
<!-- 3&#45;&gt;2 -->
<g id="edge4" class="edge">
<title>3&#45;&gt;2</title>
<path fill="none" stroke="grey" stroke-width="2" d="M82,-287.7C82,-279.98 82,-270.71 82,-262.11"/>
<polygon fill="grey" stroke="grey" stroke-width="2" points="85.5,-262.1 82,-252.1 78.5,-262.1 85.5,-262.1"/>
</g>
<!-- 4 -->
<g id="node5" class="node">
<title>4</title>
<path fill="none" stroke="#56c1d8" stroke-width="2" stroke-dasharray="5,2" d="M127.5,-396C127.5,-396 36.5,-396 36.5,-396 30.5,-396 24.5,-390 24.5,-384 24.5,-384 24.5,-372 24.5,-372 24.5,-366 30.5,-360 36.5,-360 36.5,-360 127.5,-360 127.5,-360 133.5,-360 139.5,-366 139.5,-372 139.5,-372 139.5,-384 139.5,-384 139.5,-390 133.5,-396 127.5,-396"/>
<text text-anchor="middle" x="82" y="-375.5" font-family="sans" font-size="10.00">Scenario_Data_Files</text>
</g>
<!-- 4&#45;&gt;3 -->
<g id="edge5" class="edge">
<title>4&#45;&gt;3</title>
<path fill="none" stroke="grey" stroke-width="2" d="M82,-359.7C82,-351.98 82,-342.71 82,-334.11"/>
<polygon fill="grey" stroke="grey" stroke-width="2" points="85.5,-334.1 82,-324.1 78.5,-334.1 85.5,-334.1"/>
</g>
<!-- 5 -->
<g id="node6" class="node">
<title>5</title>
<path fill="none" stroke="#d85656" stroke-width="2" stroke-dasharray="5,2" d="M108,-468C108,-468 56,-468 56,-468 50,-468 44,-462 44,-456 44,-456 44,-444 44,-444 44,-438 50,-432 56,-432 56,-432 108,-432 108,-432 114,-432 120,-438 120,-444 120,-444 120,-456 120,-456 120,-462 114,-468 108,-468"/>
<text text-anchor="middle" x="82" y="-447.5" font-family="sans" font-size="10.00">Model_Shell</text>
</g>
<!-- 5&#45;&gt;4 -->
<g id="edge6" class="edge">
<title>5&#45;&gt;4</title>
<path fill="none" stroke="grey" stroke-width="2" d="M82,-431.7C82,-423.98 82,-414.71 82,-406.11"/>
<polygon fill="grey" stroke="grey" stroke-width="2" points="85.5,-406.1 82,-396.1 78.5,-406.1 85.5,-406.1"/>
</g>
<!-- 6&#45;&gt;0 -->
<g id="edge2" class="edge">
<title>6&#45;&gt;0</title>
<path fill="none" stroke="grey" stroke-width="2" d="M107.6,-71.7C103.73,-63.73 99.05,-54.1 94.76,-45.26"/>
<polygon fill="grey" stroke="grey" stroke-width="2" points="97.83,-43.57 90.31,-36.1 91.53,-46.63 97.83,-43.57"/>
</g>
</g>
</svg>
