<?xml version="1.0" encoding="UTF-8" standalone="no"?>
<!DOCTYPE svg PUBLIC "-//W3C//DTD SVG 1.1//EN"
 "http://www.w3.org/Graphics/SVG/1.1/DTD/svg11.dtd">
<!-- Generated by graphviz version 2.43.0 (0)
 -->
<!-- Title: snakemake_dag Pages: 1 -->
<svg width="734pt" height="1528pt"
 viewBox="0.00 0.00 734.00 1528.00" xmlns="http://www.w3.org/2000/svg" xmlns:xlink="http://www.w3.org/1999/xlink">
<g id="graph0" class="graph" transform="scale(1 1) rotate(0) translate(4 1524)">
<title>snakemake_dag</title>
<polygon fill="white" stroke="transparent" points="-4,4 -4,-1524 730,-1524 730,4 -4,4"/>
<!-- 0 -->
<g id="node1" class="node">
<title>0</title>
<text text-anchor="start" x="255.5" y="-125.6" font-family="sans" font-weight="bold" font-size="18.00">all</text>
<text text-anchor="start" x="99.5" y="-101.8" font-family="sans" font-size="10.00"> </text>
<text text-anchor="start" x="103.5" y="-101.8" font-family="sans" font-weight="bold" font-size="14.00">↪ input</text>
<text text-anchor="start" x="161.5" y="-101.8" font-family="sans" font-size="10.00"> </text>
<text text-anchor="start" x="99.5" y="-82" font-family="monospace" font-size="10.00">RES/BCNexus_RES.png</text>
<text text-anchor="start" x="99.5" y="-64" font-family="monospace" font-size="10.00">workflow/check_flags/check_flag_scenario_file_dump.check</text>
<text text-anchor="start" x="99.5" y="-46" font-family="monospace" font-size="10.00">workflow/check_flags/dashboard_deployed.check</text>
<text text-anchor="start" x="99.5" y="-28" font-family="monospace" font-size="10.00">workflow/check_flags/otoole_ResultsFile_genrated.check</text>
<text text-anchor="start" x="429.5" y="-10" font-family="sans" font-size="10.00"> &#160;</text>
<polygon fill="#57d9ad" stroke="#57d9ad" points="93.5,-116 93.5,-116 443.5,-116 443.5,-116 93.5,-116"/>
<polygon fill="#57d9ad" stroke="#57d9ad" points="93.5,-22 93.5,-22 443.5,-22 443.5,-22 93.5,-22"/>
<polygon fill="none" stroke="#57d9ad" stroke-width="2" points="93,-1 93,-145 442,-145 442,-1 93,-1"/>
</g>
<!-- 1 -->
<g id="node2" class="node">
<title>1</title>
<text text-anchor="start" x="11.5" y="-701.6" font-family="sans" font-weight="bold" font-size="18.00">Output_Data_Interfacing_otoole</text>
<text text-anchor="start" x="7.5" y="-677.8" font-family="sans" font-size="10.00"> </text>
<text text-anchor="start" x="11.5" y="-677.8" font-family="sans" font-weight="bold" font-size="14.00">↪ input</text>
<text text-anchor="start" x="69.5" y="-677.8" font-family="sans" font-size="10.00"> </text>
<text text-anchor="start" x="7.5" y="-658" font-family="monospace" font-size="10.00">workflow/check_flags/check_flag_model_run.check</text>
<text text-anchor="start" x="7.5" y="-640" font-family="monospace" font-size="10.00">workflow/docs/CBC_solution.sol</text>
<text text-anchor="start" x="254.5" y="-619.8" font-family="sans" font-size="10.00"> </text>
<text text-anchor="start" x="258.5" y="-619.8" font-family="sans" font-weight="bold" font-size="14.00">output →</text>
<text text-anchor="start" x="328.5" y="-619.8" font-family="sans" font-size="10.00"> </text>
<text text-anchor="start" x="7.5" y="-600" font-family="monospace" font-size="10.00">results</text>
<text text-anchor="start" x="7.5" y="-582" font-family="monospace" font-size="10.00">workflow/check_flags/otoole_ResultsFile_genrated.check</text>
<polygon fill="#d9ad57" stroke="#d9ad57" points="1.5,-692 1.5,-692 339.5,-692 339.5,-692 1.5,-692"/>
<polygon fill="#d9ad57" stroke="#d9ad57" points="1.5,-634 1.5,-634 339.5,-634 339.5,-634 1.5,-634"/>
<polygon fill="none" stroke="#d9ad57" stroke-width="2" points="1,-573 1,-721 338,-721 338,-573 1,-573"/>
</g>
<!-- 1&#45;&gt;0 -->
<g id="edge2" class="edge">
<title>1&#45;&gt;0</title>
<path fill="none" stroke="grey" stroke-width="2" d="M152.41,-571.72C134.35,-477.36 114.97,-311.27 166.5,-182 170.32,-172.42 175.42,-163.19 181.32,-154.43"/>
<polygon fill="grey" stroke="grey" stroke-width="2" points="184.24,-156.36 187.2,-146.19 178.54,-152.3 184.24,-156.36"/>
</g>
<!-- 7 -->
<g id="node8" class="node">
<title>7</title>
<text text-anchor="start" x="267" y="-515.6" font-family="sans" font-weight="bold" font-size="18.00">scenario_Results</text>
<text text-anchor="start" x="182.5" y="-491.8" font-family="sans" font-size="10.00"> </text>
<text text-anchor="start" x="186.5" y="-491.8" font-family="sans" font-weight="bold" font-size="14.00">↪ input</text>
<text text-anchor="start" x="244.5" y="-491.8" font-family="sans" font-size="10.00"> </text>
<text text-anchor="start" x="182.5" y="-472" font-family="monospace" font-size="10.00">model/model_BCNexus.txt</text>
<text text-anchor="start" x="182.5" y="-454" font-family="monospace" font-size="10.00">results</text>
<text text-anchor="start" x="182.5" y="-436" font-family="monospace" font-size="10.00">workflow/check_flags/otoole_ResultsFile_genrated.check</text>
<text text-anchor="start" x="182.5" y="-418" font-family="monospace" font-size="10.00">workflow/data.txt</text>
<text text-anchor="start" x="441.5" y="-397.8" font-family="sans" font-size="10.00"> </text>
<text text-anchor="start" x="445.5" y="-397.8" font-family="sans" font-weight="bold" font-size="14.00">output →</text>
<text text-anchor="start" x="515.5" y="-397.8" font-family="sans" font-size="10.00"> </text>
<text text-anchor="start" x="182.5" y="-378" font-family="monospace" font-size="10.00">workflow/BCNexus_Scenarios/scenario_files/Sample</text>
<text text-anchor="start" x="182.5" y="-360" font-family="monospace" font-size="10.00">workflow/BCNexus_Scenarios/scenario_files/Sample/results</text>
<text text-anchor="start" x="182.5" y="-342" font-family="monospace" font-size="10.00">workflow/check_flags/check_flag_scenario_file_dump.check</text>
<polygon fill="#82d957" stroke="#82d957" points="176.5,-506 176.5,-506 526.5,-506 526.5,-506 176.5,-506"/>
<polygon fill="#82d957" stroke="#82d957" points="176.5,-412 176.5,-412 526.5,-412 526.5,-412 176.5,-412"/>
<polygon fill="none" stroke="#82d957" stroke-width="2" points="176,-333 176,-535 525,-535 525,-333 176,-333"/>
</g>
<!-- 1&#45;&gt;7 -->
<g id="edge11" class="edge">
<title>1&#45;&gt;7</title>
<path fill="none" stroke="grey" stroke-width="2" d="M233.06,-571.91C240.86,-562.82 248.95,-553.39 257.07,-543.92"/>
<polygon fill="grey" stroke="grey" stroke-width="2" points="259.73,-546.19 263.58,-536.32 254.41,-541.64 259.73,-546.19"/>
</g>
<!-- 2 -->
<g id="node3" class="node">
<title>2</title>
<text text-anchor="start" x="112" y="-905.6" font-family="sans" font-weight="bold" font-size="18.00">RUN_MODEL</text>
<text text-anchor="start" x="32.5" y="-881.8" font-family="sans" font-size="10.00"> </text>
<text text-anchor="start" x="36.5" y="-881.8" font-family="sans" font-weight="bold" font-size="14.00">↪ input</text>
<text text-anchor="start" x="94.5" y="-881.8" font-family="sans" font-size="10.00"> </text>
<text text-anchor="start" x="32.5" y="-862" font-family="monospace" font-size="10.00">workflow/processed_data.txt</text>
<text text-anchor="start" x="32.5" y="-844" font-family="monospace" font-size="10.00">workflow/processed_model_BCNexus.txt</text>
<text text-anchor="start" x="237.5" y="-823.8" font-family="sans" font-size="10.00"> </text>
<text text-anchor="start" x="241.5" y="-823.8" font-family="sans" font-weight="bold" font-size="14.00">output →</text>
<text text-anchor="start" x="311.5" y="-823.8" font-family="sans" font-size="10.00"> </text>
<text text-anchor="start" x="32.5" y="-804" font-family="monospace" font-size="10.00">workflow/LP_file/BCNexus.lp</text>
<text text-anchor="start" x="32.5" y="-786" font-family="monospace" font-size="10.00">workflow/check_flags/check_flag_model_run.check</text>
<text text-anchor="start" x="32.5" y="-768" font-family="monospace" font-size="10.00">workflow/docs/CBC_solution.sol</text>
<polygon fill="#d95757" stroke="#d95757" points="26.5,-896 26.5,-896 322.5,-896 322.5,-896 26.5,-896"/>
<polygon fill="#d95757" stroke="#d95757" points="26.5,-838 26.5,-838 322.5,-838 322.5,-838 26.5,-838"/>
<polygon fill="none" stroke="#d95757" stroke-width="2" points="26,-759 26,-925 321,-925 321,-759 26,-759"/>
</g>
<!-- 2&#45;&gt;1 -->
<g id="edge5" class="edge">
<title>2&#45;&gt;1</title>
<path fill="none" stroke="grey" stroke-width="2" d="M171.77,-757.75C171.6,-749.34 171.42,-740.79 171.25,-732.36"/>
<polygon fill="grey" stroke="grey" stroke-width="2" points="174.74,-732.09 171.04,-722.16 167.75,-732.23 174.74,-732.09"/>
</g>
<!-- 3 -->
<g id="node4" class="node">
<title>3</title>
<text text-anchor="start" x="94" y="-1127.6" font-family="sans" font-weight="bold" font-size="18.00">Preprocess_data</text>
<text text-anchor="start" x="23.5" y="-1103.8" font-family="sans" font-size="10.00"> </text>
<text text-anchor="start" x="27.5" y="-1103.8" font-family="sans" font-weight="bold" font-size="14.00">↪ input</text>
<text text-anchor="start" x="85.5" y="-1103.8" font-family="sans" font-size="10.00"> </text>
<text text-anchor="start" x="23.5" y="-1084" font-family="monospace" font-size="10.00">model/model_BCNexus.txt</text>
<text text-anchor="start" x="23.5" y="-1066" font-family="monospace" font-size="10.00">workflow/check_flags/otoole_datafile_prepared.check</text>
<text text-anchor="start" x="23.5" y="-1048" font-family="monospace" font-size="10.00">workflow/data.txt</text>
<text text-anchor="start" x="23.5" y="-1030" font-family="monospace" font-size="10.00">workflow/scripts/preprocess_data.py</text>
<text text-anchor="start" x="252.5" y="-1009.8" font-family="sans" font-size="10.00"> </text>
<text text-anchor="start" x="256.5" y="-1009.8" font-family="sans" font-weight="bold" font-size="14.00">output →</text>
<text text-anchor="start" x="326.5" y="-1009.8" font-family="sans" font-size="10.00"> </text>
<text text-anchor="start" x="23.5" y="-990" font-family="monospace" font-size="10.00">workflow/processed_data.txt</text>
<text text-anchor="start" x="23.5" y="-972" font-family="monospace" font-size="10.00">workflow/processed_model_BCNexus.txt</text>
<polygon fill="#57d982" stroke="#57d982" points="17.5,-1118 17.5,-1118 337.5,-1118 337.5,-1118 17.5,-1118"/>
<polygon fill="#57d982" stroke="#57d982" points="17.5,-1024 17.5,-1024 337.5,-1024 337.5,-1024 17.5,-1024"/>
<polygon fill="none" stroke="#57d982" stroke-width="2" points="17,-963 17,-1147 336,-1147 336,-963 17,-963"/>
</g>
<!-- 3&#45;&gt;2 -->
<g id="edge6" class="edge">
<title>3&#45;&gt;2</title>
<path fill="none" stroke="grey" stroke-width="2" d="M175.19,-961.76C175.07,-953.32 174.95,-944.77 174.83,-936.33"/>
<polygon fill="grey" stroke="grey" stroke-width="2" points="178.32,-936.04 174.68,-926.09 171.32,-936.14 178.32,-936.04"/>
</g>
<!-- 4 -->
<g id="node5" class="node">
<title>4</title>
<text text-anchor="start" x="217.5" y="-1313.6" font-family="sans" font-weight="bold" font-size="18.00">Input_Data_Interfacing_otoole</text>
<text text-anchor="start" x="214.5" y="-1289.8" font-family="sans" font-size="10.00"> </text>
<text text-anchor="start" x="218.5" y="-1289.8" font-family="sans" font-weight="bold" font-size="14.00">↪ input</text>
<text text-anchor="start" x="276.5" y="-1289.8" font-family="sans" font-size="10.00"> </text>
<text text-anchor="start" x="214.5" y="-1270" font-family="monospace" font-size="10.00">data</text>
<text text-anchor="start" x="214.5" y="-1252" font-family="monospace" font-size="10.00">workflow/check_flags/Model_shell_complete.check</text>
<text text-anchor="start" x="443.5" y="-1231.8" font-family="sans" font-size="10.00"> </text>
<text text-anchor="start" x="447.5" y="-1231.8" font-family="sans" font-weight="bold" font-size="14.00">output →</text>
<text text-anchor="start" x="517.5" y="-1231.8" font-family="sans" font-size="10.00"> </text>
<text text-anchor="start" x="214.5" y="-1212" font-family="monospace" font-size="10.00">workflow/check_flags/otoole_datafile_prepared.check</text>
<text text-anchor="start" x="214.5" y="-1194" font-family="monospace" font-size="10.00">workflow/data.txt</text>
<polygon fill="#d98257" stroke="#d98257" points="208.5,-1304 208.5,-1304 528.5,-1304 528.5,-1304 208.5,-1304"/>
<polygon fill="#d98257" stroke="#d98257" points="208.5,-1246 208.5,-1246 528.5,-1246 528.5,-1246 208.5,-1246"/>
<polygon fill="none" stroke="#d98257" stroke-width="2" points="208,-1185 208,-1333 527,-1333 527,-1185 208,-1185"/>
</g>
<!-- 4&#45;&gt;3 -->
<g id="edge7" class="edge">
<title>4&#45;&gt;3</title>
<path fill="none" stroke="grey" stroke-width="2" d="M297.46,-1183.93C288.72,-1174.69 279.68,-1165.12 270.65,-1155.57"/>
<polygon fill="grey" stroke="grey" stroke-width="2" points="273.17,-1153.14 263.75,-1148.28 268.08,-1157.95 273.17,-1153.14"/>
</g>
<!-- 4&#45;&gt;7 -->
<g id="edge10" class="edge">
<title>4&#45;&gt;7</title>
<path fill="none" stroke="grey" stroke-width="2" d="M365.97,-1183.88C362.97,-1038.8 356.32,-716.65 352.79,-546.02"/>
<polygon fill="grey" stroke="grey" stroke-width="2" points="356.29,-545.93 352.59,-536.01 349.29,-546.08 356.29,-545.93"/>
</g>
<!-- 8 -->
<g id="node9" class="node">
<title>8</title>
<text text-anchor="start" x="515" y="-887.6" font-family="sans" font-weight="bold" font-size="18.00">make_RES</text>
<text text-anchor="start" x="412.5" y="-863.8" font-family="sans" font-size="10.00"> </text>
<text text-anchor="start" x="416.5" y="-863.8" font-family="sans" font-weight="bold" font-size="14.00">↪ input</text>
<text text-anchor="start" x="474.5" y="-863.8" font-family="sans" font-size="10.00"> </text>
<text text-anchor="start" x="412.5" y="-844" font-family="monospace" font-size="10.00">workflow/check_flags/otoole_datafile_prepared.check</text>
<text text-anchor="start" x="412.5" y="-826" font-family="monospace" font-size="10.00">workflow/data.txt</text>
<text text-anchor="start" x="641.5" y="-805.8" font-family="sans" font-size="10.00"> </text>
<text text-anchor="start" x="645.5" y="-805.8" font-family="sans" font-weight="bold" font-size="14.00">output →</text>
<text text-anchor="start" x="715.5" y="-805.8" font-family="sans" font-size="10.00"> </text>
<text text-anchor="start" x="412.5" y="-786" font-family="monospace" font-size="10.00">RES/BCNexus_RES.png</text>
<polygon fill="#5782d9" stroke="#5782d9" points="406.5,-878 406.5,-878 726.5,-878 726.5,-878 406.5,-878"/>
<polygon fill="#5782d9" stroke="#5782d9" points="406.5,-820 406.5,-820 726.5,-820 726.5,-820 406.5,-820"/>
<polygon fill="none" stroke="#5782d9" stroke-width="2" points="406,-777 406,-907 725,-907 725,-777 406,-777"/>
</g>
<!-- 4&#45;&gt;8 -->
<g id="edge12" class="edge">
<title>4&#45;&gt;8</title>
<path fill="none" stroke="grey" stroke-width="2" d="M402.9,-1183.81C438.79,-1108.57 494.03,-992.79 529.97,-917.46"/>
<polygon fill="grey" stroke="grey" stroke-width="2" points="533.33,-918.56 534.48,-908.02 527.01,-915.54 533.33,-918.56"/>
</g>
<!-- 5 -->
<g id="node6" class="node">
<title>5</title>
<text text-anchor="start" x="308" y="-1499.6" font-family="sans" font-weight="bold" font-size="18.00">Model_Shell</text>
<text text-anchor="start" x="226.5" y="-1475.8" font-family="sans" font-size="10.00"> </text>
<text text-anchor="start" x="230.5" y="-1475.8" font-family="sans" font-weight="bold" font-size="14.00">↪ input</text>
<text text-anchor="start" x="288.5" y="-1475.8" font-family="sans" font-size="10.00"> </text>
<text text-anchor="start" x="226.5" y="-1456" font-family="monospace" font-size="10.00">config/BCNexus_CLEWsy.yaml</text>
<text text-anchor="start" x="226.5" y="-1438" font-family="monospace" font-size="10.00">user_inputs</text>
<text text-anchor="start" x="431.5" y="-1417.8" font-family="sans" font-size="10.00"> </text>
<text text-anchor="start" x="435.5" y="-1417.8" font-family="sans" font-weight="bold" font-size="14.00">output →</text>
<text text-anchor="start" x="505.5" y="-1417.8" font-family="sans" font-size="10.00"> </text>
<text text-anchor="start" x="226.5" y="-1398" font-family="monospace" font-size="10.00">user_inputs/Sets/CLEWsy_outputs</text>
<text text-anchor="start" x="226.5" y="-1380" font-family="monospace" font-size="10.00">workflow/check_flags/Model_shell_complete.check</text>
<polygon fill="#57d9d9" stroke="#57d9d9" points="220.5,-1490 220.5,-1490 516.5,-1490 516.5,-1490 220.5,-1490"/>
<polygon fill="#57d9d9" stroke="#57d9d9" points="220.5,-1432 220.5,-1432 516.5,-1432 516.5,-1432 220.5,-1432"/>
<polygon fill="none" stroke="#57d9d9" stroke-width="2" points="220,-1371 220,-1519 515,-1519 515,-1371 220,-1371"/>
</g>
<!-- 5&#45;&gt;4 -->
<g id="edge8" class="edge">
<title>5&#45;&gt;4</title>
<path fill="none" stroke="grey" stroke-width="2" d="M367.5,-1369.96C367.5,-1361.49 367.5,-1352.81 367.5,-1344.22"/>
<polygon fill="grey" stroke="grey" stroke-width="2" points="371,-1344.19 367.5,-1334.19 364,-1344.19 371,-1344.19"/>
</g>
<!-- 6 -->
<g id="node7" class="node">
<title>6</title>
<text text-anchor="start" x="278" y="-275.6" font-family="sans" font-weight="bold" font-size="18.00">deploy_dashboard</text>
<text text-anchor="start" x="201.5" y="-251.8" font-family="sans" font-size="10.00"> </text>
<text text-anchor="start" x="205.5" y="-251.8" font-family="sans" font-weight="bold" font-size="14.00">↪ input</text>
<text text-anchor="start" x="263.5" y="-251.8" font-family="sans" font-size="10.00"> </text>
<text text-anchor="start" x="201.5" y="-232" font-family="monospace" font-size="10.00">workflow/check_flags/check_flag_scenario_file_dump.check</text>
<text text-anchor="start" x="460.5" y="-211.8" font-family="sans" font-size="10.00"> </text>
<text text-anchor="start" x="464.5" y="-211.8" font-family="sans" font-weight="bold" font-size="14.00">output →</text>
<text text-anchor="start" x="534.5" y="-211.8" font-family="sans" font-size="10.00"> </text>
<text text-anchor="start" x="201.5" y="-192" font-family="monospace" font-size="10.00">workflow/check_flags/dashboard_deployed.check</text>
<polygon fill="#57d957" stroke="#57d957" points="195.5,-266 195.5,-266 545.5,-266 545.5,-266 195.5,-266"/>
<polygon fill="#57d957" stroke="#57d957" points="195.5,-226 195.5,-226 545.5,-226 545.5,-226 195.5,-226"/>
<polygon fill="none" stroke="#57d957" stroke-width="2" points="195,-183 195,-295 544,-295 544,-183 195,-183"/>
</g>
<!-- 6&#45;&gt;0 -->
<g id="edge1" class="edge">
<title>6&#45;&gt;0</title>
<path fill="none" stroke="grey" stroke-width="2" d="M334.4,-181.56C329.03,-172.92 323.39,-163.87 317.77,-154.83"/>
<polygon fill="grey" stroke="grey" stroke-width="2" points="320.65,-152.83 312.4,-146.18 314.7,-156.52 320.65,-152.83"/>
</g>
<!-- 7&#45;&gt;0 -->
<g id="edge3" class="edge">
<title>7&#45;&gt;0</title>
<path fill="none" stroke="grey" stroke-width="2" d="M207.2,-331.66C198.26,-320.58 190.47,-308.68 184.5,-296 162.9,-250.17 168.2,-229.97 184.5,-182 187.67,-172.68 192,-163.54 197.03,-154.76"/>
<polygon fill="grey" stroke="grey" stroke-width="2" points="200.09,-156.47 202.28,-146.11 194.1,-152.84 200.09,-156.47"/>
</g>
<!-- 7&#45;&gt;6 -->
<g id="edge9" class="edge">
<title>7&#45;&gt;6</title>
<path fill="none" stroke="grey" stroke-width="2" d="M360.45,-331.98C361.31,-323.22 362.16,-314.52 362.99,-306.16"/>
<polygon fill="grey" stroke="grey" stroke-width="2" points="366.48,-306.43 363.97,-296.14 359.51,-305.75 366.48,-306.43"/>
</g>
<!-- 8&#45;&gt;0 -->
<g id="edge4" class="edge">
<title>8&#45;&gt;0</title>
<path fill="none" stroke="grey" stroke-width="2" d="M586.23,-775.69C622.34,-648.34 681.39,-363.45 553.5,-182 529.08,-147.36 492.08,-123.82 452.7,-107.83"/>
<polygon fill="grey" stroke="grey" stroke-width="2" points="453.78,-104.5 443.2,-104.13 451.24,-111.02 453.78,-104.5"/>
</g>
</g>
</svg>
