<?xml version="1.0" encoding="UTF-8" standalone="no"?>
<!DOCTYPE svg PUBLIC "-//W3C//DTD SVG 1.1//EN"
 "http://www.w3.org/Graphics/SVG/1.1/DTD/svg11.dtd">
<!-- Generated by graphviz version 2.43.0 (0)
 -->
<!-- Title: snakemake_dag Pages: 1 -->
<svg width="218pt" height="332pt"
 viewBox="0.00 0.00 217.50 332.00" xmlns="http://www.w3.org/2000/svg" xmlns:xlink="http://www.w3.org/1999/xlink">
<g id="graph0" class="graph" transform="scale(1 1) rotate(0) translate(4 328)">
<title>snakemake_dag</title>
<polygon fill="white" stroke="transparent" points="-4,4 -4,-328 213.5,-328 213.5,4 -4,4"/>
<!-- 0 -->
<g id="node1" class="node">
<title>0</title>
<path fill="none" stroke="#d6d856" stroke-width="2" d="M129.5,-36C129.5,-36 99.5,-36 99.5,-36 93.5,-36 87.5,-30 87.5,-24 87.5,-24 87.5,-12 87.5,-12 87.5,-6 93.5,0 99.5,0 99.5,0 129.5,0 129.5,0 135.5,0 141.5,-6 141.5,-12 141.5,-12 141.5,-24 141.5,-24 141.5,-30 135.5,-36 129.5,-36"/>
<text text-anchor="middle" x="114.5" y="-15.5" font-family="sans" font-size="10.00">Results</text>
</g>
<!-- 1 -->
<g id="node2" class="node">
<title>1</title>
<path fill="none" stroke="#56d89a" stroke-width="2" d="M142,-108C142,-108 87,-108 87,-108 81,-108 75,-102 75,-96 75,-96 75,-84 75,-84 75,-78 81,-72 87,-72 87,-72 142,-72 142,-72 148,-72 154,-78 154,-84 154,-84 154,-96 154,-96 154,-102 148,-108 142,-108"/>
<text text-anchor="middle" x="114.5" y="-87.5" font-family="sans" font-size="10.00">RUN_MODEL</text>
</g>
<!-- 1&#45;&gt;0 -->
<g id="edge1" class="edge">
<title>1&#45;&gt;0</title>
<path fill="none" stroke="grey" stroke-width="2" d="M114.5,-71.7C114.5,-63.98 114.5,-54.71 114.5,-46.11"/>
<polygon fill="grey" stroke="grey" stroke-width="2" points="118,-46.1 114.5,-36.1 111,-46.1 118,-46.1"/>
</g>
<!-- 2 -->
<g id="node3" class="node">
<title>2</title>
<path fill="none" stroke="#d89556" stroke-width="2" stroke-dasharray="5,2" d="M151,-180C151,-180 78,-180 78,-180 72,-180 66,-174 66,-168 66,-168 66,-156 66,-156 66,-150 72,-144 78,-144 78,-144 151,-144 151,-144 157,-144 163,-150 163,-156 163,-156 163,-168 163,-168 163,-174 157,-180 151,-180"/>
<text text-anchor="middle" x="114.5" y="-159.5" font-family="sans" font-size="10.00">Preprocess_data</text>
</g>
<!-- 2&#45;&gt;1 -->
<g id="edge2" class="edge">
<title>2&#45;&gt;1</title>
<path fill="none" stroke="grey" stroke-width="2" d="M114.5,-143.7C114.5,-135.98 114.5,-126.71 114.5,-118.11"/>
<polygon fill="grey" stroke="grey" stroke-width="2" points="118,-118.1 114.5,-108.1 111,-118.1 118,-118.1"/>
</g>
<!-- 3 -->
<g id="node4" class="node">
<title>3</title>
<path fill="none" stroke="#d85656" stroke-width="2" stroke-dasharray="5,2" d="M184.5,-252C184.5,-252 44.5,-252 44.5,-252 38.5,-252 32.5,-246 32.5,-240 32.5,-240 32.5,-228 32.5,-228 32.5,-222 38.5,-216 44.5,-216 44.5,-216 184.5,-216 184.5,-216 190.5,-216 196.5,-222 196.5,-228 196.5,-228 196.5,-240 196.5,-240 196.5,-246 190.5,-252 184.5,-252"/>
<text text-anchor="middle" x="114.5" y="-231.5" font-family="sans" font-size="10.00">Input_Data_Interfacing_otoole</text>
</g>
<!-- 3&#45;&gt;2 -->
<g id="edge3" class="edge">
<title>3&#45;&gt;2</title>
<path fill="none" stroke="grey" stroke-width="2" d="M114.5,-215.7C114.5,-207.98 114.5,-198.71 114.5,-190.11"/>
<polygon fill="grey" stroke="grey" stroke-width="2" points="118,-190.1 114.5,-180.1 111,-190.1 118,-190.1"/>
</g>
<!-- 4 -->
<g id="node5" class="node">
<title>4</title>
<path fill="none" stroke="#59d856" stroke-width="2" stroke-dasharray="5,2" d="M103,-324C103,-324 12,-324 12,-324 6,-324 0,-318 0,-312 0,-312 0,-300 0,-300 0,-294 6,-288 12,-288 12,-288 103,-288 103,-288 109,-288 115,-294 115,-300 115,-300 115,-312 115,-312 115,-318 109,-324 103,-324"/>
<text text-anchor="middle" x="57.5" y="-303.5" font-family="sans" font-size="10.00">Scenario_Data_Files</text>
</g>
<!-- 4&#45;&gt;3 -->
<g id="edge4" class="edge">
<title>4&#45;&gt;3</title>
<path fill="none" stroke="grey" stroke-width="2" d="M71.59,-287.7C78.42,-279.3 86.76,-269.07 94.26,-259.86"/>
<polygon fill="grey" stroke="grey" stroke-width="2" points="96.97,-262.07 100.57,-252.1 91.54,-257.65 96.97,-262.07"/>
</g>
<!-- 5 -->
<g id="node6" class="node">
<title>5</title>
<path fill="none" stroke="#56d8d8" stroke-width="2" stroke-dasharray="5,2" d="M197.5,-324C197.5,-324 145.5,-324 145.5,-324 139.5,-324 133.5,-318 133.5,-312 133.5,-312 133.5,-300 133.5,-300 133.5,-294 139.5,-288 145.5,-288 145.5,-288 197.5,-288 197.5,-288 203.5,-288 209.5,-294 209.5,-300 209.5,-300 209.5,-312 209.5,-312 209.5,-318 203.5,-324 197.5,-324"/>
<text text-anchor="middle" x="171.5" y="-303.5" font-family="sans" font-size="10.00">Model_Shell</text>
</g>
<!-- 5&#45;&gt;3 -->
<g id="edge5" class="edge">
<title>5&#45;&gt;3</title>
<path fill="none" stroke="grey" stroke-width="2" d="M157.41,-287.7C150.58,-279.3 142.24,-269.07 134.74,-259.86"/>
<polygon fill="grey" stroke="grey" stroke-width="2" points="137.46,-257.65 128.43,-252.1 132.03,-262.07 137.46,-257.65"/>
</g>
</g>
</svg>
