<?xml version="1.0" encoding="UTF-8" standalone="no"?>
<!DOCTYPE svg PUBLIC "-//W3C//DTD SVG 1.1//EN"
 "http://www.w3.org/Graphics/SVG/1.1/DTD/svg11.dtd">
<!-- Generated by graphviz version 2.43.0 (0)
 -->
<!-- Title: snakemake_dag Pages: 1 -->
<svg width="692pt" height="1734pt"
 viewBox="0.00 0.00 692.00 1734.00" xmlns="http://www.w3.org/2000/svg" xmlns:xlink="http://www.w3.org/1999/xlink">
<g id="graph0" class="graph" transform="scale(1 1) rotate(0) translate(4 1730)">
<title>snakemake_dag</title>
<polygon fill="white" stroke="transparent" points="-4,4 -4,-1730 688,-1730 688,4 -4,4"/>
<!-- 0 -->
<g id="node1" class="node">
<title>0</title>
<text text-anchor="start" x="253" y="-107.6" font-family="sans" font-weight="bold" font-size="18.00">Results</text>
<text text-anchor="start" x="154.5" y="-83.8" font-family="sans" font-size="10.00"> </text>
<text text-anchor="start" x="158.5" y="-83.8" font-family="sans" font-weight="bold" font-size="14.00">↪ input</text>
<text text-anchor="start" x="216.5" y="-83.8" font-family="sans" font-size="10.00"> </text>
<text text-anchor="start" x="154.5" y="-64" font-family="monospace" font-size="10.00">check_flags/Plots_generated.check</text>
<text text-anchor="start" x="154.5" y="-46" font-family="monospace" font-size="10.00">check_flags/otoole_ResultsFile_genrated.check</text>
<text text-anchor="start" x="154.5" y="-28" font-family="monospace" font-size="10.00">docs/BCNexus_RES.png</text>
<text text-anchor="start" x="418.5" y="-10" font-family="sans" font-size="10.00"> &#160;</text>
<polygon fill="#5779d9" stroke="#5779d9" points="148.5,-98 148.5,-98 432.5,-98 432.5,-98 148.5,-98"/>
<polygon fill="#5779d9" stroke="#5779d9" points="148.5,-22 148.5,-22 432.5,-22 432.5,-22 148.5,-22"/>
<polygon fill="none" stroke="#5779d9" stroke-width="2" points="148,-1 148,-127 431,-127 431,-1 148,-1"/>
</g>
<!-- 1 -->
<g id="node2" class="node">
<title>1</title>
<text text-anchor="start" x="225.5" y="-275.6" font-family="sans" font-weight="bold" font-size="18.00">Visualization</text>
<text text-anchor="start" x="154.5" y="-251.8" font-family="sans" font-size="10.00"> </text>
<text text-anchor="start" x="158.5" y="-251.8" font-family="sans" font-weight="bold" font-size="14.00">↪ input</text>
<text text-anchor="start" x="216.5" y="-251.8" font-family="sans" font-size="10.00"> </text>
<text text-anchor="start" x="154.5" y="-232" font-family="monospace" font-size="10.00">Scripts/TotalAnnualCapacity_PLOT.py</text>
<text text-anchor="start" x="154.5" y="-214" font-family="monospace" font-size="10.00">check_flags/otoole_ResultsFile_genrated.check</text>
<text text-anchor="start" x="347.5" y="-193.8" font-family="sans" font-size="10.00"> </text>
<text text-anchor="start" x="351.5" y="-193.8" font-family="sans" font-weight="bold" font-size="14.00">output →</text>
<text text-anchor="start" x="421.5" y="-193.8" font-family="sans" font-size="10.00"> </text>
<text text-anchor="start" x="154.5" y="-174" font-family="monospace" font-size="10.00">check_flags/Plots_generated.check</text>
<polygon fill="#68d957" stroke="#68d957" points="148.5,-266 148.5,-266 432.5,-266 432.5,-266 148.5,-266"/>
<polygon fill="#68d957" stroke="#68d957" points="148.5,-208 148.5,-208 432.5,-208 432.5,-208 148.5,-208"/>
<polygon fill="none" stroke="#68d957" stroke-width="2" points="148,-165 148,-295 431,-295 431,-165 148,-165"/>
</g>
<!-- 1&#45;&gt;0 -->
<g id="edge2" class="edge">
<title>1&#45;&gt;0</title>
<path fill="none" stroke="grey" stroke-width="2" d="M289.5,-163.71C289.5,-155.39 289.5,-146.83 289.5,-138.4"/>
<polygon fill="grey" stroke="grey" stroke-width="2" points="293,-138.19 289.5,-128.19 286,-138.19 293,-138.19"/>
</g>
<!-- 2 -->
<g id="node3" class="node">
<title>2</title>
<text text-anchor="start" x="47.5" y="-461.6" font-family="sans" font-weight="bold" font-size="18.00">Output_Data_Interfacing_otoole</text>
<text text-anchor="start" x="47.5" y="-437.8" font-family="sans" font-size="10.00"> </text>
<text text-anchor="start" x="51.5" y="-437.8" font-family="sans" font-weight="bold" font-size="14.00">↪ input</text>
<text text-anchor="start" x="109.5" y="-437.8" font-family="sans" font-size="10.00"> </text>
<text text-anchor="start" x="47.5" y="-418" font-family="monospace" font-size="10.00">check_flags/Solution_found.check</text>
<text text-anchor="start" x="47.5" y="-400" font-family="monospace" font-size="10.00">docs/CBC_solution.sol</text>
<text text-anchor="start" x="286.5" y="-379.8" font-family="sans" font-size="10.00"> </text>
<text text-anchor="start" x="290.5" y="-379.8" font-family="sans" font-weight="bold" font-size="14.00">output →</text>
<text text-anchor="start" x="360.5" y="-379.8" font-family="sans" font-size="10.00"> </text>
<text text-anchor="start" x="47.5" y="-360" font-family="monospace" font-size="10.00">check_flags/otoole_ResultsFile_genrated.check</text>
<text text-anchor="start" x="47.5" y="-342" font-family="monospace" font-size="10.00">results</text>
<polygon fill="#57bfd9" stroke="#57bfd9" points="41.5,-452 41.5,-452 371.5,-452 371.5,-452 41.5,-452"/>
<polygon fill="#57bfd9" stroke="#57bfd9" points="41.5,-394 41.5,-394 371.5,-394 371.5,-394 41.5,-394"/>
<polygon fill="none" stroke="#57bfd9" stroke-width="2" points="41,-333 41,-481 370,-481 370,-333 41,-333"/>
</g>
<!-- 2&#45;&gt;0 -->
<g id="edge3" class="edge">
<title>2&#45;&gt;0</title>
<path fill="none" stroke="grey" stroke-width="2" d="M152.29,-331.94C146.22,-320.38 140.97,-308.2 137.5,-296 121.47,-239.57 109.54,-215.58 137.5,-164 143.19,-153.51 150.52,-143.96 158.89,-135.29"/>
<polygon fill="grey" stroke="grey" stroke-width="2" points="161.43,-137.71 166.15,-128.22 156.54,-132.69 161.43,-137.71"/>
</g>
<!-- 2&#45;&gt;1 -->
<g id="edge4" class="edge">
<title>2&#45;&gt;1</title>
<path fill="none" stroke="grey" stroke-width="2" d="M241.12,-331.78C245.34,-323 249.64,-314.04 253.86,-305.26"/>
<polygon fill="grey" stroke="grey" stroke-width="2" points="257.04,-306.72 258.21,-296.19 250.73,-303.69 257.04,-306.72"/>
</g>
<!-- 3 -->
<g id="node4" class="node">
<title>3</title>
<text text-anchor="start" x="144" y="-665.6" font-family="sans" font-weight="bold" font-size="18.00">RUN_MODEL</text>
<text text-anchor="start" x="109.5" y="-641.8" font-family="sans" font-size="10.00"> </text>
<text text-anchor="start" x="113.5" y="-641.8" font-family="sans" font-weight="bold" font-size="14.00">↪ input</text>
<text text-anchor="start" x="171.5" y="-641.8" font-family="sans" font-size="10.00"> </text>
<text text-anchor="start" x="109.5" y="-622" font-family="monospace" font-size="10.00">processed_data.txt</text>
<text text-anchor="start" x="109.5" y="-604" font-family="monospace" font-size="10.00">processed_model_BCNexus.txt</text>
<text text-anchor="start" x="224.5" y="-583.8" font-family="sans" font-size="10.00"> </text>
<text text-anchor="start" x="228.5" y="-583.8" font-family="sans" font-weight="bold" font-size="14.00">output →</text>
<text text-anchor="start" x="298.5" y="-583.8" font-family="sans" font-size="10.00"> </text>
<text text-anchor="start" x="109.5" y="-564" font-family="monospace" font-size="10.00">LP_file/BCNexus.lp</text>
<text text-anchor="start" x="109.5" y="-546" font-family="monospace" font-size="10.00">check_flags/Solution_found.check</text>
<text text-anchor="start" x="109.5" y="-528" font-family="monospace" font-size="10.00">docs/CBC_solution.sol</text>
<polygon fill="#579cd9" stroke="#579cd9" points="103.5,-656 103.5,-656 309.5,-656 309.5,-656 103.5,-656"/>
<polygon fill="#579cd9" stroke="#579cd9" points="103.5,-598 103.5,-598 309.5,-598 309.5,-598 103.5,-598"/>
<polygon fill="none" stroke="#579cd9" stroke-width="2" points="103,-519 103,-685 308,-685 308,-519 103,-519"/>
</g>
<!-- 3&#45;&gt;2 -->
<g id="edge5" class="edge">
<title>3&#45;&gt;2</title>
<path fill="none" stroke="grey" stroke-width="2" d="M205.5,-517.75C205.5,-509.34 205.5,-500.79 205.5,-492.36"/>
<polygon fill="grey" stroke="grey" stroke-width="2" points="209,-492.16 205.5,-482.16 202,-492.16 209,-492.16"/>
</g>
<!-- 4 -->
<g id="node5" class="node">
<title>4</title>
<text text-anchor="start" x="190.5" y="-869.6" font-family="sans" font-weight="bold" font-size="18.00">Preprocess_data</text>
<text text-anchor="start" x="190.5" y="-845.8" font-family="sans" font-size="10.00"> </text>
<text text-anchor="start" x="194.5" y="-845.8" font-family="sans" font-weight="bold" font-size="14.00">↪ input</text>
<text text-anchor="start" x="252.5" y="-845.8" font-family="sans" font-size="10.00"> </text>
<text text-anchor="start" x="190.5" y="-826" font-family="monospace" font-size="10.00">Scripts/preprocess_data.py</text>
<text text-anchor="start" x="190.5" y="-808" font-family="monospace" font-size="10.00">data.txt</text>
<text text-anchor="start" x="190.5" y="-790" font-family="monospace" font-size="10.00">model/model_BCNexus.txt</text>
<text text-anchor="start" x="278.5" y="-769.8" font-family="sans" font-size="10.00"> </text>
<text text-anchor="start" x="282.5" y="-769.8" font-family="sans" font-weight="bold" font-size="14.00">output →</text>
<text text-anchor="start" x="352.5" y="-769.8" font-family="sans" font-size="10.00"> </text>
<text text-anchor="start" x="190.5" y="-750" font-family="monospace" font-size="10.00">processed_data.txt</text>
<text text-anchor="start" x="190.5" y="-732" font-family="monospace" font-size="10.00">processed_model_BCNexus.txt</text>
<polygon fill="#57d9ad" stroke="#57d9ad" points="184.5,-860 184.5,-860 363.5,-860 363.5,-860 184.5,-860"/>
<polygon fill="#57d9ad" stroke="#57d9ad" points="184.5,-784 184.5,-784 363.5,-784 363.5,-784 184.5,-784"/>
<polygon fill="none" stroke="#57d9ad" stroke-width="2" points="184.5,-723 184.5,-889 362.5,-889 362.5,-723 184.5,-723"/>
</g>
<!-- 4&#45;&gt;3 -->
<g id="edge6" class="edge">
<title>4&#45;&gt;3</title>
<path fill="none" stroke="grey" stroke-width="2" d="M245.55,-721.96C242.62,-713.25 239.62,-704.36 236.66,-695.55"/>
<polygon fill="grey" stroke="grey" stroke-width="2" points="239.96,-694.4 233.45,-686.04 233.33,-696.63 239.96,-694.4"/>
</g>
<!-- 5 -->
<g id="node6" class="node">
<title>5</title>
<text text-anchor="start" x="182.5" y="-1037.6" font-family="sans" font-weight="bold" font-size="18.00">Input_Data_Interfacing_otoole</text>
<text text-anchor="start" x="182.5" y="-1013.8" font-family="sans" font-size="10.00"> </text>
<text text-anchor="start" x="186.5" y="-1013.8" font-family="sans" font-weight="bold" font-size="14.00">↪ input</text>
<text text-anchor="start" x="244.5" y="-1013.8" font-family="sans" font-size="10.00"> </text>
<text text-anchor="start" x="182.5" y="-994" font-family="monospace" font-size="10.00">data</text>
<text text-anchor="start" x="405.5" y="-973.8" font-family="sans" font-size="10.00"> </text>
<text text-anchor="start" x="409.5" y="-973.8" font-family="sans" font-weight="bold" font-size="14.00">output →</text>
<text text-anchor="start" x="479.5" y="-973.8" font-family="sans" font-size="10.00"> </text>
<text text-anchor="start" x="182.5" y="-954" font-family="monospace" font-size="10.00">check_flags/otoole_datafile_prepared.check</text>
<text text-anchor="start" x="182.5" y="-936" font-family="monospace" font-size="10.00">data.txt</text>
<polygon fill="#d99c57" stroke="#d99c57" points="176.5,-1028 176.5,-1028 490.5,-1028 490.5,-1028 176.5,-1028"/>
<polygon fill="#d99c57" stroke="#d99c57" points="176.5,-988 176.5,-988 490.5,-988 490.5,-988 176.5,-988"/>
<polygon fill="none" stroke="#d99c57" stroke-width="2" points="176,-927 176,-1057 489,-1057 489,-927 176,-927"/>
</g>
<!-- 5&#45;&gt;4 -->
<g id="edge7" class="edge">
<title>5&#45;&gt;4</title>
<path fill="none" stroke="grey" stroke-width="2" d="M311.62,-925.87C308.89,-917.37 306.06,-908.53 303.22,-899.68"/>
<polygon fill="grey" stroke="grey" stroke-width="2" points="306.53,-898.55 300.14,-890.09 299.86,-900.68 306.53,-898.55"/>
</g>
<!-- 11 -->
<g id="node12" class="node">
<title>11</title>
<text text-anchor="start" x="410" y="-647.6" font-family="sans" font-weight="bold" font-size="18.00">make_RES</text>
<text text-anchor="start" x="334.5" y="-623.8" font-family="sans" font-size="10.00"> </text>
<text text-anchor="start" x="338.5" y="-623.8" font-family="sans" font-weight="bold" font-size="14.00">↪ input</text>
<text text-anchor="start" x="396.5" y="-623.8" font-family="sans" font-size="10.00"> </text>
<text text-anchor="start" x="334.5" y="-604" font-family="monospace" font-size="10.00">check_flags/otoole_datafile_prepared.check</text>
<text text-anchor="start" x="334.5" y="-586" font-family="monospace" font-size="10.00">data.txt</text>
<text text-anchor="start" x="509.5" y="-565.8" font-family="sans" font-size="10.00"> </text>
<text text-anchor="start" x="513.5" y="-565.8" font-family="sans" font-weight="bold" font-size="14.00">output →</text>
<text text-anchor="start" x="583.5" y="-565.8" font-family="sans" font-size="10.00"> </text>
<text text-anchor="start" x="334.5" y="-546" font-family="monospace" font-size="10.00">docs/BCNexus_RES.png</text>
<polygon fill="#d95757" stroke="#d95757" points="328.5,-638 328.5,-638 594.5,-638 594.5,-638 328.5,-638"/>
<polygon fill="#d95757" stroke="#d95757" points="328.5,-580 328.5,-580 594.5,-580 594.5,-580 328.5,-580"/>
<polygon fill="none" stroke="#d95757" stroke-width="2" points="328,-537 328,-667 593,-667 593,-537 328,-537"/>
</g>
<!-- 5&#45;&gt;11 -->
<g id="edge14" class="edge">
<title>5&#45;&gt;11</title>
<path fill="none" stroke="grey" stroke-width="2" d="M359.19,-925.82C363.8,-913.96 368.41,-901.66 372.5,-890 397.49,-818.75 422.37,-736.24 439.27,-678.02"/>
<polygon fill="grey" stroke="grey" stroke-width="2" points="442.71,-678.74 442.12,-668.17 435.98,-676.8 442.71,-678.74"/>
</g>
<!-- 6 -->
<g id="node7" class="node">
<title>6</title>
<text text-anchor="start" x="233.5" y="-1223.6" font-family="sans" font-weight="bold" font-size="18.00">Scenario_Data_Files</text>
<text text-anchor="start" x="218.5" y="-1199.8" font-family="sans" font-size="10.00"> </text>
<text text-anchor="start" x="222.5" y="-1199.8" font-family="sans" font-weight="bold" font-size="14.00">↪ input</text>
<text text-anchor="start" x="280.5" y="-1199.8" font-family="sans" font-size="10.00"> </text>
<text text-anchor="start" x="218.5" y="-1180" font-family="monospace" font-size="10.00">Scripts/organize_files.py</text>
<text text-anchor="start" x="218.5" y="-1162" font-family="monospace" font-size="10.00">check_flags/Data_Updated.check</text>
<text text-anchor="start" x="218.5" y="-1144" font-family="monospace" font-size="10.00">check_flags/Model_shell_complete.check</text>
<text text-anchor="start" x="369.5" y="-1123.8" font-family="sans" font-size="10.00"> </text>
<text text-anchor="start" x="373.5" y="-1123.8" font-family="sans" font-weight="bold" font-size="14.00">output →</text>
<text text-anchor="start" x="443.5" y="-1123.8" font-family="sans" font-size="10.00"> </text>
<text text-anchor="start" x="218.5" y="-1104" font-family="monospace" font-size="10.00">data</text>
<polygon fill="#57d9d0" stroke="#57d9d0" points="212.5,-1214 212.5,-1214 454.5,-1214 454.5,-1214 212.5,-1214"/>
<polygon fill="#57d9d0" stroke="#57d9d0" points="212.5,-1138 212.5,-1138 454.5,-1138 454.5,-1138 212.5,-1138"/>
<polygon fill="none" stroke="#57d9d0" stroke-width="2" points="212,-1095 212,-1243 453,-1243 453,-1095 212,-1095"/>
</g>
<!-- 6&#45;&gt;5 -->
<g id="edge8" class="edge">
<title>6&#45;&gt;5</title>
<path fill="none" stroke="grey" stroke-width="2" d="M332.5,-1093.78C332.5,-1085.37 332.5,-1076.79 332.5,-1068.37"/>
<polygon fill="grey" stroke="grey" stroke-width="2" points="336,-1068.19 332.5,-1058.19 329,-1068.19 336,-1068.19"/>
</g>
<!-- 7 -->
<g id="node8" class="node">
<title>7</title>
<text text-anchor="start" x="98" y="-1427.6" font-family="sans" font-weight="bold" font-size="18.00">Model_Shell</text>
<text text-anchor="start" x="7.5" y="-1403.8" font-family="sans" font-size="10.00"> </text>
<text text-anchor="start" x="11.5" y="-1403.8" font-family="sans" font-weight="bold" font-size="14.00">↪ input</text>
<text text-anchor="start" x="69.5" y="-1403.8" font-family="sans" font-size="10.00"> </text>
<text text-anchor="start" x="7.5" y="-1384" font-family="monospace" font-size="10.00">check_flags/Temporal_configuration_completed.check</text>
<text text-anchor="start" x="7.5" y="-1366" font-family="monospace" font-size="10.00">config_files/20230302_BCNexus_CLEWsy.yaml</text>
<text text-anchor="start" x="7.5" y="-1348" font-family="monospace" font-size="10.00">user_inputs</text>
<text text-anchor="start" x="230.5" y="-1327.8" font-family="sans" font-size="10.00"> </text>
<text text-anchor="start" x="234.5" y="-1327.8" font-family="sans" font-weight="bold" font-size="14.00">output →</text>
<text text-anchor="start" x="304.5" y="-1327.8" font-family="sans" font-size="10.00"> </text>
<text text-anchor="start" x="7.5" y="-1308" font-family="monospace" font-size="10.00">check_flags/Model_shell_complete.check</text>
<text text-anchor="start" x="7.5" y="-1290" font-family="monospace" font-size="10.00">user_inputs/Sets/CLEWsy_outputs</text>
<polygon fill="#add957" stroke="#add957" points="1.5,-1418 1.5,-1418 315.5,-1418 315.5,-1418 1.5,-1418"/>
<polygon fill="#add957" stroke="#add957" points="1.5,-1342 1.5,-1342 315.5,-1342 315.5,-1342 1.5,-1342"/>
<polygon fill="none" stroke="#add957" stroke-width="2" points="1,-1281 1,-1447 314,-1447 314,-1281 1,-1281"/>
</g>
<!-- 7&#45;&gt;6 -->
<g id="edge9" class="edge">
<title>7&#45;&gt;6</title>
<path fill="none" stroke="grey" stroke-width="2" d="M232.99,-1279.75C241.45,-1270.41 250.07,-1260.91 258.52,-1251.59"/>
<polygon fill="grey" stroke="grey" stroke-width="2" points="261.13,-1253.92 265.25,-1244.16 255.94,-1249.22 261.13,-1253.92"/>
</g>
<!-- 8 -->
<g id="node9" class="node">
<title>8</title>
<text text-anchor="start" x="194" y="-1705.6" font-family="sans" font-weight="bold" font-size="18.00">Temporal_Resolution_config</text>
<text text-anchor="start" x="182.5" y="-1684" font-family="sans" font-size="10.00"> &#160;</text>
<text text-anchor="start" x="405.5" y="-1663.8" font-family="sans" font-size="10.00"> </text>
<text text-anchor="start" x="409.5" y="-1663.8" font-family="sans" font-weight="bold" font-size="14.00">output →</text>
<text text-anchor="start" x="479.5" y="-1663.8" font-family="sans" font-size="10.00"> </text>
<text text-anchor="start" x="182.5" y="-1644" font-family="monospace" font-size="10.00">check_flags/Temporal_configuration_completed.check</text>
<polygon fill="#57d98b" stroke="#57d98b" points="176.5,-1696 176.5,-1696 490.5,-1696 490.5,-1696 176.5,-1696"/>
<polygon fill="#57d98b" stroke="#57d98b" points="176.5,-1678 176.5,-1678 490.5,-1678 490.5,-1678 176.5,-1678"/>
<polygon fill="none" stroke="#57d98b" stroke-width="2" points="176,-1635 176,-1725 489,-1725 489,-1635 176,-1635"/>
</g>
<!-- 8&#45;&gt;7 -->
<g id="edge11" class="edge">
<title>8&#45;&gt;7</title>
<path fill="none" stroke="grey" stroke-width="2" d="M306.62,-1633.64C300.04,-1622.03 292.99,-1609.57 286.5,-1598 260.53,-1551.69 231.9,-1500.04 208.23,-1457.17"/>
<polygon fill="grey" stroke="grey" stroke-width="2" points="211.15,-1455.22 203.25,-1448.16 205.02,-1458.6 211.15,-1455.22"/>
</g>
<!-- 10 -->
<g id="node11" class="node">
<title>10</title>
<text text-anchor="start" x="395.5" y="-1577.6" font-family="sans" font-weight="bold" font-size="18.00">Scenario_setup</text>
<text text-anchor="start" x="303.5" y="-1553.8" font-family="sans" font-size="10.00"> </text>
<text text-anchor="start" x="307.5" y="-1553.8" font-family="sans" font-weight="bold" font-size="14.00">↪ input</text>
<text text-anchor="start" x="365.5" y="-1553.8" font-family="sans" font-size="10.00"> </text>
<text text-anchor="start" x="303.5" y="-1534" font-family="monospace" font-size="10.00">check_flags/Temporal_configuration_completed.check</text>
<text text-anchor="start" x="562.5" y="-1513.8" font-family="sans" font-size="10.00"> </text>
<text text-anchor="start" x="566.5" y="-1513.8" font-family="sans" font-weight="bold" font-size="14.00">output →</text>
<text text-anchor="start" x="636.5" y="-1513.8" font-family="sans" font-size="10.00"> </text>
<text text-anchor="start" x="303.5" y="-1494" font-family="monospace" font-size="10.00">check_flags/Scenario_Setup_configuration_completed.check</text>
<polygon fill="#d0d957" stroke="#d0d957" points="297.5,-1568 297.5,-1568 647.5,-1568 647.5,-1568 297.5,-1568"/>
<polygon fill="#d0d957" stroke="#d0d957" points="297.5,-1528 297.5,-1528 647.5,-1528 647.5,-1528 297.5,-1528"/>
<polygon fill="none" stroke="#d0d957" stroke-width="2" points="297,-1485 297,-1597 646,-1597 646,-1485 297,-1485"/>
</g>
<!-- 8&#45;&gt;10 -->
<g id="edge13" class="edge">
<title>8&#45;&gt;10</title>
<path fill="none" stroke="grey" stroke-width="2" d="M378.4,-1633.76C387.6,-1624.69 397.43,-1615.01 407.12,-1605.46"/>
<polygon fill="grey" stroke="grey" stroke-width="2" points="409.83,-1607.7 414.49,-1598.19 404.91,-1602.71 409.83,-1607.7"/>
</g>
<!-- 9 -->
<g id="node10" class="node">
<title>9</title>
<text text-anchor="start" x="440.5" y="-1400.6" font-family="sans" font-weight="bold" font-size="18.00">Data_pipeline</text>
<text text-anchor="start" x="340.5" y="-1376.8" font-family="sans" font-size="10.00"> </text>
<text text-anchor="start" x="344.5" y="-1376.8" font-family="sans" font-weight="bold" font-size="14.00">↪ input</text>
<text text-anchor="start" x="402.5" y="-1376.8" font-family="sans" font-size="10.00"> </text>
<text text-anchor="start" x="340.5" y="-1357" font-family="monospace" font-size="10.00">check_flags/Scenario_Setup_configuration_completed.check</text>
<text text-anchor="start" x="599.5" y="-1336.8" font-family="sans" font-size="10.00"> </text>
<text text-anchor="start" x="603.5" y="-1336.8" font-family="sans" font-weight="bold" font-size="14.00">output →</text>
<text text-anchor="start" x="673.5" y="-1336.8" font-family="sans" font-size="10.00"> </text>
<text text-anchor="start" x="340.5" y="-1317" font-family="monospace" font-size="10.00">check_flags/Data_Updated.check</text>
<polygon fill="#8bd957" stroke="#8bd957" points="334.5,-1391 334.5,-1391 684.5,-1391 684.5,-1391 334.5,-1391"/>
<polygon fill="#8bd957" stroke="#8bd957" points="334.5,-1351 334.5,-1351 684.5,-1351 684.5,-1351 334.5,-1351"/>
<polygon fill="none" stroke="#8bd957" stroke-width="2" points="334,-1308 334,-1420 683,-1420 683,-1308 334,-1308"/>
</g>
<!-- 9&#45;&gt;6 -->
<g id="edge10" class="edge">
<title>9&#45;&gt;6</title>
<path fill="none" stroke="grey" stroke-width="2" d="M457.36,-1306.92C441.73,-1289.78 424.2,-1270.56 407.34,-1252.07"/>
<polygon fill="grey" stroke="grey" stroke-width="2" points="409.49,-1249.23 400.16,-1244.2 404.31,-1253.94 409.49,-1249.23"/>
</g>
<!-- 10&#45;&gt;9 -->
<g id="edge12" class="edge">
<title>10&#45;&gt;9</title>
<path fill="none" stroke="grey" stroke-width="2" d="M483.41,-1483.67C486.94,-1466.96 490.84,-1448.51 494.49,-1431.24"/>
<polygon fill="grey" stroke="grey" stroke-width="2" points="497.97,-1431.74 496.61,-1421.23 491.12,-1430.29 497.97,-1431.74"/>
</g>
<!-- 11&#45;&gt;0 -->
<g id="edge1" class="edge">
<title>11&#45;&gt;0</title>
<path fill="none" stroke="grey" stroke-width="2" d="M474.84,-535.97C491.06,-445.91 507.26,-281.11 440.5,-164 434.5,-153.47 426.86,-143.86 418.22,-135.13"/>
<polygon fill="grey" stroke="grey" stroke-width="2" points="420.4,-132.38 410.75,-128.01 415.57,-137.44 420.4,-132.38"/>
</g>
</g>
</svg>
