<?xml version="1.0" encoding="UTF-8" standalone="no"?>
<!DOCTYPE svg PUBLIC "-//W3C//DTD SVG 1.1//EN"
 "http://www.w3.org/Graphics/SVG/1.1/DTD/svg11.dtd">
<!-- Generated by graphviz version 2.43.0 (0)
 -->
<!-- Title: snakemake_dag Pages: 1 -->
<svg width="785pt" height="676pt"
 viewBox="0.00 0.00 785.00 676.00" xmlns="http://www.w3.org/2000/svg" xmlns:xlink="http://www.w3.org/1999/xlink">
<g id="graph0" class="graph" transform="scale(1 1) rotate(0) translate(4 672)">
<title>snakemake_dag</title>
<polygon fill="white" stroke="transparent" points="-4,4 -4,-672 781,-672 781,4 -4,4"/>
<!-- 0 -->
<g id="node1" class="node">
<title>0</title>
<text text-anchor="start" x="472" y="-107.6" font-family="sans" font-weight="bold" font-size="18.00">Results</text>
<text text-anchor="start" x="346.5" y="-83.8" font-family="sans" font-size="10.00"> </text>
<text text-anchor="start" x="350.5" y="-83.8" font-family="sans" font-weight="bold" font-size="14.00">↪ input</text>
<text text-anchor="start" x="408.5" y="-83.8" font-family="sans" font-size="10.00"> </text>
<text text-anchor="start" x="346.5" y="-64" font-family="monospace" font-size="10.00">RES/BCNexus_RES.png</text>
<text text-anchor="start" x="346.5" y="-46" font-family="monospace" font-size="10.00">workflow/check_flags/dashboard_deployed.check</text>
<text text-anchor="start" x="346.5" y="-28" font-family="monospace" font-size="10.00">workflow/check_flags/otoole_ResultsFile_genrated.check</text>
<text text-anchor="start" x="664.5" y="-10" font-family="sans" font-size="10.00"> &#160;</text>
<polygon fill="#d98657" stroke="#d98657" points="340.5,-98 340.5,-98 678.5,-98 678.5,-98 340.5,-98"/>
<polygon fill="#d98657" stroke="#d98657" points="340.5,-22 340.5,-22 678.5,-22 678.5,-22 340.5,-22"/>
<polygon fill="none" stroke="#d98657" stroke-width="2" points="340,-1 340,-127 677,-127 677,-1 340,-1"/>
</g>
<!-- 1 -->
<g id="node2" class="node">
<title>1</title>
<text text-anchor="start" x="449.5" y="-461.6" font-family="sans" font-weight="bold" font-size="18.00">Output_Data_Interfacing_otoole</text>
<text text-anchor="start" x="445.5" y="-437.8" font-family="sans" font-size="10.00"> </text>
<text text-anchor="start" x="449.5" y="-437.8" font-family="sans" font-weight="bold" font-size="14.00">↪ input</text>
<text text-anchor="start" x="507.5" y="-437.8" font-family="sans" font-size="10.00"> </text>
<text text-anchor="start" x="445.5" y="-418" font-family="monospace" font-size="10.00">workflow/docs/CBC_solution.sol</text>
<text text-anchor="start" x="692.5" y="-397.8" font-family="sans" font-size="10.00"> </text>
<text text-anchor="start" x="696.5" y="-397.8" font-family="sans" font-weight="bold" font-size="14.00">output →</text>
<text text-anchor="start" x="766.5" y="-397.8" font-family="sans" font-size="10.00"> </text>
<text text-anchor="start" x="445.5" y="-378" font-family="monospace" font-size="10.00">results</text>
<text text-anchor="start" x="445.5" y="-360" font-family="monospace" font-size="10.00">workflow/check_flags/otoole_ResultsFile_genrated.check</text>
<polygon fill="#9ed957" stroke="#9ed957" points="439.5,-452 439.5,-452 777.5,-452 777.5,-452 439.5,-452"/>
<polygon fill="#9ed957" stroke="#9ed957" points="439.5,-412 439.5,-412 777.5,-412 777.5,-412 439.5,-412"/>
<polygon fill="none" stroke="#9ed957" stroke-width="2" points="439,-351 439,-481 776,-481 776,-351 439,-351"/>
</g>
<!-- 1&#45;&gt;0 -->
<g id="edge2" class="edge">
<title>1&#45;&gt;0</title>
<path fill="none" stroke="grey" stroke-width="2" d="M669,-349.76C676.57,-338.55 683.16,-326.46 687.5,-314 709.41,-251.04 721.36,-221.43 687.5,-164 681.17,-153.26 673.2,-143.6 664.17,-134.93"/>
<polygon fill="grey" stroke="grey" stroke-width="2" points="666.48,-132.3 656.72,-128.19 661.79,-137.49 666.48,-132.3"/>
</g>
<!-- 3 -->
<g id="node4" class="node">
<title>3</title>
<text text-anchor="start" x="417" y="-293.6" font-family="sans" font-weight="bold" font-size="18.00">deploy_dashboard</text>
<text text-anchor="start" x="346.5" y="-269.8" font-family="sans" font-size="10.00"> </text>
<text text-anchor="start" x="350.5" y="-269.8" font-family="sans" font-weight="bold" font-size="14.00">↪ input</text>
<text text-anchor="start" x="408.5" y="-269.8" font-family="sans" font-size="10.00"> </text>
<text text-anchor="start" x="346.5" y="-250" font-family="monospace" font-size="10.00">results</text>
<text text-anchor="start" x="346.5" y="-232" font-family="monospace" font-size="10.00">workflow/check_flags/otoole_ResultsFile_genrated.check</text>
<text text-anchor="start" x="346.5" y="-214" font-family="monospace" font-size="10.00">workflow/data.txt</text>
<text text-anchor="start" x="593.5" y="-193.8" font-family="sans" font-size="10.00"> </text>
<text text-anchor="start" x="597.5" y="-193.8" font-family="sans" font-weight="bold" font-size="14.00">output →</text>
<text text-anchor="start" x="667.5" y="-193.8" font-family="sans" font-size="10.00"> </text>
<text text-anchor="start" x="346.5" y="-174" font-family="monospace" font-size="10.00">workflow/check_flags/dashboard_deployed.check</text>
<polygon fill="#5786d9" stroke="#5786d9" points="340.5,-284 340.5,-284 678.5,-284 678.5,-284 340.5,-284"/>
<polygon fill="#5786d9" stroke="#5786d9" points="340.5,-208 340.5,-208 678.5,-208 678.5,-208 340.5,-208"/>
<polygon fill="none" stroke="#5786d9" stroke-width="2" points="340,-165 340,-313 677,-313 677,-165 340,-165"/>
</g>
<!-- 1&#45;&gt;3 -->
<g id="edge6" class="edge">
<title>1&#45;&gt;3</title>
<path fill="none" stroke="grey" stroke-width="2" d="M570.64,-349.84C565.69,-341.09 560.56,-332.03 555.47,-323.02"/>
<polygon fill="grey" stroke="grey" stroke-width="2" points="558.37,-321.04 550.4,-314.06 552.27,-324.48 558.37,-321.04"/>
</g>
<!-- 2 -->
<g id="node3" class="node">
<title>2</title>
<text text-anchor="start" x="546" y="-647.6" font-family="sans" font-weight="bold" font-size="18.00">RUN_MODEL</text>
<text text-anchor="start" x="499.5" y="-623.8" font-family="sans" font-size="10.00"> </text>
<text text-anchor="start" x="503.5" y="-623.8" font-family="sans" font-weight="bold" font-size="14.00">↪ input</text>
<text text-anchor="start" x="561.5" y="-623.8" font-family="sans" font-size="10.00"> </text>
<text text-anchor="start" x="499.5" y="-604" font-family="monospace" font-size="10.00">workflow/processed_data.txt</text>
<text text-anchor="start" x="499.5" y="-586" font-family="monospace" font-size="10.00">workflow/processed_model_BCNexus.txt</text>
<text text-anchor="start" x="638.5" y="-565.8" font-family="sans" font-size="10.00"> </text>
<text text-anchor="start" x="642.5" y="-565.8" font-family="sans" font-weight="bold" font-size="14.00">output →</text>
<text text-anchor="start" x="712.5" y="-565.8" font-family="sans" font-size="10.00"> </text>
<text text-anchor="start" x="499.5" y="-546" font-family="monospace" font-size="10.00">workflow/LP_file/BCNexus.lp</text>
<text text-anchor="start" x="499.5" y="-528" font-family="monospace" font-size="10.00">workflow/docs/CBC_solution.sol</text>
<polygon fill="#57d99e" stroke="#57d99e" points="493.5,-638 493.5,-638 723.5,-638 723.5,-638 493.5,-638"/>
<polygon fill="#57d99e" stroke="#57d99e" points="493.5,-580 493.5,-580 723.5,-580 723.5,-580 493.5,-580"/>
<polygon fill="none" stroke="#57d99e" stroke-width="2" points="493,-519 493,-667 722,-667 722,-519 493,-519"/>
</g>
<!-- 2&#45;&gt;1 -->
<g id="edge4" class="edge">
<title>2&#45;&gt;1</title>
<path fill="none" stroke="grey" stroke-width="2" d="M607.5,-517.78C607.5,-509.37 607.5,-500.79 607.5,-492.37"/>
<polygon fill="grey" stroke="grey" stroke-width="2" points="611,-492.19 607.5,-482.19 604,-492.19 611,-492.19"/>
</g>
<!-- 3&#45;&gt;0 -->
<g id="edge3" class="edge">
<title>3&#45;&gt;0</title>
<path fill="none" stroke="grey" stroke-width="2" d="M508.5,-163.88C508.5,-155.4 508.5,-146.77 508.5,-138.3"/>
<polygon fill="grey" stroke="grey" stroke-width="2" points="512,-138.08 508.5,-128.08 505,-138.08 512,-138.08"/>
</g>
<!-- 4 -->
<g id="node5" class="node">
<title>4</title>
<text text-anchor="start" x="109.5" y="-461.6" font-family="sans" font-weight="bold" font-size="18.00">Input_Data_Interfacing_otoole</text>
<text text-anchor="start" x="106.5" y="-437.8" font-family="sans" font-size="10.00"> </text>
<text text-anchor="start" x="110.5" y="-437.8" font-family="sans" font-weight="bold" font-size="14.00">↪ input</text>
<text text-anchor="start" x="168.5" y="-437.8" font-family="sans" font-size="10.00"> </text>
<text text-anchor="start" x="106.5" y="-418" font-family="monospace" font-size="10.00">data</text>
<text text-anchor="start" x="335.5" y="-397.8" font-family="sans" font-size="10.00"> </text>
<text text-anchor="start" x="339.5" y="-397.8" font-family="sans" font-weight="bold" font-size="14.00">output →</text>
<text text-anchor="start" x="409.5" y="-397.8" font-family="sans" font-size="10.00"> </text>
<text text-anchor="start" x="106.5" y="-378" font-family="monospace" font-size="10.00">workflow/check_flags/otoole_datafile_prepared.check</text>
<text text-anchor="start" x="106.5" y="-360" font-family="monospace" font-size="10.00">workflow/data.txt</text>
<polygon fill="#d9b557" stroke="#d9b557" points="100.5,-452 100.5,-452 420.5,-452 420.5,-452 100.5,-452"/>
<polygon fill="#d9b557" stroke="#d9b557" points="100.5,-412 100.5,-412 420.5,-412 420.5,-412 100.5,-412"/>
<polygon fill="none" stroke="#d9b557" stroke-width="2" points="100,-351 100,-481 419,-481 419,-351 100,-351"/>
</g>
<!-- 4&#45;&gt;3 -->
<g id="edge5" class="edge">
<title>4&#45;&gt;3</title>
<path fill="none" stroke="grey" stroke-width="2" d="M352.22,-349.84C366.09,-340.09 380.52,-329.94 394.77,-319.93"/>
<polygon fill="grey" stroke="grey" stroke-width="2" points="396.96,-322.67 403.13,-314.06 392.93,-316.94 396.96,-322.67"/>
</g>
<!-- 5 -->
<g id="node6" class="node">
<title>5</title>
<text text-anchor="start" x="110" y="-284.6" font-family="sans" font-weight="bold" font-size="18.00">make_RES</text>
<text text-anchor="start" x="7.5" y="-260.8" font-family="sans" font-size="10.00"> </text>
<text text-anchor="start" x="11.5" y="-260.8" font-family="sans" font-weight="bold" font-size="14.00">↪ input</text>
<text text-anchor="start" x="69.5" y="-260.8" font-family="sans" font-size="10.00"> </text>
<text text-anchor="start" x="7.5" y="-241" font-family="monospace" font-size="10.00">workflow/check_flags/otoole_datafile_prepared.check</text>
<text text-anchor="start" x="7.5" y="-223" font-family="monospace" font-size="10.00">workflow/data.txt</text>
<text text-anchor="start" x="236.5" y="-202.8" font-family="sans" font-size="10.00"> </text>
<text text-anchor="start" x="240.5" y="-202.8" font-family="sans" font-weight="bold" font-size="14.00">output →</text>
<text text-anchor="start" x="310.5" y="-202.8" font-family="sans" font-size="10.00"> </text>
<text text-anchor="start" x="7.5" y="-183" font-family="monospace" font-size="10.00">RES/BCNexus_RES.png</text>
<polygon fill="#57d96e" stroke="#57d96e" points="1.5,-275 1.5,-275 321.5,-275 321.5,-275 1.5,-275"/>
<polygon fill="#57d96e" stroke="#57d96e" points="1.5,-217 1.5,-217 321.5,-217 321.5,-217 1.5,-217"/>
<polygon fill="none" stroke="#57d96e" stroke-width="2" points="1,-174 1,-304 320,-304 320,-174 1,-174"/>
</g>
<!-- 4&#45;&gt;5 -->
<g id="edge7" class="edge">
<title>4&#45;&gt;5</title>
<path fill="none" stroke="grey" stroke-width="2" d="M222.64,-349.84C216.06,-338.22 209.18,-326.04 202.47,-314.2"/>
<polygon fill="grey" stroke="grey" stroke-width="2" points="205.36,-312.2 197.39,-305.22 199.27,-315.65 205.36,-312.2"/>
</g>
<!-- 5&#45;&gt;0 -->
<g id="edge1" class="edge">
<title>5&#45;&gt;0</title>
<path fill="none" stroke="grey" stroke-width="2" d="M291.57,-172.84C318.05,-159.68 345.95,-145.81 372.6,-132.56"/>
<polygon fill="grey" stroke="grey" stroke-width="2" points="374.19,-135.68 381.58,-128.09 371.07,-129.41 374.19,-135.68"/>
</g>
</g>
</svg>
