<?xml version="1.0" encoding="UTF-8" standalone="no"?>
<!DOCTYPE svg PUBLIC "-//W3C//DTD SVG 1.1//EN"
 "http://www.w3.org/Graphics/SVG/1.1/DTD/svg11.dtd">
<!-- Generated by graphviz version 2.43.0 (0)
 -->
<!-- Title: snakemake_dag Pages: 1 -->
<svg width="312pt" height="548pt"
 viewBox="0.00 0.00 312.00 548.00" xmlns="http://www.w3.org/2000/svg" xmlns:xlink="http://www.w3.org/1999/xlink">
<g id="graph0" class="graph" transform="scale(1 1) rotate(0) translate(4 544)">
<title>snakemake_dag</title>
<polygon fill="white" stroke="transparent" points="-4,4 -4,-544 308,-544 308,4 -4,4"/>
<!-- 0 -->
<g id="node1" class="node">
<title>0</title>
<path fill="none" stroke="#59d856" stroke-width="2" d="M172,-36C172,-36 142,-36 142,-36 136,-36 130,-30 130,-24 130,-24 130,-12 130,-12 130,-6 136,0 142,0 142,0 172,0 172,0 178,0 184,-6 184,-12 184,-12 184,-24 184,-24 184,-30 178,-36 172,-36"/>
<text text-anchor="middle" x="157" y="-15.5" font-family="sans" font-size="10.00">all</text>
</g>
<!-- 1 -->
<g id="node2" class="node">
<title>1</title>
<path fill="none" stroke="#5682d8" stroke-width="2" d="M160,-252C160,-252 12,-252 12,-252 6,-252 0,-246 0,-240 0,-240 0,-228 0,-228 0,-222 6,-216 12,-216 12,-216 160,-216 160,-216 166,-216 172,-222 172,-228 172,-228 172,-240 172,-240 172,-246 166,-252 160,-252"/>
<text text-anchor="middle" x="86" y="-231.5" font-family="sans" font-size="10.00">Output_Data_Interfacing_otoole</text>
</g>
<!-- 1&#45;&gt;0 -->
<g id="edge1" class="edge">
<title>1&#45;&gt;0</title>
<path fill="none" stroke="grey" stroke-width="2" d="M89.29,-215.67C95.27,-185.73 109.15,-122.64 129,-72 132.53,-62.99 137.19,-53.53 141.7,-45.14"/>
<polygon fill="grey" stroke="grey" stroke-width="2" points="144.86,-46.64 146.65,-36.2 138.74,-43.25 144.86,-46.64"/>
</g>
<!-- 7 -->
<g id="node8" class="node">
<title>7</title>
<path fill="none" stroke="#56a9d8" stroke-width="2" d="M228.5,-180C228.5,-180 153.5,-180 153.5,-180 147.5,-180 141.5,-174 141.5,-168 141.5,-168 141.5,-156 141.5,-156 141.5,-150 147.5,-144 153.5,-144 153.5,-144 228.5,-144 228.5,-144 234.5,-144 240.5,-150 240.5,-156 240.5,-156 240.5,-168 240.5,-168 240.5,-174 234.5,-180 228.5,-180"/>
<text text-anchor="middle" x="191" y="-159.5" font-family="sans" font-size="10.00">scenario_Results</text>
</g>
<!-- 1&#45;&gt;7 -->
<g id="edge10" class="edge">
<title>1&#45;&gt;7</title>
<path fill="none" stroke="grey" stroke-width="2" d="M111.69,-215.88C125.29,-206.81 142.17,-195.55 156.86,-185.76"/>
<polygon fill="grey" stroke="grey" stroke-width="2" points="158.84,-188.65 165.22,-180.19 154.95,-182.82 158.84,-188.65"/>
</g>
<!-- 2 -->
<g id="node3" class="node">
<title>2</title>
<path fill="none" stroke="#56d8d8" stroke-width="2" d="M131.5,-324C131.5,-324 76.5,-324 76.5,-324 70.5,-324 64.5,-318 64.5,-312 64.5,-312 64.5,-300 64.5,-300 64.5,-294 70.5,-288 76.5,-288 76.5,-288 131.5,-288 131.5,-288 137.5,-288 143.5,-294 143.5,-300 143.5,-300 143.5,-312 143.5,-312 143.5,-318 137.5,-324 131.5,-324"/>
<text text-anchor="middle" x="104" y="-303.5" font-family="sans" font-size="10.00">RUN_MODEL</text>
</g>
<!-- 2&#45;&gt;1 -->
<g id="edge5" class="edge">
<title>2&#45;&gt;1</title>
<path fill="none" stroke="grey" stroke-width="2" d="M99.55,-287.7C97.55,-279.9 95.13,-270.51 92.9,-261.83"/>
<polygon fill="grey" stroke="grey" stroke-width="2" points="96.28,-260.92 90.4,-252.1 89.5,-262.66 96.28,-260.92"/>
</g>
<!-- 3 -->
<g id="node4" class="node">
<title>3</title>
<path fill="none" stroke="#d6d856" stroke-width="2" d="M150.5,-396C150.5,-396 77.5,-396 77.5,-396 71.5,-396 65.5,-390 65.5,-384 65.5,-384 65.5,-372 65.5,-372 65.5,-366 71.5,-360 77.5,-360 77.5,-360 150.5,-360 150.5,-360 156.5,-360 162.5,-366 162.5,-372 162.5,-372 162.5,-384 162.5,-384 162.5,-390 156.5,-396 150.5,-396"/>
<text text-anchor="middle" x="114" y="-375.5" font-family="sans" font-size="10.00">Preprocess_data</text>
</g>
<!-- 3&#45;&gt;2 -->
<g id="edge6" class="edge">
<title>3&#45;&gt;2</title>
<path fill="none" stroke="grey" stroke-width="2" d="M111.53,-359.7C110.43,-351.98 109.1,-342.71 107.87,-334.11"/>
<polygon fill="grey" stroke="grey" stroke-width="2" points="111.32,-333.51 106.44,-324.1 104.39,-334.5 111.32,-333.51"/>
</g>
<!-- 4 -->
<g id="node5" class="node">
<title>4</title>
<path fill="none" stroke="#afd856" stroke-width="2" d="M270,-468C270,-468 130,-468 130,-468 124,-468 118,-462 118,-456 118,-456 118,-444 118,-444 118,-438 124,-432 130,-432 130,-432 270,-432 270,-432 276,-432 282,-438 282,-444 282,-444 282,-456 282,-456 282,-462 276,-468 270,-468"/>
<text text-anchor="middle" x="200" y="-447.5" font-family="sans" font-size="10.00">Input_Data_Interfacing_otoole</text>
</g>
<!-- 4&#45;&gt;3 -->
<g id="edge7" class="edge">
<title>4&#45;&gt;3</title>
<path fill="none" stroke="grey" stroke-width="2" d="M178.74,-431.7C167.91,-422.88 154.58,-412.03 142.84,-402.47"/>
<polygon fill="grey" stroke="grey" stroke-width="2" points="144.98,-399.7 135.01,-396.1 140.56,-405.13 144.98,-399.7"/>
</g>
<!-- 4&#45;&gt;7 -->
<g id="edge11" class="edge">
<title>4&#45;&gt;7</title>
<path fill="none" stroke="grey" stroke-width="2" d="M199.46,-431.97C197.96,-384.29 193.71,-249.18 191.87,-190.63"/>
<polygon fill="grey" stroke="grey" stroke-width="2" points="195.36,-190.19 191.54,-180.31 188.36,-190.41 195.36,-190.19"/>
</g>
<!-- 8 -->
<g id="node9" class="node">
<title>8</title>
<path fill="none" stroke="#80d856" stroke-width="2" d="M292,-324C292,-324 248,-324 248,-324 242,-324 236,-318 236,-312 236,-312 236,-300 236,-300 236,-294 242,-288 248,-288 248,-288 292,-288 292,-288 298,-288 304,-294 304,-300 304,-300 304,-312 304,-312 304,-318 298,-324 292,-324"/>
<text text-anchor="middle" x="270" y="-303.5" font-family="sans" font-size="10.00">make_RES</text>
</g>
<!-- 4&#45;&gt;8 -->
<g id="edge12" class="edge">
<title>4&#45;&gt;8</title>
<path fill="none" stroke="grey" stroke-width="2" d="M208.44,-431.87C220.53,-407.35 242.87,-362.03 257.06,-333.26"/>
<polygon fill="grey" stroke="grey" stroke-width="2" points="260.24,-334.71 261.53,-324.19 253.97,-331.61 260.24,-334.71"/>
</g>
<!-- 5 -->
<g id="node6" class="node">
<title>5</title>
<path fill="none" stroke="#d8ac56" stroke-width="2" d="M226,-540C226,-540 174,-540 174,-540 168,-540 162,-534 162,-528 162,-528 162,-516 162,-516 162,-510 168,-504 174,-504 174,-504 226,-504 226,-504 232,-504 238,-510 238,-516 238,-516 238,-528 238,-528 238,-534 232,-540 226,-540"/>
<text text-anchor="middle" x="200" y="-519.5" font-family="sans" font-size="10.00">Model_Shell</text>
</g>
<!-- 5&#45;&gt;4 -->
<g id="edge8" class="edge">
<title>5&#45;&gt;4</title>
<path fill="none" stroke="grey" stroke-width="2" d="M200,-503.7C200,-495.98 200,-486.71 200,-478.11"/>
<polygon fill="grey" stroke="grey" stroke-width="2" points="203.5,-478.1 200,-468.1 196.5,-478.1 203.5,-478.1"/>
</g>
<!-- 6 -->
<g id="node7" class="node">
<title>6</title>
<path fill="none" stroke="#d85656" stroke-width="2" d="M239,-108C239,-108 157,-108 157,-108 151,-108 145,-102 145,-96 145,-96 145,-84 145,-84 145,-78 151,-72 157,-72 157,-72 239,-72 239,-72 245,-72 251,-78 251,-84 251,-84 251,-96 251,-96 251,-102 245,-108 239,-108"/>
<text text-anchor="middle" x="198" y="-87.5" font-family="sans" font-size="10.00">deploy_dashboard</text>
</g>
<!-- 6&#45;&gt;0 -->
<g id="edge2" class="edge">
<title>6&#45;&gt;0</title>
<path fill="none" stroke="grey" stroke-width="2" d="M187.87,-71.7C183.15,-63.64 177.44,-53.89 172.22,-44.98"/>
<polygon fill="grey" stroke="grey" stroke-width="2" points="175.09,-42.96 167.02,-36.1 169.05,-46.5 175.09,-42.96"/>
</g>
<!-- 7&#45;&gt;0 -->
<g id="edge4" class="edge">
<title>7&#45;&gt;0</title>
<path fill="none" stroke="grey" stroke-width="2" d="M165.62,-143.95C154.29,-134.79 142.12,-122.4 136,-108 127.46,-87.91 134.16,-63.72 142.18,-45.63"/>
<polygon fill="grey" stroke="grey" stroke-width="2" points="145.5,-46.8 146.69,-36.27 139.2,-43.76 145.5,-46.8"/>
</g>
<!-- 7&#45;&gt;6 -->
<g id="edge9" class="edge">
<title>7&#45;&gt;6</title>
<path fill="none" stroke="grey" stroke-width="2" d="M192.73,-143.7C193.5,-135.98 194.43,-126.71 195.29,-118.11"/>
<polygon fill="grey" stroke="grey" stroke-width="2" points="198.78,-118.4 196.29,-108.1 191.81,-117.71 198.78,-118.4"/>
</g>
<!-- 8&#45;&gt;0 -->
<g id="edge3" class="edge">
<title>8&#45;&gt;0</title>
<path fill="none" stroke="grey" stroke-width="2" d="M274.66,-287.77C284.73,-246.65 304.19,-141.06 260,-72 245.2,-48.88 216.9,-35.35 193.71,-27.75"/>
<polygon fill="grey" stroke="grey" stroke-width="2" points="194.72,-24.4 184.13,-24.85 192.69,-31.1 194.72,-24.4"/>
</g>
</g>
</svg>
