<?xml version="1.0" encoding="UTF-8" standalone="no"?>
<!DOCTYPE svg PUBLIC "-//W3C//DTD SVG 1.1//EN"
 "http://www.w3.org/Graphics/SVG/1.1/DTD/svg11.dtd">
<!-- Generated by graphviz version 2.43.0 (0)
 -->
<!-- Title: snakemake_dag Pages: 1 -->
<svg width="362pt" height="260pt"
 viewBox="0.00 0.00 362.00 260.00" xmlns="http://www.w3.org/2000/svg" xmlns:xlink="http://www.w3.org/1999/xlink">
<g id="graph0" class="graph" transform="scale(1 1) rotate(0) translate(4 256)">
<title>snakemake_dag</title>
<polygon fill="white" stroke="transparent" points="-4,4 -4,-256 358,-256 358,4 -4,4"/>
<!-- 0 -->
<g id="node1" class="node">
<title>0</title>
<path fill="none" stroke="#70d856" stroke-width="2" d="M202,-36C202,-36 172,-36 172,-36 166,-36 160,-30 160,-24 160,-24 160,-12 160,-12 160,-6 166,0 172,0 172,0 202,0 202,0 208,0 214,-6 214,-12 214,-12 214,-24 214,-24 214,-30 208,-36 202,-36"/>
<text text-anchor="middle" x="187" y="-15.5" font-family="sans" font-size="10.00">Results</text>
</g>
<!-- 1 -->
<g id="node2" class="node">
<title>1</title>
<path fill="none" stroke="#56d89a" stroke-width="2" d="M342,-180C342,-180 194,-180 194,-180 188,-180 182,-174 182,-168 182,-168 182,-156 182,-156 182,-150 188,-144 194,-144 194,-144 342,-144 342,-144 348,-144 354,-150 354,-156 354,-156 354,-168 354,-168 354,-174 348,-180 342,-180"/>
<text text-anchor="middle" x="268" y="-159.5" font-family="sans" font-size="10.00">Output_Data_Interfacing_otoole</text>
</g>
<!-- 1&#45;&gt;0 -->
<g id="edge1" class="edge">
<title>1&#45;&gt;0</title>
<path fill="none" stroke="grey" stroke-width="2" d="M267.56,-143.75C266.37,-124.9 262.33,-94.4 249,-72 242.26,-60.67 232.22,-50.57 222.17,-42.31"/>
<polygon fill="grey" stroke="grey" stroke-width="2" points="224.22,-39.46 214.17,-36.08 219.92,-44.99 224.22,-39.46"/>
</g>
<!-- 3 -->
<g id="node4" class="node">
<title>3</title>
<path fill="none" stroke="#9fd856" stroke-width="2" d="M228,-108C228,-108 146,-108 146,-108 140,-108 134,-102 134,-96 134,-96 134,-84 134,-84 134,-78 140,-72 146,-72 146,-72 228,-72 228,-72 234,-72 240,-78 240,-84 240,-84 240,-96 240,-96 240,-102 234,-108 228,-108"/>
<text text-anchor="middle" x="187" y="-87.5" font-family="sans" font-size="10.00">deploy_dashboard</text>
</g>
<!-- 1&#45;&gt;3 -->
<g id="edge6" class="edge">
<title>1&#45;&gt;3</title>
<path fill="none" stroke="grey" stroke-width="2" d="M247.98,-143.7C237.87,-134.97 225.46,-124.24 214.48,-114.75"/>
<polygon fill="grey" stroke="grey" stroke-width="2" points="216.65,-111.99 206.79,-108.1 212.07,-117.29 216.65,-111.99"/>
</g>
<!-- 2 -->
<g id="node3" class="node">
<title>2</title>
<path fill="none" stroke="#56d86b" stroke-width="2" d="M295.5,-252C295.5,-252 240.5,-252 240.5,-252 234.5,-252 228.5,-246 228.5,-240 228.5,-240 228.5,-228 228.5,-228 228.5,-222 234.5,-216 240.5,-216 240.5,-216 295.5,-216 295.5,-216 301.5,-216 307.5,-222 307.5,-228 307.5,-228 307.5,-240 307.5,-240 307.5,-246 301.5,-252 295.5,-252"/>
<text text-anchor="middle" x="268" y="-231.5" font-family="sans" font-size="10.00">RUN_MODEL</text>
</g>
<!-- 2&#45;&gt;1 -->
<g id="edge4" class="edge">
<title>2&#45;&gt;1</title>
<path fill="none" stroke="grey" stroke-width="2" d="M268,-215.7C268,-207.98 268,-198.71 268,-190.11"/>
<polygon fill="grey" stroke="grey" stroke-width="2" points="271.5,-190.1 268,-180.1 264.5,-190.1 271.5,-190.1"/>
</g>
<!-- 3&#45;&gt;0 -->
<g id="edge2" class="edge">
<title>3&#45;&gt;0</title>
<path fill="none" stroke="grey" stroke-width="2" d="M187,-71.7C187,-63.98 187,-54.71 187,-46.11"/>
<polygon fill="grey" stroke="grey" stroke-width="2" points="190.5,-46.1 187,-36.1 183.5,-46.1 190.5,-46.1"/>
</g>
<!-- 4 -->
<g id="node5" class="node">
<title>4</title>
<path fill="none" stroke="#56d8c9" stroke-width="2" d="M152,-180C152,-180 12,-180 12,-180 6,-180 0,-174 0,-168 0,-168 0,-156 0,-156 0,-150 6,-144 12,-144 12,-144 152,-144 152,-144 158,-144 164,-150 164,-156 164,-156 164,-168 164,-168 164,-174 158,-180 152,-180"/>
<text text-anchor="middle" x="82" y="-159.5" font-family="sans" font-size="10.00">Input_Data_Interfacing_otoole</text>
</g>
<!-- 4&#45;&gt;3 -->
<g id="edge5" class="edge">
<title>4&#45;&gt;3</title>
<path fill="none" stroke="grey" stroke-width="2" d="M107.69,-143.88C121.29,-134.81 138.17,-123.55 152.86,-113.76"/>
<polygon fill="grey" stroke="grey" stroke-width="2" points="154.84,-116.65 161.22,-108.19 150.95,-110.82 154.84,-116.65"/>
</g>
<!-- 5 -->
<g id="node6" class="node">
<title>5</title>
<path fill="none" stroke="#d88556" stroke-width="2" d="M104,-108C104,-108 60,-108 60,-108 54,-108 48,-102 48,-96 48,-96 48,-84 48,-84 48,-78 54,-72 60,-72 60,-72 104,-72 104,-72 110,-72 116,-78 116,-84 116,-84 116,-96 116,-96 116,-102 110,-108 104,-108"/>
<text text-anchor="middle" x="82" y="-87.5" font-family="sans" font-size="10.00">make_RES</text>
</g>
<!-- 4&#45;&gt;5 -->
<g id="edge7" class="edge">
<title>4&#45;&gt;5</title>
<path fill="none" stroke="grey" stroke-width="2" d="M82,-143.7C82,-135.98 82,-126.71 82,-118.11"/>
<polygon fill="grey" stroke="grey" stroke-width="2" points="85.5,-118.1 82,-108.1 78.5,-118.1 85.5,-118.1"/>
</g>
<!-- 5&#45;&gt;0 -->
<g id="edge3" class="edge">
<title>5&#45;&gt;0</title>
<path fill="none" stroke="grey" stroke-width="2" d="M107.69,-71.88C121.29,-62.81 138.17,-51.55 152.86,-41.76"/>
<polygon fill="grey" stroke="grey" stroke-width="2" points="154.84,-44.65 161.22,-36.19 150.95,-38.82 154.84,-44.65"/>
</g>
</g>
</svg>
