<?xml version="1.0" encoding="UTF-8" standalone="no"?>
<!DOCTYPE svg PUBLIC "-//W3C//DTD SVG 1.1//EN"
 "http://www.w3.org/Graphics/SVG/1.1/DTD/svg11.dtd">
<!-- Generated by graphviz version 2.43.0 (0)
 -->
<!-- Title: snakemake_dag Pages: 1 -->
<svg width="186pt" height="620pt"
 viewBox="0.00 0.00 186.00 620.00" xmlns="http://www.w3.org/2000/svg" xmlns:xlink="http://www.w3.org/1999/xlink">
<g id="graph0" class="graph" transform="scale(1 1) rotate(0) translate(4 616)">
<title>snakemake_dag</title>
<polygon fill="white" stroke="transparent" points="-4,4 -4,-616 182,-616 182,4 -4,4"/>
<!-- 0 -->
<g id="node1" class="node">
<title>0</title>
<path fill="none" stroke="#d85656" stroke-width="2" d="M102,-36C102,-36 72,-36 72,-36 66,-36 60,-30 60,-24 60,-24 60,-12 60,-12 60,-6 66,0 72,0 72,0 102,0 102,0 108,0 114,-6 114,-12 114,-12 114,-24 114,-24 114,-30 108,-36 102,-36"/>
<text text-anchor="middle" x="87" y="-15.5" font-family="sans" font-size="10.00">Results</text>
</g>
<!-- 1 -->
<g id="node2" class="node">
<title>1</title>
<path fill="none" stroke="#56c9d8" stroke-width="2" d="M114.5,-180C114.5,-180 59.5,-180 59.5,-180 53.5,-180 47.5,-174 47.5,-168 47.5,-168 47.5,-156 47.5,-156 47.5,-150 53.5,-144 59.5,-144 59.5,-144 114.5,-144 114.5,-144 120.5,-144 126.5,-150 126.5,-156 126.5,-156 126.5,-168 126.5,-168 126.5,-174 120.5,-180 114.5,-180"/>
<text text-anchor="middle" x="87" y="-159.5" font-family="sans" font-size="10.00">RUN_MODEL</text>
</g>
<!-- 1&#45;&gt;0 -->
<g id="edge1" class="edge">
<title>1&#45;&gt;0</title>
<path fill="none" stroke="grey" stroke-width="2" d="M80.76,-143.59C77.43,-133.37 73.68,-120.12 72,-108 69.8,-92.15 69.8,-87.85 72,-72 73.18,-63.48 75.39,-54.39 77.75,-46.2"/>
<polygon fill="grey" stroke="grey" stroke-width="2" points="81.17,-46.99 80.76,-36.41 74.48,-44.94 81.17,-46.99"/>
</g>
<!-- 9 -->
<g id="node10" class="node">
<title>9</title>
<path fill="none" stroke="#56d8a2" stroke-width="2" d="M149,-108C149,-108 93,-108 93,-108 87,-108 81,-102 81,-96 81,-96 81,-84 81,-84 81,-78 87,-72 93,-72 93,-72 149,-72 149,-72 155,-72 161,-78 161,-84 161,-84 161,-96 161,-96 161,-102 155,-108 149,-108"/>
<text text-anchor="middle" x="121" y="-87.5" font-family="sans" font-size="10.00">Visualization</text>
</g>
<!-- 1&#45;&gt;9 -->
<g id="edge11" class="edge">
<title>1&#45;&gt;9</title>
<path fill="none" stroke="grey" stroke-width="2" d="M95.4,-143.7C99.27,-135.73 103.95,-126.1 108.24,-117.26"/>
<polygon fill="grey" stroke="grey" stroke-width="2" points="111.47,-118.63 112.69,-108.1 105.17,-115.57 111.47,-118.63"/>
</g>
<!-- 2 -->
<g id="node3" class="node">
<title>2</title>
<path fill="none" stroke="#d8c356" stroke-width="2" stroke-dasharray="5,2" d="M123.5,-252C123.5,-252 50.5,-252 50.5,-252 44.5,-252 38.5,-246 38.5,-240 38.5,-240 38.5,-228 38.5,-228 38.5,-222 44.5,-216 50.5,-216 50.5,-216 123.5,-216 123.5,-216 129.5,-216 135.5,-222 135.5,-228 135.5,-228 135.5,-240 135.5,-240 135.5,-246 129.5,-252 123.5,-252"/>
<text text-anchor="middle" x="87" y="-231.5" font-family="sans" font-size="10.00">Preprocess_data</text>
</g>
<!-- 2&#45;&gt;1 -->
<g id="edge3" class="edge">
<title>2&#45;&gt;1</title>
<path fill="none" stroke="grey" stroke-width="2" d="M87,-215.7C87,-207.98 87,-198.71 87,-190.11"/>
<polygon fill="grey" stroke="grey" stroke-width="2" points="90.5,-190.1 87,-180.1 83.5,-190.1 90.5,-190.1"/>
</g>
<!-- 3 -->
<g id="node4" class="node">
<title>3</title>
<path fill="none" stroke="#78d856" stroke-width="2" stroke-dasharray="5,2" d="M157,-324C157,-324 17,-324 17,-324 11,-324 5,-318 5,-312 5,-312 5,-300 5,-300 5,-294 11,-288 17,-288 17,-288 157,-288 157,-288 163,-288 169,-294 169,-300 169,-300 169,-312 169,-312 169,-318 163,-324 157,-324"/>
<text text-anchor="middle" x="87" y="-303.5" font-family="sans" font-size="10.00">Input_Data_Interfacing_otoole</text>
</g>
<!-- 3&#45;&gt;2 -->
<g id="edge4" class="edge">
<title>3&#45;&gt;2</title>
<path fill="none" stroke="grey" stroke-width="2" d="M87,-287.7C87,-279.98 87,-270.71 87,-262.11"/>
<polygon fill="grey" stroke="grey" stroke-width="2" points="90.5,-262.1 87,-252.1 83.5,-262.1 90.5,-262.1"/>
</g>
<!-- 4 -->
<g id="node5" class="node">
<title>4</title>
<path fill="none" stroke="#59d856" stroke-width="2" stroke-dasharray="5,2" d="M132.5,-396C132.5,-396 41.5,-396 41.5,-396 35.5,-396 29.5,-390 29.5,-384 29.5,-384 29.5,-372 29.5,-372 29.5,-366 35.5,-360 41.5,-360 41.5,-360 132.5,-360 132.5,-360 138.5,-360 144.5,-366 144.5,-372 144.5,-372 144.5,-384 144.5,-384 144.5,-390 138.5,-396 132.5,-396"/>
<text text-anchor="middle" x="87" y="-375.5" font-family="sans" font-size="10.00">Scenario_Data_Files</text>
</g>
<!-- 4&#45;&gt;3 -->
<g id="edge5" class="edge">
<title>4&#45;&gt;3</title>
<path fill="none" stroke="grey" stroke-width="2" d="M87,-359.7C87,-351.98 87,-342.71 87,-334.11"/>
<polygon fill="grey" stroke="grey" stroke-width="2" points="90.5,-334.1 87,-324.1 83.5,-334.1 90.5,-334.1"/>
</g>
<!-- 5 -->
<g id="node6" class="node">
<title>5</title>
<path fill="none" stroke="#9fd856" stroke-width="2" stroke-dasharray="5,2" d="M64,-468C64,-468 12,-468 12,-468 6,-468 0,-462 0,-456 0,-456 0,-444 0,-444 0,-438 6,-432 12,-432 12,-432 64,-432 64,-432 70,-432 76,-438 76,-444 76,-444 76,-456 76,-456 76,-462 70,-468 64,-468"/>
<text text-anchor="middle" x="38" y="-447.5" font-family="sans" font-size="10.00">Model_Shell</text>
</g>
<!-- 5&#45;&gt;4 -->
<g id="edge6" class="edge">
<title>5&#45;&gt;4</title>
<path fill="none" stroke="grey" stroke-width="2" d="M50.11,-431.7C55.87,-423.47 62.86,-413.48 69.21,-404.42"/>
<polygon fill="grey" stroke="grey" stroke-width="2" points="72.16,-406.3 75.03,-396.1 66.42,-402.29 72.16,-406.3"/>
</g>
<!-- 6 -->
<g id="node7" class="node">
<title>6</title>
<path fill="none" stroke="#56a2d8" stroke-width="2" stroke-dasharray="5,2" d="M151.5,-612C151.5,-612 22.5,-612 22.5,-612 16.5,-612 10.5,-606 10.5,-600 10.5,-600 10.5,-588 10.5,-588 10.5,-582 16.5,-576 22.5,-576 22.5,-576 151.5,-576 151.5,-576 157.5,-576 163.5,-582 163.5,-588 163.5,-588 163.5,-600 163.5,-600 163.5,-606 157.5,-612 151.5,-612"/>
<text text-anchor="middle" x="87" y="-591.5" font-family="sans" font-size="10.00">Temporal_Resolution_config</text>
</g>
<!-- 6&#45;&gt;5 -->
<g id="edge8" class="edge">
<title>6&#45;&gt;5</title>
<path fill="none" stroke="grey" stroke-width="2" d="M81.09,-575.87C72.7,-551.56 57.26,-506.82 47.32,-478.01"/>
<polygon fill="grey" stroke="grey" stroke-width="2" points="50.5,-476.5 43.93,-468.19 43.88,-478.78 50.5,-476.5"/>
</g>
<!-- 8 -->
<g id="node9" class="node">
<title>8</title>
<path fill="none" stroke="#567bd8" stroke-width="2" stroke-dasharray="5,2" d="M163.5,-540C163.5,-540 96.5,-540 96.5,-540 90.5,-540 84.5,-534 84.5,-528 84.5,-528 84.5,-516 84.5,-516 84.5,-510 90.5,-504 96.5,-504 96.5,-504 163.5,-504 163.5,-504 169.5,-504 175.5,-510 175.5,-516 175.5,-516 175.5,-528 175.5,-528 175.5,-534 169.5,-540 163.5,-540"/>
<text text-anchor="middle" x="130" y="-519.5" font-family="sans" font-size="10.00">Scenario_setup</text>
</g>
<!-- 6&#45;&gt;8 -->
<g id="edge10" class="edge">
<title>6&#45;&gt;8</title>
<path fill="none" stroke="grey" stroke-width="2" d="M97.63,-575.7C102.63,-567.56 108.69,-557.69 114.21,-548.7"/>
<polygon fill="grey" stroke="grey" stroke-width="2" points="117.24,-550.46 119.49,-540.1 111.28,-546.79 117.24,-550.46"/>
</g>
<!-- 7 -->
<g id="node8" class="node">
<title>7</title>
<path fill="none" stroke="#56d8c9" stroke-width="2" stroke-dasharray="5,2" d="M166,-468C166,-468 106,-468 106,-468 100,-468 94,-462 94,-456 94,-456 94,-444 94,-444 94,-438 100,-432 106,-432 106,-432 166,-432 166,-432 172,-432 178,-438 178,-444 178,-444 178,-456 178,-456 178,-462 172,-468 166,-468"/>
<text text-anchor="middle" x="136" y="-447.5" font-family="sans" font-size="10.00">Data_pipeline</text>
</g>
<!-- 7&#45;&gt;4 -->
<g id="edge7" class="edge">
<title>7&#45;&gt;4</title>
<path fill="none" stroke="grey" stroke-width="2" d="M123.89,-431.7C118.13,-423.47 111.14,-413.48 104.79,-404.42"/>
<polygon fill="grey" stroke="grey" stroke-width="2" points="107.58,-402.29 98.97,-396.1 101.84,-406.3 107.58,-402.29"/>
</g>
<!-- 8&#45;&gt;7 -->
<g id="edge9" class="edge">
<title>8&#45;&gt;7</title>
<path fill="none" stroke="grey" stroke-width="2" d="M131.48,-503.7C132.14,-495.98 132.94,-486.71 133.68,-478.11"/>
<polygon fill="grey" stroke="grey" stroke-width="2" points="137.17,-478.37 134.53,-468.1 130.19,-477.77 137.17,-478.37"/>
</g>
<!-- 9&#45;&gt;0 -->
<g id="edge2" class="edge">
<title>9&#45;&gt;0</title>
<path fill="none" stroke="grey" stroke-width="2" d="M112.6,-71.7C108.73,-63.73 104.05,-54.1 99.76,-45.26"/>
<polygon fill="grey" stroke="grey" stroke-width="2" points="102.83,-43.57 95.31,-36.1 96.53,-46.63 102.83,-43.57"/>
</g>
</g>
</svg>
