<?xml version="1.0" encoding="UTF-8" standalone="no"?>
<!DOCTYPE svg PUBLIC "-//W3C//DTD SVG 1.1//EN"
 "http://www.w3.org/Graphics/SVG/1.1/DTD/svg11.dtd">
<!-- Generated by graphviz version 2.43.0 (0)
 -->
<!-- Title: snakemake_dag Pages: 1 -->
<svg width="692pt" height="1570pt"
 viewBox="0.00 0.00 692.00 1570.00" xmlns="http://www.w3.org/2000/svg" xmlns:xlink="http://www.w3.org/1999/xlink">
<g id="graph0" class="graph" transform="scale(1 1) rotate(0) translate(4 1566)">
<title>snakemake_dag</title>
<polygon fill="white" stroke="transparent" points="-4,4 -4,-1566 688,-1566 688,4 -4,4"/>
<!-- 0 -->
<g id="node1" class="node">
<title>0</title>
<text text-anchor="start" x="283" y="-147.6" font-family="sans" font-weight="bold" font-size="18.00">Results</text>
<text text-anchor="start" x="220.5" y="-123.8" font-family="sans" font-size="10.00"> </text>
<text text-anchor="start" x="224.5" y="-123.8" font-family="sans" font-weight="bold" font-size="14.00">↪ input</text>
<text text-anchor="start" x="282.5" y="-123.8" font-family="sans" font-size="10.00"> </text>
<text text-anchor="start" x="220.5" y="-104" font-family="monospace" font-size="10.00">LP_file/BCNexus.lp</text>
<text text-anchor="start" x="220.5" y="-86" font-family="monospace" font-size="10.00">check_flags/Plots_generated.check</text>
<text text-anchor="start" x="220.5" y="-68" font-family="monospace" font-size="10.00">check_flags/Solution_found.check</text>
<text text-anchor="start" x="220.5" y="-50" font-family="monospace" font-size="10.00">docs/BCNexus_RES.png</text>
<text text-anchor="start" x="341.5" y="-29.8" font-family="sans" font-size="10.00"> </text>
<text text-anchor="start" x="345.5" y="-29.8" font-family="sans" font-weight="bold" font-size="14.00">output →</text>
<text text-anchor="start" x="415.5" y="-29.8" font-family="sans" font-size="10.00"> </text>
<text text-anchor="start" x="220.5" y="-10" font-family="monospace" font-size="10.00">docs/run_Summary.txt</text>
<polygon fill="#57a1d9" stroke="#57a1d9" points="214.5,-138 214.5,-138 426.5,-138 426.5,-138 214.5,-138"/>
<polygon fill="#57a1d9" stroke="#57a1d9" points="214.5,-44 214.5,-44 426.5,-44 426.5,-44 214.5,-44"/>
<polygon fill="none" stroke="#57a1d9" stroke-width="2" points="214,-1 214,-167 425,-167 425,-1 214,-1"/>
</g>
<!-- 1 -->
<g id="node2" class="node">
<title>1</title>
<text text-anchor="start" x="144" y="-501.6" font-family="sans" font-weight="bold" font-size="18.00">RUN_MODEL</text>
<text text-anchor="start" x="109.5" y="-477.8" font-family="sans" font-size="10.00"> </text>
<text text-anchor="start" x="113.5" y="-477.8" font-family="sans" font-weight="bold" font-size="14.00">↪ input</text>
<text text-anchor="start" x="171.5" y="-477.8" font-family="sans" font-size="10.00"> </text>
<text text-anchor="start" x="109.5" y="-458" font-family="monospace" font-size="10.00">processed_data.txt</text>
<text text-anchor="start" x="109.5" y="-440" font-family="monospace" font-size="10.00">processed_model_BCNexus.txt</text>
<text text-anchor="start" x="224.5" y="-419.8" font-family="sans" font-size="10.00"> </text>
<text text-anchor="start" x="228.5" y="-419.8" font-family="sans" font-weight="bold" font-size="14.00">output →</text>
<text text-anchor="start" x="298.5" y="-419.8" font-family="sans" font-size="10.00"> </text>
<text text-anchor="start" x="109.5" y="-400" font-family="monospace" font-size="10.00">LP_file/BCNexus.lp</text>
<text text-anchor="start" x="109.5" y="-382" font-family="monospace" font-size="10.00">check_flags/Solution_found.check</text>
<polygon fill="#57d957" stroke="#57d957" points="103.5,-492 103.5,-492 309.5,-492 309.5,-492 103.5,-492"/>
<polygon fill="#57d957" stroke="#57d957" points="103.5,-434 103.5,-434 309.5,-434 309.5,-434 103.5,-434"/>
<polygon fill="none" stroke="#57d957" stroke-width="2" points="103,-373 103,-521 308,-521 308,-373 103,-373"/>
</g>
<!-- 1&#45;&gt;0 -->
<g id="edge1" class="edge">
<title>1&#45;&gt;0</title>
<path fill="none" stroke="grey" stroke-width="2" d="M187.37,-371.87C178.98,-322.4 175.17,-256.97 197.5,-204 201.55,-194.39 206.8,-185.18 212.83,-176.42"/>
<polygon fill="grey" stroke="grey" stroke-width="2" points="215.78,-178.32 218.85,-168.18 210.13,-174.19 215.78,-178.32"/>
</g>
<!-- 9 -->
<g id="node10" class="node">
<title>9</title>
<text text-anchor="start" x="255.5" y="-315.6" font-family="sans" font-weight="bold" font-size="18.00">Visualization</text>
<text text-anchor="start" x="214.5" y="-291.8" font-family="sans" font-size="10.00"> </text>
<text text-anchor="start" x="218.5" y="-291.8" font-family="sans" font-weight="bold" font-size="14.00">↪ input</text>
<text text-anchor="start" x="276.5" y="-291.8" font-family="sans" font-size="10.00"> </text>
<text text-anchor="start" x="214.5" y="-272" font-family="monospace" font-size="10.00">Scripts/TotalAnnualCapacity_PLOT.py</text>
<text text-anchor="start" x="214.5" y="-254" font-family="monospace" font-size="10.00">check_flags/Solution_found.check</text>
<text text-anchor="start" x="347.5" y="-233.8" font-family="sans" font-size="10.00"> </text>
<text text-anchor="start" x="351.5" y="-233.8" font-family="sans" font-weight="bold" font-size="14.00">output →</text>
<text text-anchor="start" x="421.5" y="-233.8" font-family="sans" font-size="10.00"> </text>
<text text-anchor="start" x="214.5" y="-214" font-family="monospace" font-size="10.00">check_flags/Plots_generated.check</text>
<polygon fill="#57d9c6" stroke="#57d9c6" points="208.5,-306 208.5,-306 432.5,-306 432.5,-306 208.5,-306"/>
<polygon fill="#57d9c6" stroke="#57d9c6" points="208.5,-248 208.5,-248 432.5,-248 432.5,-248 208.5,-248"/>
<polygon fill="none" stroke="#57d9c6" stroke-width="2" points="208,-205 208,-335 431,-335 431,-205 208,-205"/>
</g>
<!-- 1&#45;&gt;9 -->
<g id="edge12" class="edge">
<title>1&#45;&gt;9</title>
<path fill="none" stroke="grey" stroke-width="2" d="M253.85,-371.78C259.69,-362.82 265.65,-353.66 271.49,-344.7"/>
<polygon fill="grey" stroke="grey" stroke-width="2" points="274.51,-346.48 277.03,-336.19 268.64,-342.66 274.51,-346.48"/>
</g>
<!-- 2 -->
<g id="node3" class="node">
<title>2</title>
<text text-anchor="start" x="190.5" y="-705.6" font-family="sans" font-weight="bold" font-size="18.00">Preprocess_data</text>
<text text-anchor="start" x="190.5" y="-681.8" font-family="sans" font-size="10.00"> </text>
<text text-anchor="start" x="194.5" y="-681.8" font-family="sans" font-weight="bold" font-size="14.00">↪ input</text>
<text text-anchor="start" x="252.5" y="-681.8" font-family="sans" font-size="10.00"> </text>
<text text-anchor="start" x="190.5" y="-662" font-family="monospace" font-size="10.00">Scripts/preprocess_data.py</text>
<text text-anchor="start" x="190.5" y="-644" font-family="monospace" font-size="10.00">data.txt</text>
<text text-anchor="start" x="190.5" y="-626" font-family="monospace" font-size="10.00">model/model_BCNexus.txt</text>
<text text-anchor="start" x="278.5" y="-605.8" font-family="sans" font-size="10.00"> </text>
<text text-anchor="start" x="282.5" y="-605.8" font-family="sans" font-weight="bold" font-size="14.00">output →</text>
<text text-anchor="start" x="352.5" y="-605.8" font-family="sans" font-size="10.00"> </text>
<text text-anchor="start" x="190.5" y="-586" font-family="monospace" font-size="10.00">processed_data.txt</text>
<text text-anchor="start" x="190.5" y="-568" font-family="monospace" font-size="10.00">processed_model_BCNexus.txt</text>
<polygon fill="#d97c57" stroke="#d97c57" points="184.5,-696 184.5,-696 363.5,-696 363.5,-696 184.5,-696"/>
<polygon fill="#d97c57" stroke="#d97c57" points="184.5,-620 184.5,-620 363.5,-620 363.5,-620 184.5,-620"/>
<polygon fill="none" stroke="#d97c57" stroke-width="2" points="184.5,-559 184.5,-725 362.5,-725 362.5,-559 184.5,-559"/>
</g>
<!-- 2&#45;&gt;1 -->
<g id="edge4" class="edge">
<title>2&#45;&gt;1</title>
<path fill="none" stroke="grey" stroke-width="2" d="M244.17,-557.75C241.14,-549.15 238.06,-540.41 235.03,-531.81"/>
<polygon fill="grey" stroke="grey" stroke-width="2" points="238.25,-530.43 231.63,-522.16 231.65,-532.76 238.25,-530.43"/>
</g>
<!-- 3 -->
<g id="node4" class="node">
<title>3</title>
<text text-anchor="start" x="182.5" y="-873.6" font-family="sans" font-weight="bold" font-size="18.00">Input_Data_Interfacing_otoole</text>
<text text-anchor="start" x="182.5" y="-849.8" font-family="sans" font-size="10.00"> </text>
<text text-anchor="start" x="186.5" y="-849.8" font-family="sans" font-weight="bold" font-size="14.00">↪ input</text>
<text text-anchor="start" x="244.5" y="-849.8" font-family="sans" font-size="10.00"> </text>
<text text-anchor="start" x="182.5" y="-830" font-family="monospace" font-size="10.00">data</text>
<text text-anchor="start" x="405.5" y="-809.8" font-family="sans" font-size="10.00"> </text>
<text text-anchor="start" x="409.5" y="-809.8" font-family="sans" font-weight="bold" font-size="14.00">output →</text>
<text text-anchor="start" x="479.5" y="-809.8" font-family="sans" font-size="10.00"> </text>
<text text-anchor="start" x="182.5" y="-790" font-family="monospace" font-size="10.00">check_flags/otoole_datafile_prepared.check</text>
<text text-anchor="start" x="182.5" y="-772" font-family="monospace" font-size="10.00">data.txt</text>
<polygon fill="#577cd9" stroke="#577cd9" points="176.5,-864 176.5,-864 490.5,-864 490.5,-864 176.5,-864"/>
<polygon fill="#577cd9" stroke="#577cd9" points="176.5,-824 176.5,-824 490.5,-824 490.5,-824 176.5,-824"/>
<polygon fill="none" stroke="#577cd9" stroke-width="2" points="176,-763 176,-893 489,-893 489,-763 176,-763"/>
</g>
<!-- 3&#45;&gt;2 -->
<g id="edge5" class="edge">
<title>3&#45;&gt;2</title>
<path fill="none" stroke="grey" stroke-width="2" d="M311.62,-761.87C308.89,-753.37 306.06,-744.53 303.22,-735.68"/>
<polygon fill="grey" stroke="grey" stroke-width="2" points="306.53,-734.55 300.14,-726.09 299.86,-736.68 306.53,-734.55"/>
</g>
<!-- 10 -->
<g id="node11" class="node">
<title>10</title>
<text text-anchor="start" x="410" y="-492.6" font-family="sans" font-weight="bold" font-size="18.00">make_RES</text>
<text text-anchor="start" x="334.5" y="-468.8" font-family="sans" font-size="10.00"> </text>
<text text-anchor="start" x="338.5" y="-468.8" font-family="sans" font-weight="bold" font-size="14.00">↪ input</text>
<text text-anchor="start" x="396.5" y="-468.8" font-family="sans" font-size="10.00"> </text>
<text text-anchor="start" x="334.5" y="-449" font-family="monospace" font-size="10.00">check_flags/otoole_datafile_prepared.check</text>
<text text-anchor="start" x="334.5" y="-431" font-family="monospace" font-size="10.00">data.txt</text>
<text text-anchor="start" x="509.5" y="-410.8" font-family="sans" font-size="10.00"> </text>
<text text-anchor="start" x="513.5" y="-410.8" font-family="sans" font-weight="bold" font-size="14.00">output →</text>
<text text-anchor="start" x="583.5" y="-410.8" font-family="sans" font-size="10.00"> </text>
<text text-anchor="start" x="334.5" y="-391" font-family="monospace" font-size="10.00">docs/BCNexus_RES.png</text>
<polygon fill="#7cd957" stroke="#7cd957" points="328.5,-483 328.5,-483 594.5,-483 594.5,-483 328.5,-483"/>
<polygon fill="#7cd957" stroke="#7cd957" points="328.5,-425 328.5,-425 594.5,-425 594.5,-425 328.5,-425"/>
<polygon fill="none" stroke="#7cd957" stroke-width="2" points="328,-382 328,-512 593,-512 593,-382 328,-382"/>
</g>
<!-- 3&#45;&gt;10 -->
<g id="edge13" class="edge">
<title>3&#45;&gt;10</title>
<path fill="none" stroke="grey" stroke-width="2" d="M359.11,-761.79C363.72,-749.93 368.36,-737.64 372.5,-726 396.75,-657.83 421.35,-579.13 438.35,-522.91"/>
<polygon fill="grey" stroke="grey" stroke-width="2" points="441.8,-523.61 441.33,-513.03 435.09,-521.59 441.8,-523.61"/>
</g>
<!-- 4 -->
<g id="node5" class="node">
<title>4</title>
<text text-anchor="start" x="233.5" y="-1059.6" font-family="sans" font-weight="bold" font-size="18.00">Scenario_Data_Files</text>
<text text-anchor="start" x="218.5" y="-1035.8" font-family="sans" font-size="10.00"> </text>
<text text-anchor="start" x="222.5" y="-1035.8" font-family="sans" font-weight="bold" font-size="14.00">↪ input</text>
<text text-anchor="start" x="280.5" y="-1035.8" font-family="sans" font-size="10.00"> </text>
<text text-anchor="start" x="218.5" y="-1016" font-family="monospace" font-size="10.00">Scripts/organize_files.py</text>
<text text-anchor="start" x="218.5" y="-998" font-family="monospace" font-size="10.00">check_flags/Data_Updated.check</text>
<text text-anchor="start" x="218.5" y="-980" font-family="monospace" font-size="10.00">check_flags/Model_shell_complete.check</text>
<text text-anchor="start" x="369.5" y="-959.8" font-family="sans" font-size="10.00"> </text>
<text text-anchor="start" x="373.5" y="-959.8" font-family="sans" font-weight="bold" font-size="14.00">output →</text>
<text text-anchor="start" x="443.5" y="-959.8" font-family="sans" font-size="10.00"> </text>
<text text-anchor="start" x="218.5" y="-940" font-family="monospace" font-size="10.00">data</text>
<polygon fill="#a1d957" stroke="#a1d957" points="212.5,-1050 212.5,-1050 454.5,-1050 454.5,-1050 212.5,-1050"/>
<polygon fill="#a1d957" stroke="#a1d957" points="212.5,-974 212.5,-974 454.5,-974 454.5,-974 212.5,-974"/>
<polygon fill="none" stroke="#a1d957" stroke-width="2" points="212,-931 212,-1079 453,-1079 453,-931 212,-931"/>
</g>
<!-- 4&#45;&gt;3 -->
<g id="edge6" class="edge">
<title>4&#45;&gt;3</title>
<path fill="none" stroke="grey" stroke-width="2" d="M332.5,-929.78C332.5,-921.37 332.5,-912.79 332.5,-904.37"/>
<polygon fill="grey" stroke="grey" stroke-width="2" points="336,-904.19 332.5,-894.19 329,-904.19 336,-904.19"/>
</g>
<!-- 5 -->
<g id="node6" class="node">
<title>5</title>
<text text-anchor="start" x="98" y="-1263.6" font-family="sans" font-weight="bold" font-size="18.00">Model_Shell</text>
<text text-anchor="start" x="7.5" y="-1239.8" font-family="sans" font-size="10.00"> </text>
<text text-anchor="start" x="11.5" y="-1239.8" font-family="sans" font-weight="bold" font-size="14.00">↪ input</text>
<text text-anchor="start" x="69.5" y="-1239.8" font-family="sans" font-size="10.00"> </text>
<text text-anchor="start" x="7.5" y="-1220" font-family="monospace" font-size="10.00">check_flags/Temporal_configuration_completed.check</text>
<text text-anchor="start" x="7.5" y="-1202" font-family="monospace" font-size="10.00">config_files/20230302_BCNexus_CLEWsy.yaml</text>
<text text-anchor="start" x="7.5" y="-1184" font-family="monospace" font-size="10.00">user_inputs</text>
<text text-anchor="start" x="230.5" y="-1163.8" font-family="sans" font-size="10.00"> </text>
<text text-anchor="start" x="234.5" y="-1163.8" font-family="sans" font-weight="bold" font-size="14.00">output →</text>
<text text-anchor="start" x="304.5" y="-1163.8" font-family="sans" font-size="10.00"> </text>
<text text-anchor="start" x="7.5" y="-1144" font-family="monospace" font-size="10.00">check_flags/Model_shell_complete.check</text>
<text text-anchor="start" x="7.5" y="-1126" font-family="monospace" font-size="10.00">user_inputs/Sets/CLEWsy_outputs</text>
<polygon fill="#c6d957" stroke="#c6d957" points="1.5,-1254 1.5,-1254 315.5,-1254 315.5,-1254 1.5,-1254"/>
<polygon fill="#c6d957" stroke="#c6d957" points="1.5,-1178 1.5,-1178 315.5,-1178 315.5,-1178 1.5,-1178"/>
<polygon fill="none" stroke="#c6d957" stroke-width="2" points="1,-1117 1,-1283 314,-1283 314,-1117 1,-1117"/>
</g>
<!-- 5&#45;&gt;4 -->
<g id="edge8" class="edge">
<title>5&#45;&gt;4</title>
<path fill="none" stroke="grey" stroke-width="2" d="M232.99,-1115.75C241.45,-1106.41 250.07,-1096.91 258.52,-1087.59"/>
<polygon fill="grey" stroke="grey" stroke-width="2" points="261.13,-1089.92 265.25,-1080.16 255.94,-1085.22 261.13,-1089.92"/>
</g>
<!-- 6 -->
<g id="node7" class="node">
<title>6</title>
<text text-anchor="start" x="194" y="-1541.6" font-family="sans" font-weight="bold" font-size="18.00">Temporal_Resolution_config</text>
<text text-anchor="start" x="182.5" y="-1520" font-family="sans" font-size="10.00"> &#160;</text>
<text text-anchor="start" x="405.5" y="-1499.8" font-family="sans" font-size="10.00"> </text>
<text text-anchor="start" x="409.5" y="-1499.8" font-family="sans" font-weight="bold" font-size="14.00">output →</text>
<text text-anchor="start" x="479.5" y="-1499.8" font-family="sans" font-size="10.00"> </text>
<text text-anchor="start" x="182.5" y="-1480" font-family="monospace" font-size="10.00">check_flags/Temporal_configuration_completed.check</text>
<polygon fill="#57c6d9" stroke="#57c6d9" points="176.5,-1532 176.5,-1532 490.5,-1532 490.5,-1532 176.5,-1532"/>
<polygon fill="#57c6d9" stroke="#57c6d9" points="176.5,-1514 176.5,-1514 490.5,-1514 490.5,-1514 176.5,-1514"/>
<polygon fill="none" stroke="#57c6d9" stroke-width="2" points="176,-1471 176,-1561 489,-1561 489,-1471 176,-1471"/>
</g>
<!-- 6&#45;&gt;5 -->
<g id="edge9" class="edge">
<title>6&#45;&gt;5</title>
<path fill="none" stroke="grey" stroke-width="2" d="M306.62,-1469.64C300.04,-1458.03 292.99,-1445.57 286.5,-1434 260.53,-1387.69 231.9,-1336.04 208.23,-1293.17"/>
<polygon fill="grey" stroke="grey" stroke-width="2" points="211.15,-1291.22 203.25,-1284.16 205.02,-1294.6 211.15,-1291.22"/>
</g>
<!-- 8 -->
<g id="node9" class="node">
<title>8</title>
<text text-anchor="start" x="395.5" y="-1413.6" font-family="sans" font-weight="bold" font-size="18.00">Scenario_setup</text>
<text text-anchor="start" x="303.5" y="-1389.8" font-family="sans" font-size="10.00"> </text>
<text text-anchor="start" x="307.5" y="-1389.8" font-family="sans" font-weight="bold" font-size="14.00">↪ input</text>
<text text-anchor="start" x="365.5" y="-1389.8" font-family="sans" font-size="10.00"> </text>
<text text-anchor="start" x="303.5" y="-1370" font-family="monospace" font-size="10.00">check_flags/Temporal_configuration_completed.check</text>
<text text-anchor="start" x="562.5" y="-1349.8" font-family="sans" font-size="10.00"> </text>
<text text-anchor="start" x="566.5" y="-1349.8" font-family="sans" font-weight="bold" font-size="14.00">output →</text>
<text text-anchor="start" x="636.5" y="-1349.8" font-family="sans" font-size="10.00"> </text>
<text text-anchor="start" x="303.5" y="-1330" font-family="monospace" font-size="10.00">check_flags/Scenario_Setup_configuration_completed.check</text>
<polygon fill="#d95757" stroke="#d95757" points="297.5,-1404 297.5,-1404 647.5,-1404 647.5,-1404 297.5,-1404"/>
<polygon fill="#d95757" stroke="#d95757" points="297.5,-1364 297.5,-1364 647.5,-1364 647.5,-1364 297.5,-1364"/>
<polygon fill="none" stroke="#d95757" stroke-width="2" points="297,-1321 297,-1433 646,-1433 646,-1321 297,-1321"/>
</g>
<!-- 6&#45;&gt;8 -->
<g id="edge11" class="edge">
<title>6&#45;&gt;8</title>
<path fill="none" stroke="grey" stroke-width="2" d="M378.4,-1469.76C387.6,-1460.69 397.43,-1451.01 407.12,-1441.46"/>
<polygon fill="grey" stroke="grey" stroke-width="2" points="409.83,-1443.7 414.49,-1434.19 404.91,-1438.71 409.83,-1443.7"/>
</g>
<!-- 7 -->
<g id="node8" class="node">
<title>7</title>
<text text-anchor="start" x="440.5" y="-1236.6" font-family="sans" font-weight="bold" font-size="18.00">Data_pipeline</text>
<text text-anchor="start" x="340.5" y="-1212.8" font-family="sans" font-size="10.00"> </text>
<text text-anchor="start" x="344.5" y="-1212.8" font-family="sans" font-weight="bold" font-size="14.00">↪ input</text>
<text text-anchor="start" x="402.5" y="-1212.8" font-family="sans" font-size="10.00"> </text>
<text text-anchor="start" x="340.5" y="-1193" font-family="monospace" font-size="10.00">check_flags/Scenario_Setup_configuration_completed.check</text>
<text text-anchor="start" x="599.5" y="-1172.8" font-family="sans" font-size="10.00"> </text>
<text text-anchor="start" x="603.5" y="-1172.8" font-family="sans" font-weight="bold" font-size="14.00">output →</text>
<text text-anchor="start" x="673.5" y="-1172.8" font-family="sans" font-size="10.00"> </text>
<text text-anchor="start" x="340.5" y="-1153" font-family="monospace" font-size="10.00">check_flags/Data_Updated.check</text>
<polygon fill="#d9c657" stroke="#d9c657" points="334.5,-1227 334.5,-1227 684.5,-1227 684.5,-1227 334.5,-1227"/>
<polygon fill="#d9c657" stroke="#d9c657" points="334.5,-1187 334.5,-1187 684.5,-1187 684.5,-1187 334.5,-1187"/>
<polygon fill="none" stroke="#d9c657" stroke-width="2" points="334,-1144 334,-1256 683,-1256 683,-1144 334,-1144"/>
</g>
<!-- 7&#45;&gt;4 -->
<g id="edge7" class="edge">
<title>7&#45;&gt;4</title>
<path fill="none" stroke="grey" stroke-width="2" d="M457.36,-1142.92C441.73,-1125.78 424.2,-1106.56 407.34,-1088.07"/>
<polygon fill="grey" stroke="grey" stroke-width="2" points="409.49,-1085.23 400.16,-1080.2 404.31,-1089.94 409.49,-1085.23"/>
</g>
<!-- 8&#45;&gt;7 -->
<g id="edge10" class="edge">
<title>8&#45;&gt;7</title>
<path fill="none" stroke="grey" stroke-width="2" d="M483.41,-1319.67C486.94,-1302.96 490.84,-1284.51 494.49,-1267.24"/>
<polygon fill="grey" stroke="grey" stroke-width="2" points="497.97,-1267.74 496.61,-1257.23 491.12,-1266.29 497.97,-1267.74"/>
</g>
<!-- 9&#45;&gt;0 -->
<g id="edge3" class="edge">
<title>9&#45;&gt;0</title>
<path fill="none" stroke="grey" stroke-width="2" d="M319.5,-203.87C319.5,-195.55 319.5,-186.9 319.5,-178.25"/>
<polygon fill="grey" stroke="grey" stroke-width="2" points="323,-178.09 319.5,-168.09 316,-178.09 323,-178.09"/>
</g>
<!-- 10&#45;&gt;0 -->
<g id="edge2" class="edge">
<title>10&#45;&gt;0</title>
<path fill="none" stroke="grey" stroke-width="2" d="M467.07,-380.97C469.43,-330.37 466.57,-259.64 440.5,-204 435.95,-194.3 430.26,-184.95 423.83,-176.05"/>
<polygon fill="grey" stroke="grey" stroke-width="2" points="426.56,-173.86 417.73,-168.01 420.99,-178.09 426.56,-173.86"/>
</g>
</g>
</svg>
