<?xml version="1.0" encoding="UTF-8" standalone="no"?>
<!DOCTYPE svg PUBLIC "-//W3C//DTD SVG 1.1//EN"
 "http://www.w3.org/Graphics/SVG/1.1/DTD/svg11.dtd">
<!-- Generated by graphviz version 2.43.0 (0)
 -->
<!-- Title: snakemake_dag Pages: 1 -->
<svg width="186pt" height="620pt"
 viewBox="0.00 0.00 186.00 620.00" xmlns="http://www.w3.org/2000/svg" xmlns:xlink="http://www.w3.org/1999/xlink">
<g id="graph0" class="graph" transform="scale(1 1) rotate(0) translate(4 616)">
<title>snakemake_dag</title>
<polygon fill="white" stroke="transparent" points="-4,4 -4,-616 182,-616 182,4 -4,4"/>
<!-- 0 -->
<g id="node1" class="node">
<title>0</title>
<path fill="none" stroke="#9fd856" stroke-width="2" d="M81,-36C81,-36 51,-36 51,-36 45,-36 39,-30 39,-24 39,-24 39,-12 39,-12 39,-6 45,0 51,0 51,0 81,0 81,0 87,0 93,-6 93,-12 93,-12 93,-24 93,-24 93,-30 87,-36 81,-36"/>
<text text-anchor="middle" x="66" y="-15.5" font-family="sans" font-size="10.00">Results</text>
</g>
<!-- 1 -->
<g id="node2" class="node">
<title>1</title>
<path fill="none" stroke="#59d856" stroke-width="2" d="M69.5,-180C69.5,-180 14.5,-180 14.5,-180 8.5,-180 2.5,-174 2.5,-168 2.5,-168 2.5,-156 2.5,-156 2.5,-150 8.5,-144 14.5,-144 14.5,-144 69.5,-144 69.5,-144 75.5,-144 81.5,-150 81.5,-156 81.5,-156 81.5,-168 81.5,-168 81.5,-174 75.5,-180 69.5,-180"/>
<text text-anchor="middle" x="42" y="-159.5" font-family="sans" font-size="10.00">RUN_MODEL</text>
</g>
<!-- 1&#45;&gt;0 -->
<g id="edge2" class="edge">
<title>1&#45;&gt;0</title>
<path fill="none" stroke="grey" stroke-width="2" d="M30.72,-143.94C20.21,-125.78 7.46,-96.36 17,-72 21.2,-61.28 28.69,-51.43 36.58,-43.2"/>
<polygon fill="grey" stroke="grey" stroke-width="2" points="39.12,-45.61 43.85,-36.13 34.24,-40.59 39.12,-45.61"/>
</g>
<!-- 9 -->
<g id="node10" class="node">
<title>9</title>
<path fill="none" stroke="#56d8c9" stroke-width="2" d="M94,-108C94,-108 38,-108 38,-108 32,-108 26,-102 26,-96 26,-96 26,-84 26,-84 26,-78 32,-72 38,-72 38,-72 94,-72 94,-72 100,-72 106,-78 106,-84 106,-84 106,-96 106,-96 106,-102 100,-108 94,-108"/>
<text text-anchor="middle" x="66" y="-87.5" font-family="sans" font-size="10.00">Visualization</text>
</g>
<!-- 1&#45;&gt;9 -->
<g id="edge12" class="edge">
<title>1&#45;&gt;9</title>
<path fill="none" stroke="grey" stroke-width="2" d="M47.93,-143.7C50.61,-135.9 53.83,-126.51 56.8,-117.83"/>
<polygon fill="grey" stroke="grey" stroke-width="2" points="60.2,-118.7 60.14,-108.1 53.58,-116.43 60.2,-118.7"/>
</g>
<!-- 2 -->
<g id="node3" class="node">
<title>2</title>
<path fill="none" stroke="#56d8a2" stroke-width="2" d="M85.5,-252C85.5,-252 12.5,-252 12.5,-252 6.5,-252 0.5,-246 0.5,-240 0.5,-240 0.5,-228 0.5,-228 0.5,-222 6.5,-216 12.5,-216 12.5,-216 85.5,-216 85.5,-216 91.5,-216 97.5,-222 97.5,-228 97.5,-228 97.5,-240 97.5,-240 97.5,-246 91.5,-252 85.5,-252"/>
<text text-anchor="middle" x="49" y="-231.5" font-family="sans" font-size="10.00">Preprocess_data</text>
</g>
<!-- 2&#45;&gt;1 -->
<g id="edge4" class="edge">
<title>2&#45;&gt;1</title>
<path fill="none" stroke="grey" stroke-width="2" d="M47.27,-215.7C46.5,-207.98 45.57,-198.71 44.71,-190.11"/>
<polygon fill="grey" stroke="grey" stroke-width="2" points="48.19,-189.71 43.71,-180.1 41.22,-190.4 48.19,-189.71"/>
</g>
<!-- 3 -->
<g id="node4" class="node">
<title>3</title>
<path fill="none" stroke="#78d856" stroke-width="2" d="M157,-324C157,-324 17,-324 17,-324 11,-324 5,-318 5,-312 5,-312 5,-300 5,-300 5,-294 11,-288 17,-288 17,-288 157,-288 157,-288 163,-288 169,-294 169,-300 169,-300 169,-312 169,-312 169,-318 163,-324 157,-324"/>
<text text-anchor="middle" x="87" y="-303.5" font-family="sans" font-size="10.00">Input_Data_Interfacing_otoole</text>
</g>
<!-- 3&#45;&gt;2 -->
<g id="edge5" class="edge">
<title>3&#45;&gt;2</title>
<path fill="none" stroke="grey" stroke-width="2" d="M77.61,-287.7C73.24,-279.64 67.94,-269.89 63.1,-260.98"/>
<polygon fill="grey" stroke="grey" stroke-width="2" points="66.13,-259.22 58.29,-252.1 59.98,-262.56 66.13,-259.22"/>
</g>
<!-- 10 -->
<g id="node11" class="node">
<title>10</title>
<path fill="none" stroke="#56c9d8" stroke-width="2" d="M156,-180C156,-180 112,-180 112,-180 106,-180 100,-174 100,-168 100,-168 100,-156 100,-156 100,-150 106,-144 112,-144 112,-144 156,-144 156,-144 162,-144 168,-150 168,-156 168,-156 168,-168 168,-168 168,-174 162,-180 156,-180"/>
<text text-anchor="middle" x="134" y="-159.5" font-family="sans" font-size="10.00">make_RES</text>
</g>
<!-- 3&#45;&gt;10 -->
<g id="edge13" class="edge">
<title>3&#45;&gt;10</title>
<path fill="none" stroke="grey" stroke-width="2" d="M93.33,-287.87C97.11,-277.52 101.95,-264.04 106,-252 112.99,-231.21 120.42,-207.51 125.87,-189.8"/>
<polygon fill="grey" stroke="grey" stroke-width="2" points="129.25,-190.71 128.83,-180.13 122.56,-188.66 129.25,-190.71"/>
</g>
<!-- 4 -->
<g id="node5" class="node">
<title>4</title>
<path fill="none" stroke="#d87d56" stroke-width="2" d="M132.5,-396C132.5,-396 41.5,-396 41.5,-396 35.5,-396 29.5,-390 29.5,-384 29.5,-384 29.5,-372 29.5,-372 29.5,-366 35.5,-360 41.5,-360 41.5,-360 132.5,-360 132.5,-360 138.5,-360 144.5,-366 144.5,-372 144.5,-372 144.5,-384 144.5,-384 144.5,-390 138.5,-396 132.5,-396"/>
<text text-anchor="middle" x="87" y="-375.5" font-family="sans" font-size="10.00">Scenario_Data_Files</text>
</g>
<!-- 4&#45;&gt;3 -->
<g id="edge6" class="edge">
<title>4&#45;&gt;3</title>
<path fill="none" stroke="grey" stroke-width="2" d="M87,-359.7C87,-351.98 87,-342.71 87,-334.11"/>
<polygon fill="grey" stroke="grey" stroke-width="2" points="90.5,-334.1 87,-324.1 83.5,-334.1 90.5,-334.1"/>
</g>
<!-- 5 -->
<g id="node6" class="node">
<title>5</title>
<path fill="none" stroke="#56a2d8" stroke-width="2" d="M64,-468C64,-468 12,-468 12,-468 6,-468 0,-462 0,-456 0,-456 0,-444 0,-444 0,-438 6,-432 12,-432 12,-432 64,-432 64,-432 70,-432 76,-438 76,-444 76,-444 76,-456 76,-456 76,-462 70,-468 64,-468"/>
<text text-anchor="middle" x="38" y="-447.5" font-family="sans" font-size="10.00">Model_Shell</text>
</g>
<!-- 5&#45;&gt;4 -->
<g id="edge7" class="edge">
<title>5&#45;&gt;4</title>
<path fill="none" stroke="grey" stroke-width="2" d="M50.11,-431.7C55.87,-423.47 62.86,-413.48 69.21,-404.42"/>
<polygon fill="grey" stroke="grey" stroke-width="2" points="72.16,-406.3 75.03,-396.1 66.42,-402.29 72.16,-406.3"/>
</g>
<!-- 6 -->
<g id="node7" class="node">
<title>6</title>
<path fill="none" stroke="#d8a456" stroke-width="2" d="M151.5,-612C151.5,-612 22.5,-612 22.5,-612 16.5,-612 10.5,-606 10.5,-600 10.5,-600 10.5,-588 10.5,-588 10.5,-582 16.5,-576 22.5,-576 22.5,-576 151.5,-576 151.5,-576 157.5,-576 163.5,-582 163.5,-588 163.5,-588 163.5,-600 163.5,-600 163.5,-606 157.5,-612 151.5,-612"/>
<text text-anchor="middle" x="87" y="-591.5" font-family="sans" font-size="10.00">Temporal_Resolution_config</text>
</g>
<!-- 6&#45;&gt;5 -->
<g id="edge9" class="edge">
<title>6&#45;&gt;5</title>
<path fill="none" stroke="grey" stroke-width="2" d="M81.09,-575.87C72.7,-551.56 57.26,-506.82 47.32,-478.01"/>
<polygon fill="grey" stroke="grey" stroke-width="2" points="50.5,-476.5 43.93,-468.19 43.88,-478.78 50.5,-476.5"/>
</g>
<!-- 8 -->
<g id="node9" class="node">
<title>8</title>
<path fill="none" stroke="#56d87b" stroke-width="2" d="M163.5,-540C163.5,-540 96.5,-540 96.5,-540 90.5,-540 84.5,-534 84.5,-528 84.5,-528 84.5,-516 84.5,-516 84.5,-510 90.5,-504 96.5,-504 96.5,-504 163.5,-504 163.5,-504 169.5,-504 175.5,-510 175.5,-516 175.5,-516 175.5,-528 175.5,-528 175.5,-534 169.5,-540 163.5,-540"/>
<text text-anchor="middle" x="130" y="-519.5" font-family="sans" font-size="10.00">Scenario_setup</text>
</g>
<!-- 6&#45;&gt;8 -->
<g id="edge11" class="edge">
<title>6&#45;&gt;8</title>
<path fill="none" stroke="grey" stroke-width="2" d="M97.63,-575.7C102.63,-567.56 108.69,-557.69 114.21,-548.7"/>
<polygon fill="grey" stroke="grey" stroke-width="2" points="117.24,-550.46 119.49,-540.1 111.28,-546.79 117.24,-550.46"/>
</g>
<!-- 7 -->
<g id="node8" class="node">
<title>7</title>
<path fill="none" stroke="#d85656" stroke-width="2" d="M166,-468C166,-468 106,-468 106,-468 100,-468 94,-462 94,-456 94,-456 94,-444 94,-444 94,-438 100,-432 106,-432 106,-432 166,-432 166,-432 172,-432 178,-438 178,-444 178,-444 178,-456 178,-456 178,-462 172,-468 166,-468"/>
<text text-anchor="middle" x="136" y="-447.5" font-family="sans" font-size="10.00">Data_pipeline</text>
</g>
<!-- 7&#45;&gt;4 -->
<g id="edge8" class="edge">
<title>7&#45;&gt;4</title>
<path fill="none" stroke="grey" stroke-width="2" d="M123.89,-431.7C118.13,-423.47 111.14,-413.48 104.79,-404.42"/>
<polygon fill="grey" stroke="grey" stroke-width="2" points="107.58,-402.29 98.97,-396.1 101.84,-406.3 107.58,-402.29"/>
</g>
<!-- 8&#45;&gt;7 -->
<g id="edge10" class="edge">
<title>8&#45;&gt;7</title>
<path fill="none" stroke="grey" stroke-width="2" d="M131.48,-503.7C132.14,-495.98 132.94,-486.71 133.68,-478.11"/>
<polygon fill="grey" stroke="grey" stroke-width="2" points="137.17,-478.37 134.53,-468.1 130.19,-477.77 137.17,-478.37"/>
</g>
<!-- 9&#45;&gt;0 -->
<g id="edge1" class="edge">
<title>9&#45;&gt;0</title>
<path fill="none" stroke="grey" stroke-width="2" d="M66,-71.7C66,-63.98 66,-54.71 66,-46.11"/>
<polygon fill="grey" stroke="grey" stroke-width="2" points="69.5,-46.1 66,-36.1 62.5,-46.1 69.5,-46.1"/>
</g>
<!-- 10&#45;&gt;0 -->
<g id="edge3" class="edge">
<title>10&#45;&gt;0</title>
<path fill="none" stroke="grey" stroke-width="2" d="M133.02,-143.69C131.37,-125.06 126.93,-95 115,-72 109.61,-61.61 101.63,-51.74 93.67,-43.41"/>
<polygon fill="grey" stroke="grey" stroke-width="2" points="95.99,-40.78 86.44,-36.21 91.06,-45.74 95.99,-40.78"/>
</g>
</g>
</svg>
