<?xml version="1.0" encoding="utf-8" standalone="no"?>
<!DOCTYPE svg PUBLIC "-//W3C//DTD SVG 1.1//EN"
  "http://www.w3.org/Graphics/SVG/1.1/DTD/svg11.dtd">
<svg xmlns:xlink="http://www.w3.org/1999/xlink" width="514.845pt" height="325.398875pt" viewBox="0 0 514.845 325.398875" xmlns="http://www.w3.org/2000/svg" version="1.1">
 <metadata>
  <rdf:RDF xmlns:dc="http://purl.org/dc/elements/1.1/" xmlns:cc="http://creativecommons.org/ns#" xmlns:rdf="http://www.w3.org/1999/02/22-rdf-syntax-ns#">
   <cc:Work>
    <dc:type rdf:resource="http://purl.org/dc/dcmitype/StillImage"/>
    <dc:date>2023-09-06T00:04:15.847989</dc:date>
    <dc:format>image/svg+xml</dc:format>
    <dc:creator>
     <cc:Agent>
      <dc:title>Matplotlib v3.7.1, https://matplotlib.org/</dc:title>
     </cc:Agent>
    </dc:creator>
   </cc:Work>
  </rdf:RDF>
 </metadata>
 <defs>
  <style type="text/css">*{stroke-linejoin: round; stroke-linecap: butt}</style>
 </defs>
 <g id="figure_1">
  <g id="patch_1">
   <path d="M -0 325.398875 
L 514.845 325.398875 
L 514.845 0 
L -0 0 
z
" style="fill: #ffffff"/>
  </g>
  <g id="axes_1">
   <g id="patch_2">
    <path d="M 42.301563 289.03325 
L 399.421563 289.03325 
L 399.421563 22.92125 
L 42.301563 22.92125 
z
" style="fill: #ffffff"/>
   </g>
   <g id="patch_3">
    <path d="M 58.53429 289.03325 
L 66.966875 289.03325 
L 66.966875 281.858235 
L 58.53429 281.858235 
z
" clip-path="url(#p02dedd2681)" style="fill: #5bab59"/>
   </g>
   <g id="patch_4">
    <path d="M 69.075022 289.03325 
L 77.507607 289.03325 
L 77.507607 281.858235 
L 69.075022 281.858235 
z
" clip-path="url(#p02dedd2681)" style="fill: #5bab59"/>
   </g>
   <g id="patch_5">
    <path d="M 79.615754 289.03325 
L 88.048339 289.03325 
L 88.048339 281.858235 
L 79.615754 281.858235 
z
" clip-path="url(#p02dedd2681)" style="fill: #5bab59"/>
   </g>
   <g id="patch_6">
    <path d="M 90.156486 289.03325 
L 98.589071 289.03325 
L 98.589071 281.858235 
L 90.156486 281.858235 
z
" clip-path="url(#p02dedd2681)" style="fill: #5bab59"/>
   </g>
   <g id="patch_7">
    <path d="M 100.697218 289.03325 
L 109.129803 289.03325 
L 109.129803 281.858235 
L 100.697218 281.858235 
z
" clip-path="url(#p02dedd2681)" style="fill: #5bab59"/>
   </g>
   <g id="patch_8">
    <path d="M 111.23795 289.03325 
L 119.670535 289.03325 
L 119.670535 281.858235 
L 111.23795 281.858235 
z
" clip-path="url(#p02dedd2681)" style="fill: #5bab59"/>
   </g>
   <g id="patch_9">
    <path d="M 121.778682 289.03325 
L 130.211267 289.03325 
L 130.211267 281.858235 
L 121.778682 281.858235 
z
" clip-path="url(#p02dedd2681)" style="fill: #5bab59"/>
   </g>
   <g id="patch_10">
    <path d="M 132.319414 289.03325 
L 140.751999 289.03325 
L 140.751999 281.858235 
L 132.319414 281.858235 
z
" clip-path="url(#p02dedd2681)" style="fill: #5bab59"/>
   </g>
   <g id="patch_11">
    <path d="M 142.860146 289.03325 
L 151.292731 289.03325 
L 151.292731 281.858235 
L 142.860146 281.858235 
z
" clip-path="url(#p02dedd2681)" style="fill: #5bab59"/>
   </g>
   <g id="patch_12">
    <path d="M 153.400878 289.03325 
L 161.833463 289.03325 
L 161.833463 281.858235 
L 153.400878 281.858235 
z
" clip-path="url(#p02dedd2681)" style="fill: #5bab59"/>
   </g>
   <g id="patch_13">
    <path d="M 163.94161 289.03325 
L 172.374195 289.03325 
L 172.374195 281.858235 
L 163.94161 281.858235 
z
" clip-path="url(#p02dedd2681)" style="fill: #5bab59"/>
   </g>
   <g id="patch_14">
    <path d="M 174.482342 289.03325 
L 182.914927 289.03325 
L 182.914927 281.858235 
L 174.482342 281.858235 
z
" clip-path="url(#p02dedd2681)" style="fill: #5bab59"/>
   </g>
   <g id="patch_15">
    <path d="M 185.023074 289.03325 
L 193.455659 289.03325 
L 193.455659 281.858235 
L 185.023074 281.858235 
z
" clip-path="url(#p02dedd2681)" style="fill: #5bab59"/>
   </g>
   <g id="patch_16">
    <path d="M 195.563806 289.03325 
L 203.996391 289.03325 
L 203.996391 281.858235 
L 195.563806 281.858235 
z
" clip-path="url(#p02dedd2681)" style="fill: #5bab59"/>
   </g>
   <g id="patch_17">
    <path d="M 206.104538 289.03325 
L 214.537123 289.03325 
L 214.537123 281.858235 
L 206.104538 281.858235 
z
" clip-path="url(#p02dedd2681)" style="fill: #5bab59"/>
   </g>
   <g id="patch_18">
    <path d="M 216.64527 289.03325 
L 225.077855 289.03325 
L 225.077855 281.858235 
L 216.64527 281.858235 
z
" clip-path="url(#p02dedd2681)" style="fill: #5bab59"/>
   </g>
   <g id="patch_19">
    <path d="M 227.186002 289.03325 
L 235.618587 289.03325 
L 235.618587 281.858235 
L 227.186002 281.858235 
z
" clip-path="url(#p02dedd2681)" style="fill: #5bab59"/>
   </g>
   <g id="patch_20">
    <path d="M 237.726734 289.03325 
L 246.159319 289.03325 
L 246.159319 281.858235 
L 237.726734 281.858235 
z
" clip-path="url(#p02dedd2681)" style="fill: #5bab59"/>
   </g>
   <g id="patch_21">
    <path d="M 248.267466 289.03325 
L 256.700051 289.03325 
L 256.700051 281.858235 
L 248.267466 281.858235 
z
" clip-path="url(#p02dedd2681)" style="fill: #5bab59"/>
   </g>
   <g id="patch_22">
    <path d="M 258.808198 289.03325 
L 267.240783 289.03325 
L 267.240783 281.858235 
L 258.808198 281.858235 
z
" clip-path="url(#p02dedd2681)" style="fill: #5bab59"/>
   </g>
   <g id="patch_23">
    <path d="M 269.34893 289.03325 
L 277.781515 289.03325 
L 277.781515 281.858235 
L 269.34893 281.858235 
z
" clip-path="url(#p02dedd2681)" style="fill: #5bab59"/>
   </g>
   <g id="patch_24">
    <path d="M 279.889662 289.03325 
L 288.322247 289.03325 
L 288.322247 281.858235 
L 279.889662 281.858235 
z
" clip-path="url(#p02dedd2681)" style="fill: #5bab59"/>
   </g>
   <g id="patch_25">
    <path d="M 290.430394 289.03325 
L 298.862979 289.03325 
L 298.862979 281.858235 
L 290.430394 281.858235 
z
" clip-path="url(#p02dedd2681)" style="fill: #5bab59"/>
   </g>
   <g id="patch_26">
    <path d="M 300.971126 289.03325 
L 309.403711 289.03325 
L 309.403711 281.858235 
L 300.971126 281.858235 
z
" clip-path="url(#p02dedd2681)" style="fill: #5bab59"/>
   </g>
   <g id="patch_27">
    <path d="M 311.511858 289.03325 
L 319.944443 289.03325 
L 319.944443 281.858235 
L 311.511858 281.858235 
z
" clip-path="url(#p02dedd2681)" style="fill: #5bab59"/>
   </g>
   <g id="patch_28">
    <path d="M 322.05259 289.03325 
L 330.485175 289.03325 
L 330.485175 281.858235 
L 322.05259 281.858235 
z
" clip-path="url(#p02dedd2681)" style="fill: #5bab59"/>
   </g>
   <g id="patch_29">
    <path d="M 332.593322 289.03325 
L 341.025907 289.03325 
L 341.025907 281.858235 
L 332.593322 281.858235 
z
" clip-path="url(#p02dedd2681)" style="fill: #5bab59"/>
   </g>
   <g id="patch_30">
    <path d="M 343.134054 289.03325 
L 351.566639 289.03325 
L 351.566639 281.858235 
L 343.134054 281.858235 
z
" clip-path="url(#p02dedd2681)" style="fill: #5bab59"/>
   </g>
   <g id="patch_31">
    <path d="M 353.674786 289.03325 
L 362.107371 289.03325 
L 362.107371 281.858235 
L 353.674786 281.858235 
z
" clip-path="url(#p02dedd2681)" style="fill: #5bab59"/>
   </g>
   <g id="patch_32">
    <path d="M 364.215518 289.03325 
L 372.648103 289.03325 
L 372.648103 281.858235 
L 364.215518 281.858235 
z
" clip-path="url(#p02dedd2681)" style="fill: #5bab59"/>
   </g>
   <g id="patch_33">
    <path d="M 374.75625 289.03325 
L 383.188835 289.03325 
L 383.188835 281.858235 
L 374.75625 281.858235 
z
" clip-path="url(#p02dedd2681)" style="fill: #5bab59"/>
   </g>
   <g id="patch_34">
    <path d="M 58.53429 281.858235 
L 66.966875 281.858235 
L 66.966875 281.858235 
L 58.53429 281.858235 
z
" clip-path="url(#p02dedd2681)" style="fill: #b067b3"/>
   </g>
   <g id="patch_35">
    <path d="M 69.075022 281.858235 
L 77.507607 281.858235 
L 77.507607 281.858235 
L 69.075022 281.858235 
z
" clip-path="url(#p02dedd2681)" style="fill: #b067b3"/>
   </g>
   <g id="patch_36">
    <path d="M 79.615754 281.858235 
L 88.048339 281.858235 
L 88.048339 281.858235 
L 79.615754 281.858235 
z
" clip-path="url(#p02dedd2681)" style="fill: #b067b3"/>
   </g>
   <g id="patch_37">
    <path d="M 90.156486 281.858235 
L 98.589071 281.858235 
L 98.589071 281.858235 
L 90.156486 281.858235 
z
" clip-path="url(#p02dedd2681)" style="fill: #b067b3"/>
   </g>
   <g id="patch_38">
    <path d="M 100.697218 281.858235 
L 109.129803 281.858235 
L 109.129803 281.858235 
L 100.697218 281.858235 
z
" clip-path="url(#p02dedd2681)" style="fill: #b067b3"/>
   </g>
   <g id="patch_39">
    <path d="M 111.23795 281.858235 
L 119.670535 281.858235 
L 119.670535 280.903614 
L 111.23795 280.903614 
z
" clip-path="url(#p02dedd2681)" style="fill: #b067b3"/>
   </g>
   <g id="patch_40">
    <path d="M 121.778682 281.858235 
L 130.211267 281.858235 
L 130.211267 275.582702 
L 121.778682 275.582702 
z
" clip-path="url(#p02dedd2681)" style="fill: #b067b3"/>
   </g>
   <g id="patch_41">
    <path d="M 132.319414 281.858235 
L 140.751999 281.858235 
L 140.751999 272.396307 
L 132.319414 272.396307 
z
" clip-path="url(#p02dedd2681)" style="fill: #b067b3"/>
   </g>
   <g id="patch_42">
    <path d="M 142.860146 281.858235 
L 151.292731 281.858235 
L 151.292731 269.468268 
L 142.860146 269.468268 
z
" clip-path="url(#p02dedd2681)" style="fill: #b067b3"/>
   </g>
   <g id="patch_43">
    <path d="M 153.400878 281.858235 
L 161.833463 281.858235 
L 161.833463 266.632499 
L 153.400878 266.632499 
z
" clip-path="url(#p02dedd2681)" style="fill: #b067b3"/>
   </g>
   <g id="patch_44">
    <path d="M 163.94161 281.858235 
L 172.374195 281.858235 
L 172.374195 262.726396 
L 163.94161 262.726396 
z
" clip-path="url(#p02dedd2681)" style="fill: #b067b3"/>
   </g>
   <g id="patch_45">
    <path d="M 174.482342 281.858235 
L 182.914927 281.858235 
L 182.914927 258.426608 
L 174.482342 258.426608 
z
" clip-path="url(#p02dedd2681)" style="fill: #b067b3"/>
   </g>
   <g id="patch_46">
    <path d="M 185.023074 281.858235 
L 193.455659 281.858235 
L 193.455659 254.243695 
L 185.023074 254.243695 
z
" clip-path="url(#p02dedd2681)" style="fill: #b067b3"/>
   </g>
   <g id="patch_47">
    <path d="M 195.563806 281.858235 
L 203.996391 281.858235 
L 203.996391 251.371018 
L 195.563806 251.371018 
z
" clip-path="url(#p02dedd2681)" style="fill: #b067b3"/>
   </g>
   <g id="patch_48">
    <path d="M 206.104538 281.858235 
L 214.537123 281.858235 
L 214.537123 248.836665 
L 206.104538 248.836665 
z
" clip-path="url(#p02dedd2681)" style="fill: #b067b3"/>
   </g>
   <g id="patch_49">
    <path d="M 216.64527 281.858235 
L 225.077855 281.858235 
L 225.077855 245.80699 
L 216.64527 245.80699 
z
" clip-path="url(#p02dedd2681)" style="fill: #b067b3"/>
   </g>
   <g id="patch_50">
    <path d="M 227.186002 281.858235 
L 235.618587 281.858235 
L 235.618587 243.100399 
L 227.186002 243.100399 
z
" clip-path="url(#p02dedd2681)" style="fill: #b067b3"/>
   </g>
   <g id="patch_51">
    <path d="M 237.726734 281.858235 
L 246.159319 281.858235 
L 246.159319 239.606381 
L 237.726734 239.606381 
z
" clip-path="url(#p02dedd2681)" style="fill: #b067b3"/>
   </g>
   <g id="patch_52">
    <path d="M 248.267466 281.858235 
L 256.700051 281.858235 
L 256.700051 236.700786 
L 248.267466 236.700786 
z
" clip-path="url(#p02dedd2681)" style="fill: #b067b3"/>
   </g>
   <g id="patch_53">
    <path d="M 258.808198 281.858235 
L 267.240783 281.858235 
L 267.240783 236.700786 
L 258.808198 236.700786 
z
" clip-path="url(#p02dedd2681)" style="fill: #b067b3"/>
   </g>
   <g id="patch_54">
    <path d="M 269.34893 281.858235 
L 277.781515 281.858235 
L 277.781515 236.700786 
L 269.34893 236.700786 
z
" clip-path="url(#p02dedd2681)" style="fill: #b067b3"/>
   </g>
   <g id="patch_55">
    <path d="M 279.889662 281.858235 
L 288.322247 281.858235 
L 288.322247 236.700786 
L 279.889662 236.700786 
z
" clip-path="url(#p02dedd2681)" style="fill: #b067b3"/>
   </g>
   <g id="patch_56">
    <path d="M 290.430394 281.858235 
L 298.862979 281.858235 
L 298.862979 236.700786 
L 290.430394 236.700786 
z
" clip-path="url(#p02dedd2681)" style="fill: #b067b3"/>
   </g>
   <g id="patch_57">
    <path d="M 300.971126 281.858235 
L 309.403711 281.858235 
L 309.403711 236.700786 
L 300.971126 236.700786 
z
" clip-path="url(#p02dedd2681)" style="fill: #b067b3"/>
   </g>
   <g id="patch_58">
    <path d="M 311.511858 281.858235 
L 319.944443 281.858235 
L 319.944443 236.700786 
L 311.511858 236.700786 
z
" clip-path="url(#p02dedd2681)" style="fill: #b067b3"/>
   </g>
   <g id="patch_59">
    <path d="M 322.05259 281.858235 
L 330.485175 281.858235 
L 330.485175 236.700786 
L 322.05259 236.700786 
z
" clip-path="url(#p02dedd2681)" style="fill: #b067b3"/>
   </g>
   <g id="patch_60">
    <path d="M 332.593322 281.858235 
L 341.025907 281.858235 
L 341.025907 236.700786 
L 332.593322 236.700786 
z
" clip-path="url(#p02dedd2681)" style="fill: #b067b3"/>
   </g>
   <g id="patch_61">
    <path d="M 343.134054 281.858235 
L 351.566639 281.858235 
L 351.566639 236.700786 
L 343.134054 236.700786 
z
" clip-path="url(#p02dedd2681)" style="fill: #b067b3"/>
   </g>
   <g id="patch_62">
    <path d="M 353.674786 281.858235 
L 362.107371 281.858235 
L 362.107371 236.700786 
L 353.674786 236.700786 
z
" clip-path="url(#p02dedd2681)" style="fill: #b067b3"/>
   </g>
   <g id="patch_63">
    <path d="M 364.215518 281.858235 
L 372.648103 281.858235 
L 372.648103 236.700786 
L 364.215518 236.700786 
z
" clip-path="url(#p02dedd2681)" style="fill: #b067b3"/>
   </g>
   <g id="patch_64">
    <path d="M 374.75625 281.858235 
L 383.188835 281.858235 
L 383.188835 236.700786 
L 374.75625 236.700786 
z
" clip-path="url(#p02dedd2681)" style="fill: #b067b3"/>
   </g>
   <g id="patch_65">
    <path d="M 58.53429 281.858235 
L 66.966875 281.858235 
L 66.966875 170.765765 
L 58.53429 170.765765 
z
" clip-path="url(#p02dedd2681)" style="fill: #86b4d8"/>
   </g>
   <g id="patch_66">
    <path d="M 69.075022 281.858235 
L 77.507607 281.858235 
L 77.507607 170.765765 
L 69.075022 170.765765 
z
" clip-path="url(#p02dedd2681)" style="fill: #86b4d8"/>
   </g>
   <g id="patch_67">
    <path d="M 79.615754 281.858235 
L 88.048339 281.858235 
L 88.048339 170.765765 
L 79.615754 170.765765 
z
" clip-path="url(#p02dedd2681)" style="fill: #86b4d8"/>
   </g>
   <g id="patch_68">
    <path d="M 90.156486 281.858235 
L 98.589071 281.858235 
L 98.589071 170.765765 
L 90.156486 170.765765 
z
" clip-path="url(#p02dedd2681)" style="fill: #86b4d8"/>
   </g>
   <g id="patch_69">
    <path d="M 100.697218 281.858235 
L 109.129803 281.858235 
L 109.129803 170.765765 
L 100.697218 170.765765 
z
" clip-path="url(#p02dedd2681)" style="fill: #86b4d8"/>
   </g>
   <g id="patch_70">
    <path d="M 111.23795 280.903614 
L 119.670535 280.903614 
L 119.670535 164.101589 
L 111.23795 164.101589 
z
" clip-path="url(#p02dedd2681)" style="fill: #86b4d8"/>
   </g>
   <g id="patch_71">
    <path d="M 121.778682 275.582702 
L 130.211267 275.582702 
L 130.211267 158.780677 
L 121.778682 158.780677 
z
" clip-path="url(#p02dedd2681)" style="fill: #86b4d8"/>
   </g>
   <g id="patch_72">
    <path d="M 132.319414 272.396307 
L 140.751999 272.396307 
L 140.751999 155.594282 
L 132.319414 155.594282 
z
" clip-path="url(#p02dedd2681)" style="fill: #86b4d8"/>
   </g>
   <g id="patch_73">
    <path d="M 142.860146 269.468268 
L 151.292731 269.468268 
L 151.292731 152.666243 
L 142.860146 152.666243 
z
" clip-path="url(#p02dedd2681)" style="fill: #86b4d8"/>
   </g>
   <g id="patch_74">
    <path d="M 153.400878 266.632499 
L 161.833463 266.632499 
L 161.833463 149.830474 
L 153.400878 149.830474 
z
" clip-path="url(#p02dedd2681)" style="fill: #86b4d8"/>
   </g>
   <g id="patch_75">
    <path d="M 163.94161 262.726396 
L 172.374195 262.726396 
L 172.374195 145.924371 
L 163.94161 145.924371 
z
" clip-path="url(#p02dedd2681)" style="fill: #86b4d8"/>
   </g>
   <g id="patch_76">
    <path d="M 174.482342 258.426608 
L 182.914927 258.426608 
L 182.914927 141.624583 
L 174.482342 141.624583 
z
" clip-path="url(#p02dedd2681)" style="fill: #86b4d8"/>
   </g>
   <g id="patch_77">
    <path d="M 185.023074 254.243695 
L 193.455659 254.243695 
L 193.455659 137.44167 
L 185.023074 137.44167 
z
" clip-path="url(#p02dedd2681)" style="fill: #86b4d8"/>
   </g>
   <g id="patch_78">
    <path d="M 195.563806 251.371018 
L 203.996391 251.371018 
L 203.996391 134.568993 
L 195.563806 134.568993 
z
" clip-path="url(#p02dedd2681)" style="fill: #86b4d8"/>
   </g>
   <g id="patch_79">
    <path d="M 206.104538 248.836665 
L 214.537123 248.836665 
L 214.537123 132.03464 
L 206.104538 132.03464 
z
" clip-path="url(#p02dedd2681)" style="fill: #86b4d8"/>
   </g>
   <g id="patch_80">
    <path d="M 216.64527 245.80699 
L 225.077855 245.80699 
L 225.077855 129.004965 
L 216.64527 129.004965 
z
" clip-path="url(#p02dedd2681)" style="fill: #86b4d8"/>
   </g>
   <g id="patch_81">
    <path d="M 227.186002 243.100399 
L 235.618587 243.100399 
L 235.618587 126.298374 
L 227.186002 126.298374 
z
" clip-path="url(#p02dedd2681)" style="fill: #86b4d8"/>
   </g>
   <g id="patch_82">
    <path d="M 237.726734 239.606381 
L 246.159319 239.606381 
L 246.159319 122.804356 
L 237.726734 122.804356 
z
" clip-path="url(#p02dedd2681)" style="fill: #86b4d8"/>
   </g>
   <g id="patch_83">
    <path d="M 248.267466 236.700786 
L 256.700051 236.700786 
L 256.700051 119.898761 
L 248.267466 119.898761 
z
" clip-path="url(#p02dedd2681)" style="fill: #86b4d8"/>
   </g>
   <g id="patch_84">
    <path d="M 258.808198 236.700786 
L 267.240783 236.700786 
L 267.240783 119.898761 
L 258.808198 119.898761 
z
" clip-path="url(#p02dedd2681)" style="fill: #86b4d8"/>
   </g>
   <g id="patch_85">
    <path d="M 269.34893 236.700786 
L 277.781515 236.700786 
L 277.781515 119.898761 
L 269.34893 119.898761 
z
" clip-path="url(#p02dedd2681)" style="fill: #86b4d8"/>
   </g>
   <g id="patch_86">
    <path d="M 279.889662 236.700786 
L 288.322247 236.700786 
L 288.322247 119.898761 
L 279.889662 119.898761 
z
" clip-path="url(#p02dedd2681)" style="fill: #86b4d8"/>
   </g>
   <g id="patch_87">
    <path d="M 290.430394 236.700786 
L 298.862979 236.700786 
L 298.862979 119.898761 
L 290.430394 119.898761 
z
" clip-path="url(#p02dedd2681)" style="fill: #86b4d8"/>
   </g>
   <g id="patch_88">
    <path d="M 300.971126 236.700786 
L 309.403711 236.700786 
L 309.403711 119.898761 
L 300.971126 119.898761 
z
" clip-path="url(#p02dedd2681)" style="fill: #86b4d8"/>
   </g>
   <g id="patch_89">
    <path d="M 311.511858 236.700786 
L 319.944443 236.700786 
L 319.944443 119.898761 
L 311.511858 119.898761 
z
" clip-path="url(#p02dedd2681)" style="fill: #86b4d8"/>
   </g>
   <g id="patch_90">
    <path d="M 322.05259 236.700786 
L 330.485175 236.700786 
L 330.485175 119.898761 
L 322.05259 119.898761 
z
" clip-path="url(#p02dedd2681)" style="fill: #86b4d8"/>
   </g>
   <g id="patch_91">
    <path d="M 332.593322 236.700786 
L 341.025907 236.700786 
L 341.025907 119.185815 
L 332.593322 119.185815 
z
" clip-path="url(#p02dedd2681)" style="fill: #86b4d8"/>
   </g>
   <g id="patch_92">
    <path d="M 343.134054 236.700786 
L 351.566639 236.700786 
L 351.566639 118.474421 
L 343.134054 118.474421 
z
" clip-path="url(#p02dedd2681)" style="fill: #86b4d8"/>
   </g>
   <g id="patch_93">
    <path d="M 353.674786 236.700786 
L 362.107371 236.700786 
L 362.107371 117.761475 
L 353.674786 117.761475 
z
" clip-path="url(#p02dedd2681)" style="fill: #86b4d8"/>
   </g>
   <g id="patch_94">
    <path d="M 364.215518 236.700786 
L 372.648103 236.700786 
L 372.648103 117.048584 
L 364.215518 117.048584 
z
" clip-path="url(#p02dedd2681)" style="fill: #86b4d8"/>
   </g>
   <g id="patch_95">
    <path d="M 374.75625 236.700786 
L 383.188835 236.700786 
L 383.188835 116.335638 
L 374.75625 116.335638 
z
" clip-path="url(#p02dedd2681)" style="fill: #86b4d8"/>
   </g>
   <g id="patch_96">
    <path d="M 58.53429 170.765765 
L 66.966875 170.765765 
L 66.966875 170.765765 
L 58.53429 170.765765 
z
" clip-path="url(#p02dedd2681)" style="fill: #d27a78"/>
   </g>
   <g id="patch_97">
    <path d="M 69.075022 170.765765 
L 77.507607 170.765765 
L 77.507607 170.765765 
L 69.075022 170.765765 
z
" clip-path="url(#p02dedd2681)" style="fill: #d27a78"/>
   </g>
   <g id="patch_98">
    <path d="M 79.615754 170.765765 
L 88.048339 170.765765 
L 88.048339 170.765765 
L 79.615754 170.765765 
z
" clip-path="url(#p02dedd2681)" style="fill: #d27a78"/>
   </g>
   <g id="patch_99">
    <path d="M 90.156486 170.765765 
L 98.589071 170.765765 
L 98.589071 170.765765 
L 90.156486 170.765765 
z
" clip-path="url(#p02dedd2681)" style="fill: #d27a78"/>
   </g>
   <g id="patch_100">
    <path d="M 100.697218 170.765765 
L 109.129803 170.765765 
L 109.129803 167.331043 
L 100.697218 167.331043 
z
" clip-path="url(#p02dedd2681)" style="fill: #d27a78"/>
   </g>
   <g id="patch_101">
    <path d="M 111.23795 164.101589 
L 119.670535 164.101589 
L 119.670535 164.101589 
L 111.23795 164.101589 
z
" clip-path="url(#p02dedd2681)" style="fill: #d27a78"/>
   </g>
   <g id="patch_102">
    <path d="M 121.778682 158.780677 
L 130.211267 158.780677 
L 130.211267 158.780677 
L 121.778682 158.780677 
z
" clip-path="url(#p02dedd2681)" style="fill: #d27a78"/>
   </g>
   <g id="patch_103">
    <path d="M 132.319414 155.594282 
L 140.751999 155.594282 
L 140.751999 155.594282 
L 132.319414 155.594282 
z
" clip-path="url(#p02dedd2681)" style="fill: #d27a78"/>
   </g>
   <g id="patch_104">
    <path d="M 142.860146 152.666243 
L 151.292731 152.666243 
L 151.292731 152.666243 
L 142.860146 152.666243 
z
" clip-path="url(#p02dedd2681)" style="fill: #d27a78"/>
   </g>
   <g id="patch_105">
    <path d="M 153.400878 149.830474 
L 161.833463 149.830474 
L 161.833463 149.830474 
L 153.400878 149.830474 
z
" clip-path="url(#p02dedd2681)" style="fill: #d27a78"/>
   </g>
   <g id="patch_106">
    <path d="M 163.94161 145.924371 
L 172.374195 145.924371 
L 172.374195 145.924371 
L 163.94161 145.924371 
z
" clip-path="url(#p02dedd2681)" style="fill: #d27a78"/>
   </g>
   <g id="patch_107">
    <path d="M 174.482342 141.624583 
L 182.914927 141.624583 
L 182.914927 141.624583 
L 174.482342 141.624583 
z
" clip-path="url(#p02dedd2681)" style="fill: #d27a78"/>
   </g>
   <g id="patch_108">
    <path d="M 185.023074 137.44167 
L 193.455659 137.44167 
L 193.455659 137.44167 
L 185.023074 137.44167 
z
" clip-path="url(#p02dedd2681)" style="fill: #d27a78"/>
   </g>
   <g id="patch_109">
    <path d="M 195.563806 134.568993 
L 203.996391 134.568993 
L 203.996391 134.568993 
L 195.563806 134.568993 
z
" clip-path="url(#p02dedd2681)" style="fill: #d27a78"/>
   </g>
   <g id="patch_110">
    <path d="M 206.104538 132.03464 
L 214.537123 132.03464 
L 214.537123 132.03464 
L 206.104538 132.03464 
z
" clip-path="url(#p02dedd2681)" style="fill: #d27a78"/>
   </g>
   <g id="patch_111">
    <path d="M 216.64527 129.004965 
L 225.077855 129.004965 
L 225.077855 129.004965 
L 216.64527 129.004965 
z
" clip-path="url(#p02dedd2681)" style="fill: #d27a78"/>
   </g>
   <g id="patch_112">
    <path d="M 227.186002 126.298374 
L 235.618587 126.298374 
L 235.618587 126.298374 
L 227.186002 126.298374 
z
" clip-path="url(#p02dedd2681)" style="fill: #d27a78"/>
   </g>
   <g id="patch_113">
    <path d="M 237.726734 122.804356 
L 246.159319 122.804356 
L 246.159319 122.804356 
L 237.726734 122.804356 
z
" clip-path="url(#p02dedd2681)" style="fill: #d27a78"/>
   </g>
   <g id="patch_114">
    <path d="M 248.267466 119.898761 
L 256.700051 119.898761 
L 256.700051 119.898761 
L 248.267466 119.898761 
z
" clip-path="url(#p02dedd2681)" style="fill: #d27a78"/>
   </g>
   <g id="patch_115">
    <path d="M 258.808198 119.898761 
L 267.240783 119.898761 
L 267.240783 119.898761 
L 258.808198 119.898761 
z
" clip-path="url(#p02dedd2681)" style="fill: #d27a78"/>
   </g>
   <g id="patch_116">
    <path d="M 269.34893 119.898761 
L 277.781515 119.898761 
L 277.781515 119.898761 
L 269.34893 119.898761 
z
" clip-path="url(#p02dedd2681)" style="fill: #d27a78"/>
   </g>
   <g id="patch_117">
    <path d="M 279.889662 119.898761 
L 288.322247 119.898761 
L 288.322247 119.898761 
L 279.889662 119.898761 
z
" clip-path="url(#p02dedd2681)" style="fill: #d27a78"/>
   </g>
   <g id="patch_118">
    <path d="M 290.430394 119.898761 
L 298.862979 119.898761 
L 298.862979 119.898761 
L 290.430394 119.898761 
z
" clip-path="url(#p02dedd2681)" style="fill: #d27a78"/>
   </g>
   <g id="patch_119">
    <path d="M 300.971126 119.898761 
L 309.403711 119.898761 
L 309.403711 119.898761 
L 300.971126 119.898761 
z
" clip-path="url(#p02dedd2681)" style="fill: #d27a78"/>
   </g>
   <g id="patch_120">
    <path d="M 311.511858 119.898761 
L 319.944443 119.898761 
L 319.944443 119.898761 
L 311.511858 119.898761 
z
" clip-path="url(#p02dedd2681)" style="fill: #d27a78"/>
   </g>
   <g id="patch_121">
    <path d="M 322.05259 119.898761 
L 330.485175 119.898761 
L 330.485175 119.898761 
L 322.05259 119.898761 
z
" clip-path="url(#p02dedd2681)" style="fill: #d27a78"/>
   </g>
   <g id="patch_122">
    <path d="M 332.593322 119.185815 
L 341.025907 119.185815 
L 341.025907 119.185815 
L 332.593322 119.185815 
z
" clip-path="url(#p02dedd2681)" style="fill: #d27a78"/>
   </g>
   <g id="patch_123">
    <path d="M 343.134054 118.474421 
L 351.566639 118.474421 
L 351.566639 118.474421 
L 343.134054 118.474421 
z
" clip-path="url(#p02dedd2681)" style="fill: #d27a78"/>
   </g>
   <g id="patch_124">
    <path d="M 353.674786 117.761475 
L 362.107371 117.761475 
L 362.107371 117.761475 
L 353.674786 117.761475 
z
" clip-path="url(#p02dedd2681)" style="fill: #d27a78"/>
   </g>
   <g id="patch_125">
    <path d="M 364.215518 117.048584 
L 372.648103 117.048584 
L 372.648103 117.048584 
L 364.215518 117.048584 
z
" clip-path="url(#p02dedd2681)" style="fill: #d27a78"/>
   </g>
   <g id="patch_126">
    <path d="M 374.75625 116.335638 
L 383.188835 116.335638 
L 383.188835 116.335638 
L 374.75625 116.335638 
z
" clip-path="url(#p02dedd2681)" style="fill: #d27a78"/>
   </g>
   <g id="patch_127">
    <path d="M 58.53429 170.765765 
L 66.966875 170.765765 
L 66.966875 170.762717 
L 58.53429 170.762717 
z
" clip-path="url(#p02dedd2681)" style="fill: #fee566"/>
   </g>
   <g id="patch_128">
    <path d="M 69.075022 170.765765 
L 77.507607 170.765765 
L 77.507607 170.762717 
L 69.075022 170.762717 
z
" clip-path="url(#p02dedd2681)" style="fill: #fee566"/>
   </g>
   <g id="patch_129">
    <path d="M 79.615754 170.765765 
L 88.048339 170.765765 
L 88.048339 170.762717 
L 79.615754 170.762717 
z
" clip-path="url(#p02dedd2681)" style="fill: #fee566"/>
   </g>
   <g id="patch_130">
    <path d="M 90.156486 170.765765 
L 98.589071 170.765765 
L 98.589071 170.762717 
L 90.156486 170.762717 
z
" clip-path="url(#p02dedd2681)" style="fill: #fee566"/>
   </g>
   <g id="patch_131">
    <path d="M 100.697218 167.331043 
L 109.129803 167.331043 
L 109.129803 167.327995 
L 100.697218 167.327995 
z
" clip-path="url(#p02dedd2681)" style="fill: #fee566"/>
   </g>
   <g id="patch_132">
    <path d="M 111.23795 164.101589 
L 119.670535 164.101589 
L 119.670535 164.098541 
L 111.23795 164.098541 
z
" clip-path="url(#p02dedd2681)" style="fill: #fee566"/>
   </g>
   <g id="patch_133">
    <path d="M 121.778682 158.780677 
L 130.211267 158.780677 
L 130.211267 158.777629 
L 121.778682 158.777629 
z
" clip-path="url(#p02dedd2681)" style="fill: #fee566"/>
   </g>
   <g id="patch_134">
    <path d="M 132.319414 155.594282 
L 140.751999 155.594282 
L 140.751999 155.591234 
L 132.319414 155.591234 
z
" clip-path="url(#p02dedd2681)" style="fill: #fee566"/>
   </g>
   <g id="patch_135">
    <path d="M 142.860146 152.666243 
L 151.292731 152.666243 
L 151.292731 152.663195 
L 142.860146 152.663195 
z
" clip-path="url(#p02dedd2681)" style="fill: #fee566"/>
   </g>
   <g id="patch_136">
    <path d="M 153.400878 149.830474 
L 161.833463 149.830474 
L 161.833463 149.827426 
L 153.400878 149.827426 
z
" clip-path="url(#p02dedd2681)" style="fill: #fee566"/>
   </g>
   <g id="patch_137">
    <path d="M 163.94161 145.924371 
L 172.374195 145.924371 
L 172.374195 145.921323 
L 163.94161 145.921323 
z
" clip-path="url(#p02dedd2681)" style="fill: #fee566"/>
   </g>
   <g id="patch_138">
    <path d="M 174.482342 141.624583 
L 182.914927 141.624583 
L 182.914927 141.621535 
L 174.482342 141.621535 
z
" clip-path="url(#p02dedd2681)" style="fill: #fee566"/>
   </g>
   <g id="patch_139">
    <path d="M 185.023074 137.44167 
L 193.455659 137.44167 
L 193.455659 137.438622 
L 185.023074 137.438622 
z
" clip-path="url(#p02dedd2681)" style="fill: #fee566"/>
   </g>
   <g id="patch_140">
    <path d="M 195.563806 134.568993 
L 203.996391 134.568993 
L 203.996391 134.565945 
L 195.563806 134.565945 
z
" clip-path="url(#p02dedd2681)" style="fill: #fee566"/>
   </g>
   <g id="patch_141">
    <path d="M 206.104538 132.03464 
L 214.537123 132.03464 
L 214.537123 132.031592 
L 206.104538 132.031592 
z
" clip-path="url(#p02dedd2681)" style="fill: #fee566"/>
   </g>
   <g id="patch_142">
    <path d="M 216.64527 129.004965 
L 225.077855 129.004965 
L 225.077855 129.001917 
L 216.64527 129.001917 
z
" clip-path="url(#p02dedd2681)" style="fill: #fee566"/>
   </g>
   <g id="patch_143">
    <path d="M 227.186002 126.298374 
L 235.618587 126.298374 
L 235.618587 126.295326 
L 227.186002 126.295326 
z
" clip-path="url(#p02dedd2681)" style="fill: #fee566"/>
   </g>
   <g id="patch_144">
    <path d="M 237.726734 122.804356 
L 246.159319 122.804356 
L 246.159319 122.801308 
L 237.726734 122.801308 
z
" clip-path="url(#p02dedd2681)" style="fill: #fee566"/>
   </g>
   <g id="patch_145">
    <path d="M 248.267466 119.898761 
L 256.700051 119.898761 
L 256.700051 118.955112 
L 248.267466 118.955112 
z
" clip-path="url(#p02dedd2681)" style="fill: #fee566"/>
   </g>
   <g id="patch_146">
    <path d="M 258.808198 119.898761 
L 267.240783 119.898761 
L 267.240783 117.301731 
L 258.808198 117.301731 
z
" clip-path="url(#p02dedd2681)" style="fill: #fee566"/>
   </g>
   <g id="patch_147">
    <path d="M 269.34893 119.898761 
L 277.781515 119.898761 
L 277.781515 117.301731 
L 269.34893 117.301731 
z
" clip-path="url(#p02dedd2681)" style="fill: #fee566"/>
   </g>
   <g id="patch_148">
    <path d="M 279.889662 119.898761 
L 288.322247 119.898761 
L 288.322247 117.304779 
L 279.889662 117.304779 
z
" clip-path="url(#p02dedd2681)" style="fill: #fee566"/>
   </g>
   <g id="patch_149">
    <path d="M 290.430394 119.898761 
L 298.862979 119.898761 
L 298.862979 117.304779 
L 290.430394 117.304779 
z
" clip-path="url(#p02dedd2681)" style="fill: #fee566"/>
   </g>
   <g id="patch_150">
    <path d="M 300.971126 119.898761 
L 309.403711 119.898761 
L 309.403711 117.304779 
L 300.971126 117.304779 
z
" clip-path="url(#p02dedd2681)" style="fill: #fee566"/>
   </g>
   <g id="patch_151">
    <path d="M 311.511858 119.898761 
L 319.944443 119.898761 
L 319.944443 117.304779 
L 311.511858 117.304779 
z
" clip-path="url(#p02dedd2681)" style="fill: #fee566"/>
   </g>
   <g id="patch_152">
    <path d="M 322.05259 119.898761 
L 330.485175 119.898761 
L 330.485175 117.304779 
L 322.05259 117.304779 
z
" clip-path="url(#p02dedd2681)" style="fill: #fee566"/>
   </g>
   <g id="patch_153">
    <path d="M 332.593322 119.185815 
L 341.025907 119.185815 
L 341.025907 116.591833 
L 332.593322 116.591833 
z
" clip-path="url(#p02dedd2681)" style="fill: #fee566"/>
   </g>
   <g id="patch_154">
    <path d="M 343.134054 118.474421 
L 351.566639 118.474421 
L 351.566639 115.880438 
L 343.134054 115.880438 
z
" clip-path="url(#p02dedd2681)" style="fill: #fee566"/>
   </g>
   <g id="patch_155">
    <path d="M 353.674786 117.761475 
L 362.107371 117.761475 
L 362.107371 115.167492 
L 353.674786 115.167492 
z
" clip-path="url(#p02dedd2681)" style="fill: #fee566"/>
   </g>
   <g id="patch_156">
    <path d="M 364.215518 117.048584 
L 372.648103 117.048584 
L 372.648103 114.454602 
L 364.215518 114.454602 
z
" clip-path="url(#p02dedd2681)" style="fill: #fee566"/>
   </g>
   <g id="patch_157">
    <path d="M 374.75625 116.335638 
L 383.188835 116.335638 
L 383.188835 113.741655 
L 374.75625 113.741655 
z
" clip-path="url(#p02dedd2681)" style="fill: #fee566"/>
   </g>
   <g id="patch_158">
    <path d="M 58.53429 170.762717 
L 66.966875 170.762717 
L 66.966875 170.762717 
L 58.53429 170.762717 
z
" clip-path="url(#p02dedd2681)" style="fill: #b3b3b3"/>
   </g>
   <g id="patch_159">
    <path d="M 69.075022 170.762717 
L 77.507607 170.762717 
L 77.507607 170.762717 
L 69.075022 170.762717 
z
" clip-path="url(#p02dedd2681)" style="fill: #b3b3b3"/>
   </g>
   <g id="patch_160">
    <path d="M 79.615754 170.762717 
L 88.048339 170.762717 
L 88.048339 170.762717 
L 79.615754 170.762717 
z
" clip-path="url(#p02dedd2681)" style="fill: #b3b3b3"/>
   </g>
   <g id="patch_161">
    <path d="M 90.156486 170.762717 
L 98.589071 170.762717 
L 98.589071 170.762717 
L 90.156486 170.762717 
z
" clip-path="url(#p02dedd2681)" style="fill: #b3b3b3"/>
   </g>
   <g id="patch_162">
    <path d="M 100.697218 167.327995 
L 109.129803 167.327995 
L 109.129803 167.327995 
L 100.697218 167.327995 
z
" clip-path="url(#p02dedd2681)" style="fill: #b3b3b3"/>
   </g>
   <g id="patch_163">
    <path d="M 111.23795 164.098541 
L 119.670535 164.098541 
L 119.670535 164.098541 
L 111.23795 164.098541 
z
" clip-path="url(#p02dedd2681)" style="fill: #b3b3b3"/>
   </g>
   <g id="patch_164">
    <path d="M 121.778682 158.777629 
L 130.211267 158.777629 
L 130.211267 158.777629 
L 121.778682 158.777629 
z
" clip-path="url(#p02dedd2681)" style="fill: #b3b3b3"/>
   </g>
   <g id="patch_165">
    <path d="M 132.319414 155.591234 
L 140.751999 155.591234 
L 140.751999 155.591234 
L 132.319414 155.591234 
z
" clip-path="url(#p02dedd2681)" style="fill: #b3b3b3"/>
   </g>
   <g id="patch_166">
    <path d="M 142.860146 152.663195 
L 151.292731 152.663195 
L 151.292731 152.663195 
L 142.860146 152.663195 
z
" clip-path="url(#p02dedd2681)" style="fill: #b3b3b3"/>
   </g>
   <g id="patch_167">
    <path d="M 153.400878 149.827426 
L 161.833463 149.827426 
L 161.833463 149.827426 
L 153.400878 149.827426 
z
" clip-path="url(#p02dedd2681)" style="fill: #b3b3b3"/>
   </g>
   <g id="patch_168">
    <path d="M 163.94161 145.921323 
L 172.374195 145.921323 
L 172.374195 145.921323 
L 163.94161 145.921323 
z
" clip-path="url(#p02dedd2681)" style="fill: #b3b3b3"/>
   </g>
   <g id="patch_169">
    <path d="M 174.482342 141.621535 
L 182.914927 141.621535 
L 182.914927 141.621535 
L 174.482342 141.621535 
z
" clip-path="url(#p02dedd2681)" style="fill: #b3b3b3"/>
   </g>
   <g id="patch_170">
    <path d="M 185.023074 137.438622 
L 193.455659 137.438622 
L 193.455659 137.438622 
L 185.023074 137.438622 
z
" clip-path="url(#p02dedd2681)" style="fill: #b3b3b3"/>
   </g>
   <g id="patch_171">
    <path d="M 195.563806 134.565945 
L 203.996391 134.565945 
L 203.996391 134.565945 
L 195.563806 134.565945 
z
" clip-path="url(#p02dedd2681)" style="fill: #b3b3b3"/>
   </g>
   <g id="patch_172">
    <path d="M 206.104538 132.031592 
L 214.537123 132.031592 
L 214.537123 132.031592 
L 206.104538 132.031592 
z
" clip-path="url(#p02dedd2681)" style="fill: #b3b3b3"/>
   </g>
   <g id="patch_173">
    <path d="M 216.64527 129.001917 
L 225.077855 129.001917 
L 225.077855 129.001917 
L 216.64527 129.001917 
z
" clip-path="url(#p02dedd2681)" style="fill: #b3b3b3"/>
   </g>
   <g id="patch_174">
    <path d="M 227.186002 126.295326 
L 235.618587 126.295326 
L 235.618587 126.295326 
L 227.186002 126.295326 
z
" clip-path="url(#p02dedd2681)" style="fill: #b3b3b3"/>
   </g>
   <g id="patch_175">
    <path d="M 237.726734 122.801308 
L 246.159319 122.801308 
L 246.159319 122.801308 
L 237.726734 122.801308 
z
" clip-path="url(#p02dedd2681)" style="fill: #b3b3b3"/>
   </g>
   <g id="patch_176">
    <path d="M 248.267466 118.955112 
L 256.700051 118.955112 
L 256.700051 118.955112 
L 248.267466 118.955112 
z
" clip-path="url(#p02dedd2681)" style="fill: #b3b3b3"/>
   </g>
   <g id="patch_177">
    <path d="M 258.808198 117.301731 
L 267.240783 117.301731 
L 267.240783 115.415874 
L 258.808198 115.415874 
z
" clip-path="url(#p02dedd2681)" style="fill: #b3b3b3"/>
   </g>
   <g id="patch_178">
    <path d="M 269.34893 117.301731 
L 277.781515 117.301731 
L 277.781515 112.493986 
L 269.34893 112.493986 
z
" clip-path="url(#p02dedd2681)" style="fill: #b3b3b3"/>
   </g>
   <g id="patch_179">
    <path d="M 279.889662 117.304779 
L 288.322247 117.304779 
L 288.322247 109.282985 
L 279.889662 109.282985 
z
" clip-path="url(#p02dedd2681)" style="fill: #b3b3b3"/>
   </g>
   <g id="patch_180">
    <path d="M 290.430394 117.304779 
L 298.862979 117.304779 
L 298.862979 106.336492 
L 290.430394 106.336492 
z
" clip-path="url(#p02dedd2681)" style="fill: #b3b3b3"/>
   </g>
   <g id="patch_181">
    <path d="M 300.971126 117.304779 
L 309.403711 117.304779 
L 309.403711 102.036925 
L 300.971126 102.036925 
z
" clip-path="url(#p02dedd2681)" style="fill: #b3b3b3"/>
   </g>
   <g id="patch_182">
    <path d="M 311.511858 117.304779 
L 319.944443 117.304779 
L 319.944443 99.096583 
L 311.511858 99.096583 
z
" clip-path="url(#p02dedd2681)" style="fill: #b3b3b3"/>
   </g>
   <g id="patch_183">
    <path d="M 322.05259 117.304779 
L 330.485175 117.304779 
L 330.485175 96.00135 
L 322.05259 96.00135 
z
" clip-path="url(#p02dedd2681)" style="fill: #b3b3b3"/>
   </g>
   <g id="patch_184">
    <path d="M 332.593322 116.591833 
L 341.025907 116.591833 
L 341.025907 93.054857 
L 332.593322 93.054857 
z
" clip-path="url(#p02dedd2681)" style="fill: #b3b3b3"/>
   </g>
   <g id="patch_185">
    <path d="M 343.134054 115.880438 
L 351.566639 115.880438 
L 351.566639 90.114515 
L 343.134054 90.114515 
z
" clip-path="url(#p02dedd2681)" style="fill: #b3b3b3"/>
   </g>
   <g id="patch_186">
    <path d="M 353.674786 115.167492 
L 362.107371 115.167492 
L 362.107371 87.168022 
L 353.674786 87.168022 
z
" clip-path="url(#p02dedd2681)" style="fill: #b3b3b3"/>
   </g>
   <g id="patch_187">
    <path d="M 364.215518 114.454602 
L 372.648103 114.454602 
L 372.648103 84.221529 
L 364.215518 84.221529 
z
" clip-path="url(#p02dedd2681)" style="fill: #b3b3b3"/>
   </g>
   <g id="patch_188">
    <path d="M 374.75625 113.741655 
L 383.188835 113.741655 
L 383.188835 81.275036 
L 374.75625 81.275036 
z
" clip-path="url(#p02dedd2681)" style="fill: #b3b3b3"/>
   </g>
   <g id="patch_189">
    <path d="M 58.53429 170.762717 
L 66.966875 170.762717 
L 66.966875 145.184104 
L 58.53429 145.184104 
z
" clip-path="url(#p02dedd2681)" style="fill: #ddb3f9"/>
   </g>
   <g id="patch_190">
    <path d="M 69.075022 170.762717 
L 77.507607 170.762717 
L 77.507607 142.975772 
L 69.075022 142.975772 
z
" clip-path="url(#p02dedd2681)" style="fill: #ddb3f9"/>
   </g>
   <g id="patch_191">
    <path d="M 79.615754 170.762717 
L 88.048339 170.762717 
L 88.048339 140.835105 
L 79.615754 140.835105 
z
" clip-path="url(#p02dedd2681)" style="fill: #ddb3f9"/>
   </g>
   <g id="patch_192">
    <path d="M 90.156486 170.762717 
L 98.589071 170.762717 
L 98.589071 138.516049 
L 90.156486 138.516049 
z
" clip-path="url(#p02dedd2681)" style="fill: #ddb3f9"/>
   </g>
   <g id="patch_193">
    <path d="M 100.697218 167.327995 
L 109.129803 167.327995 
L 109.129803 128.993771 
L 100.697218 128.993771 
z
" clip-path="url(#p02dedd2681)" style="fill: #ddb3f9"/>
   </g>
   <g id="patch_194">
    <path d="M 111.23795 164.098541 
L 119.670535 164.098541 
L 119.670535 125.764316 
L 111.23795 125.764316 
z
" clip-path="url(#p02dedd2681)" style="fill: #ddb3f9"/>
   </g>
   <g id="patch_195">
    <path d="M 121.778682 158.777629 
L 130.211267 158.777629 
L 130.211267 120.443405 
L 121.778682 120.443405 
z
" clip-path="url(#p02dedd2681)" style="fill: #ddb3f9"/>
   </g>
   <g id="patch_196">
    <path d="M 132.319414 155.591234 
L 140.751999 155.591234 
L 140.751999 117.257009 
L 132.319414 117.257009 
z
" clip-path="url(#p02dedd2681)" style="fill: #ddb3f9"/>
   </g>
   <g id="patch_197">
    <path d="M 142.860146 152.663195 
L 151.292731 152.663195 
L 151.292731 114.32897 
L 142.860146 114.32897 
z
" clip-path="url(#p02dedd2681)" style="fill: #ddb3f9"/>
   </g>
   <g id="patch_198">
    <path d="M 153.400878 149.827426 
L 161.833463 149.827426 
L 161.833463 111.493201 
L 153.400878 111.493201 
z
" clip-path="url(#p02dedd2681)" style="fill: #ddb3f9"/>
   </g>
   <g id="patch_199">
    <path d="M 163.94161 145.921323 
L 172.374195 145.921323 
L 172.374195 107.587099 
L 163.94161 107.587099 
z
" clip-path="url(#p02dedd2681)" style="fill: #ddb3f9"/>
   </g>
   <g id="patch_200">
    <path d="M 174.482342 141.621535 
L 182.914927 141.621535 
L 182.914927 103.28731 
L 174.482342 103.28731 
z
" clip-path="url(#p02dedd2681)" style="fill: #ddb3f9"/>
   </g>
   <g id="patch_201">
    <path d="M 185.023074 137.438622 
L 193.455659 137.438622 
L 193.455659 99.104397 
L 185.023074 99.104397 
z
" clip-path="url(#p02dedd2681)" style="fill: #ddb3f9"/>
   </g>
   <g id="patch_202">
    <path d="M 195.563806 134.565945 
L 203.996391 134.565945 
L 203.996391 96.23172 
L 195.563806 96.23172 
z
" clip-path="url(#p02dedd2681)" style="fill: #ddb3f9"/>
   </g>
   <g id="patch_203">
    <path d="M 206.104538 132.031592 
L 214.537123 132.031592 
L 214.537123 93.697367 
L 206.104538 93.697367 
z
" clip-path="url(#p02dedd2681)" style="fill: #ddb3f9"/>
   </g>
   <g id="patch_204">
    <path d="M 216.64527 129.001917 
L 225.077855 129.001917 
L 225.077855 91.05229 
L 216.64527 91.05229 
z
" clip-path="url(#p02dedd2681)" style="fill: #ddb3f9"/>
   </g>
   <g id="patch_205">
    <path d="M 227.186002 126.295326 
L 235.618587 126.295326 
L 235.618587 88.345699 
L 227.186002 88.345699 
z
" clip-path="url(#p02dedd2681)" style="fill: #ddb3f9"/>
   </g>
   <g id="patch_206">
    <path d="M 237.726734 122.801308 
L 246.159319 122.801308 
L 246.159319 85.577595 
L 237.726734 85.577595 
z
" clip-path="url(#p02dedd2681)" style="fill: #ddb3f9"/>
   </g>
   <g id="patch_207">
    <path d="M 248.267466 118.955112 
L 256.700051 118.955112 
L 256.700051 82.66801 
L 248.267466 82.66801 
z
" clip-path="url(#p02dedd2681)" style="fill: #ddb3f9"/>
   </g>
   <g id="patch_208">
    <path d="M 258.808198 115.415874 
L 267.240783 115.415874 
L 267.240783 79.752274 
L 258.808198 79.752274 
z
" clip-path="url(#p02dedd2681)" style="fill: #ddb3f9"/>
   </g>
   <g id="patch_209">
    <path d="M 269.34893 112.493986 
L 277.781515 112.493986 
L 277.781515 76.830386 
L 269.34893 76.830386 
z
" clip-path="url(#p02dedd2681)" style="fill: #ddb3f9"/>
   </g>
   <g id="patch_210">
    <path d="M 279.889662 109.282985 
L 288.322247 109.282985 
L 288.322247 73.619385 
L 279.889662 73.619385 
z
" clip-path="url(#p02dedd2681)" style="fill: #ddb3f9"/>
   </g>
   <g id="patch_211">
    <path d="M 290.430394 106.336492 
L 298.862979 106.336492 
L 298.862979 70.672892 
L 290.430394 70.672892 
z
" clip-path="url(#p02dedd2681)" style="fill: #ddb3f9"/>
   </g>
   <g id="patch_212">
    <path d="M 300.971126 102.036925 
L 309.403711 102.036925 
L 309.403711 67.726399 
L 300.971126 67.726399 
z
" clip-path="url(#p02dedd2681)" style="fill: #ddb3f9"/>
   </g>
   <g id="patch_213">
    <path d="M 311.511858 99.096583 
L 319.944443 99.096583 
L 319.944443 64.786057 
L 311.511858 64.786057 
z
" clip-path="url(#p02dedd2681)" style="fill: #ddb3f9"/>
   </g>
   <g id="patch_214">
    <path d="M 322.05259 96.00135 
L 330.485175 96.00135 
L 330.485175 61.839564 
L 322.05259 61.839564 
z
" clip-path="url(#p02dedd2681)" style="fill: #ddb3f9"/>
   </g>
   <g id="patch_215">
    <path d="M 332.593322 93.054857 
L 341.025907 93.054857 
L 341.025907 58.893071 
L 332.593322 58.893071 
z
" clip-path="url(#p02dedd2681)" style="fill: #ddb3f9"/>
   </g>
   <g id="patch_216">
    <path d="M 343.134054 90.114515 
L 351.566639 90.114515 
L 351.566639 55.952729 
L 343.134054 55.952729 
z
" clip-path="url(#p02dedd2681)" style="fill: #ddb3f9"/>
   </g>
   <g id="patch_217">
    <path d="M 353.674786 87.168022 
L 362.107371 87.168022 
L 362.107371 53.006236 
L 353.674786 53.006236 
z
" clip-path="url(#p02dedd2681)" style="fill: #ddb3f9"/>
   </g>
   <g id="patch_218">
    <path d="M 364.215518 84.221529 
L 372.648103 84.221529 
L 372.648103 50.059743 
L 364.215518 50.059743 
z
" clip-path="url(#p02dedd2681)" style="fill: #ddb3f9"/>
   </g>
   <g id="patch_219">
    <path d="M 374.75625 81.275036 
L 383.188835 81.275036 
L 383.188835 47.11325 
L 374.75625 47.11325 
z
" clip-path="url(#p02dedd2681)" style="fill: #ddb3f9"/>
   </g>
   <g id="matplotlib.axis_1">
    <g id="xtick_1">
     <g id="line2d_1">
      <path d="M 62.750583 289.03325 
L 62.750583 22.92125 
" clip-path="url(#p02dedd2681)" style="fill: none; stroke: #b0b0b0; stroke-width: 0.8; stroke-linecap: square"/>
     </g>
     <g id="line2d_2">
      <defs>
       <path id="mdf0316ded7" d="M 0 0 
L 0 3.5 
" style="stroke: #000000; stroke-width: 0.8"/>
      </defs>
      <g>
       <use xlink:href="#mdf0316ded7" x="62.750583" y="289.03325" style="stroke: #000000; stroke-width: 0.8"/>
      </g>
     </g>
     <g id="text_1">
      <!-- 2020 -->
      <g transform="translate(52.750583 302.977) scale(0.1 -0.1)">
       <defs>
        <path id="TimesNewRomanPSMT-32" d="M 2934 816 
L 2638 0 
L 138 0 
L 138 116 
Q 1241 1122 1691 1759 
Q 2141 2397 2141 2925 
Q 2141 3328 1894 3587 
Q 1647 3847 1303 3847 
Q 991 3847 742 3664 
Q 494 3481 375 3128 
L 259 3128 
Q 338 3706 661 4015 
Q 984 4325 1469 4325 
Q 1984 4325 2329 3994 
Q 2675 3663 2675 3213 
Q 2675 2891 2525 2569 
Q 2294 2063 1775 1497 
Q 997 647 803 472 
L 1909 472 
Q 2247 472 2383 497 
Q 2519 522 2628 598 
Q 2738 675 2819 816 
L 2934 816 
z
" transform="scale(0.015625)"/>
        <path id="TimesNewRomanPSMT-30" d="M 231 2094 
Q 231 2819 450 3342 
Q 669 3866 1031 4122 
Q 1313 4325 1613 4325 
Q 2100 4325 2488 3828 
Q 2972 3213 2972 2159 
Q 2972 1422 2759 906 
Q 2547 391 2217 158 
Q 1888 -75 1581 -75 
Q 975 -75 572 641 
Q 231 1244 231 2094 
z
M 844 2016 
Q 844 1141 1059 588 
Q 1238 122 1591 122 
Q 1759 122 1940 273 
Q 2122 425 2216 781 
Q 2359 1319 2359 2297 
Q 2359 3022 2209 3506 
Q 2097 3866 1919 4016 
Q 1791 4119 1609 4119 
Q 1397 4119 1231 3928 
Q 1006 3669 925 3112 
Q 844 2556 844 2016 
z
" transform="scale(0.015625)"/>
       </defs>
       <use xlink:href="#TimesNewRomanPSMT-32"/>
       <use xlink:href="#TimesNewRomanPSMT-30" x="50"/>
       <use xlink:href="#TimesNewRomanPSMT-32" x="100"/>
       <use xlink:href="#TimesNewRomanPSMT-30" x="150"/>
      </g>
     </g>
    </g>
    <g id="xtick_2">
     <g id="line2d_3">
      <path d="M 115.454243 289.03325 
L 115.454243 22.92125 
" clip-path="url(#p02dedd2681)" style="fill: none; stroke: #b0b0b0; stroke-width: 0.8; stroke-linecap: square"/>
     </g>
     <g id="line2d_4">
      <g>
       <use xlink:href="#mdf0316ded7" x="115.454243" y="289.03325" style="stroke: #000000; stroke-width: 0.8"/>
      </g>
     </g>
     <g id="text_2">
      <!-- 2025 -->
      <g transform="translate(105.454243 302.977) scale(0.1 -0.1)">
       <defs>
        <path id="TimesNewRomanPSMT-35" d="M 2778 4238 
L 2534 3706 
L 1259 3706 
L 981 3138 
Q 1809 3016 2294 2522 
Q 2709 2097 2709 1522 
Q 2709 1188 2573 903 
Q 2438 619 2231 419 
Q 2025 219 1772 97 
Q 1413 -75 1034 -75 
Q 653 -75 479 54 
Q 306 184 306 341 
Q 306 428 378 495 
Q 450 563 559 563 
Q 641 563 702 538 
Q 763 513 909 409 
Q 1144 247 1384 247 
Q 1750 247 2026 523 
Q 2303 800 2303 1197 
Q 2303 1581 2056 1914 
Q 1809 2247 1375 2428 
Q 1034 2569 447 2591 
L 1259 4238 
L 2778 4238 
z
" transform="scale(0.015625)"/>
       </defs>
       <use xlink:href="#TimesNewRomanPSMT-32"/>
       <use xlink:href="#TimesNewRomanPSMT-30" x="50"/>
       <use xlink:href="#TimesNewRomanPSMT-32" x="100"/>
       <use xlink:href="#TimesNewRomanPSMT-35" x="150"/>
      </g>
     </g>
    </g>
    <g id="xtick_3">
     <g id="line2d_5">
      <path d="M 168.157903 289.03325 
L 168.157903 22.92125 
" clip-path="url(#p02dedd2681)" style="fill: none; stroke: #b0b0b0; stroke-width: 0.8; stroke-linecap: square"/>
     </g>
     <g id="line2d_6">
      <g>
       <use xlink:href="#mdf0316ded7" x="168.157903" y="289.03325" style="stroke: #000000; stroke-width: 0.8"/>
      </g>
     </g>
     <g id="text_3">
      <!-- 2030 -->
      <g transform="translate(158.157903 302.977) scale(0.1 -0.1)">
       <defs>
        <path id="TimesNewRomanPSMT-33" d="M 325 3431 
Q 506 3859 782 4092 
Q 1059 4325 1472 4325 
Q 1981 4325 2253 3994 
Q 2459 3747 2459 3466 
Q 2459 3003 1878 2509 
Q 2269 2356 2469 2072 
Q 2669 1788 2669 1403 
Q 2669 853 2319 450 
Q 1863 -75 997 -75 
Q 569 -75 414 31 
Q 259 138 259 259 
Q 259 350 332 419 
Q 406 488 509 488 
Q 588 488 669 463 
Q 722 447 909 348 
Q 1097 250 1169 231 
Q 1284 197 1416 197 
Q 1734 197 1970 444 
Q 2206 691 2206 1028 
Q 2206 1275 2097 1509 
Q 2016 1684 1919 1775 
Q 1784 1900 1550 2001 
Q 1316 2103 1072 2103 
L 972 2103 
L 972 2197 
Q 1219 2228 1467 2375 
Q 1716 2522 1828 2728 
Q 1941 2934 1941 3181 
Q 1941 3503 1739 3701 
Q 1538 3900 1238 3900 
Q 753 3900 428 3381 
L 325 3431 
z
" transform="scale(0.015625)"/>
       </defs>
       <use xlink:href="#TimesNewRomanPSMT-32"/>
       <use xlink:href="#TimesNewRomanPSMT-30" x="50"/>
       <use xlink:href="#TimesNewRomanPSMT-33" x="100"/>
       <use xlink:href="#TimesNewRomanPSMT-30" x="150"/>
      </g>
     </g>
    </g>
    <g id="xtick_4">
     <g id="line2d_7">
      <path d="M 220.861563 289.03325 
L 220.861563 22.92125 
" clip-path="url(#p02dedd2681)" style="fill: none; stroke: #b0b0b0; stroke-width: 0.8; stroke-linecap: square"/>
     </g>
     <g id="line2d_8">
      <g>
       <use xlink:href="#mdf0316ded7" x="220.861563" y="289.03325" style="stroke: #000000; stroke-width: 0.8"/>
      </g>
     </g>
     <g id="text_4">
      <!-- 2035 -->
      <g transform="translate(210.861563 302.977) scale(0.1 -0.1)">
       <use xlink:href="#TimesNewRomanPSMT-32"/>
       <use xlink:href="#TimesNewRomanPSMT-30" x="50"/>
       <use xlink:href="#TimesNewRomanPSMT-33" x="100"/>
       <use xlink:href="#TimesNewRomanPSMT-35" x="150"/>
      </g>
     </g>
    </g>
    <g id="xtick_5">
     <g id="line2d_9">
      <path d="M 273.565222 289.03325 
L 273.565222 22.92125 
" clip-path="url(#p02dedd2681)" style="fill: none; stroke: #b0b0b0; stroke-width: 0.8; stroke-linecap: square"/>
     </g>
     <g id="line2d_10">
      <g>
       <use xlink:href="#mdf0316ded7" x="273.565222" y="289.03325" style="stroke: #000000; stroke-width: 0.8"/>
      </g>
     </g>
     <g id="text_5">
      <!-- 2040 -->
      <g transform="translate(263.565222 302.977) scale(0.1 -0.1)">
       <defs>
        <path id="TimesNewRomanPSMT-34" d="M 2978 1563 
L 2978 1119 
L 2409 1119 
L 2409 0 
L 1894 0 
L 1894 1119 
L 100 1119 
L 100 1519 
L 2066 4325 
L 2409 4325 
L 2409 1563 
L 2978 1563 
z
M 1894 1563 
L 1894 3666 
L 406 1563 
L 1894 1563 
z
" transform="scale(0.015625)"/>
       </defs>
       <use xlink:href="#TimesNewRomanPSMT-32"/>
       <use xlink:href="#TimesNewRomanPSMT-30" x="50"/>
       <use xlink:href="#TimesNewRomanPSMT-34" x="100"/>
       <use xlink:href="#TimesNewRomanPSMT-30" x="150"/>
      </g>
     </g>
    </g>
    <g id="xtick_6">
     <g id="line2d_11">
      <path d="M 326.268882 289.03325 
L 326.268882 22.92125 
" clip-path="url(#p02dedd2681)" style="fill: none; stroke: #b0b0b0; stroke-width: 0.8; stroke-linecap: square"/>
     </g>
     <g id="line2d_12">
      <g>
       <use xlink:href="#mdf0316ded7" x="326.268882" y="289.03325" style="stroke: #000000; stroke-width: 0.8"/>
      </g>
     </g>
     <g id="text_6">
      <!-- 2045 -->
      <g transform="translate(316.268882 302.977) scale(0.1 -0.1)">
       <use xlink:href="#TimesNewRomanPSMT-32"/>
       <use xlink:href="#TimesNewRomanPSMT-30" x="50"/>
       <use xlink:href="#TimesNewRomanPSMT-34" x="100"/>
       <use xlink:href="#TimesNewRomanPSMT-35" x="150"/>
      </g>
     </g>
    </g>
    <g id="xtick_7">
     <g id="line2d_13">
      <path d="M 378.972542 289.03325 
L 378.972542 22.92125 
" clip-path="url(#p02dedd2681)" style="fill: none; stroke: #b0b0b0; stroke-width: 0.8; stroke-linecap: square"/>
     </g>
     <g id="line2d_14">
      <g>
       <use xlink:href="#mdf0316ded7" x="378.972542" y="289.03325" style="stroke: #000000; stroke-width: 0.8"/>
      </g>
     </g>
     <g id="text_7">
      <!-- 2050 -->
      <g transform="translate(368.972542 302.977) scale(0.1 -0.1)">
       <use xlink:href="#TimesNewRomanPSMT-32"/>
       <use xlink:href="#TimesNewRomanPSMT-30" x="50"/>
       <use xlink:href="#TimesNewRomanPSMT-35" x="100"/>
       <use xlink:href="#TimesNewRomanPSMT-30" x="150"/>
      </g>
     </g>
    </g>
    <g id="text_8">
     <!-- Year -->
     <g transform="translate(211.646719 316.059812) scale(0.1 -0.1)">
      <defs>
       <path id="TimesNewRomanPSMT-59" d="M 3050 4238 
L 4528 4238 
L 4528 4122 
L 4447 4122 
Q 4366 4122 4209 4050 
Q 4053 3978 3925 3843 
Q 3797 3709 3609 3406 
L 2588 1797 
L 2588 734 
Q 2588 344 2675 247 
Q 2794 116 3050 116 
L 3188 116 
L 3188 0 
L 1388 0 
L 1388 116 
L 1538 116 
Q 1806 116 1919 278 
Q 1988 378 1988 734 
L 1988 1738 
L 825 3513 
Q 619 3825 545 3903 
Q 472 3981 241 4091 
Q 178 4122 59 4122 
L 59 4238 
L 1872 4238 
L 1872 4122 
L 1778 4122 
Q 1631 4122 1507 4053 
Q 1384 3984 1384 3847 
Q 1384 3734 1575 3441 
L 2459 2075 
L 3291 3381 
Q 3478 3675 3478 3819 
Q 3478 3906 3433 3975 
Q 3388 4044 3303 4083 
Q 3219 4122 3050 4122 
L 3050 4238 
z
" transform="scale(0.015625)"/>
       <path id="TimesNewRomanPSMT-65" d="M 681 1784 
Q 678 1147 991 784 
Q 1303 422 1725 422 
Q 2006 422 2214 576 
Q 2422 731 2563 1106 
L 2659 1044 
Q 2594 616 2278 264 
Q 1963 -88 1488 -88 
Q 972 -88 605 314 
Q 238 716 238 1394 
Q 238 2128 614 2539 
Q 991 2950 1559 2950 
Q 2041 2950 2350 2633 
Q 2659 2316 2659 1784 
L 681 1784 
z
M 681 1966 
L 2006 1966 
Q 1991 2241 1941 2353 
Q 1863 2528 1708 2628 
Q 1553 2728 1384 2728 
Q 1125 2728 920 2526 
Q 716 2325 681 1966 
z
" transform="scale(0.015625)"/>
       <path id="TimesNewRomanPSMT-61" d="M 1822 413 
Q 1381 72 1269 19 
Q 1100 -59 909 -59 
Q 613 -59 420 144 
Q 228 347 228 678 
Q 228 888 322 1041 
Q 450 1253 767 1440 
Q 1084 1628 1822 1897 
L 1822 2009 
Q 1822 2438 1686 2597 
Q 1550 2756 1291 2756 
Q 1094 2756 978 2650 
Q 859 2544 859 2406 
L 866 2225 
Q 866 2081 792 2003 
Q 719 1925 600 1925 
Q 484 1925 411 2006 
Q 338 2088 338 2228 
Q 338 2497 613 2722 
Q 888 2947 1384 2947 
Q 1766 2947 2009 2819 
Q 2194 2722 2281 2516 
Q 2338 2381 2338 1966 
L 2338 994 
Q 2338 584 2353 492 
Q 2369 400 2405 369 
Q 2441 338 2488 338 
Q 2538 338 2575 359 
Q 2641 400 2828 588 
L 2828 413 
Q 2478 -56 2159 -56 
Q 2006 -56 1915 50 
Q 1825 156 1822 413 
z
M 1822 616 
L 1822 1706 
Q 1350 1519 1213 1441 
Q 966 1303 859 1153 
Q 753 1003 753 825 
Q 753 600 887 451 
Q 1022 303 1197 303 
Q 1434 303 1822 616 
z
" transform="scale(0.015625)"/>
       <path id="TimesNewRomanPSMT-72" d="M 1038 2947 
L 1038 2303 
Q 1397 2947 1775 2947 
Q 1947 2947 2059 2842 
Q 2172 2738 2172 2600 
Q 2172 2478 2090 2393 
Q 2009 2309 1897 2309 
Q 1788 2309 1652 2417 
Q 1516 2525 1450 2525 
Q 1394 2525 1328 2463 
Q 1188 2334 1038 2041 
L 1038 669 
Q 1038 431 1097 309 
Q 1138 225 1241 169 
Q 1344 113 1538 113 
L 1538 0 
L 72 0 
L 72 113 
Q 291 113 397 181 
Q 475 231 506 341 
Q 522 394 522 644 
L 522 1753 
Q 522 2253 501 2348 
Q 481 2444 426 2487 
Q 372 2531 291 2531 
Q 194 2531 72 2484 
L 41 2597 
L 906 2947 
L 1038 2947 
z
" transform="scale(0.015625)"/>
      </defs>
      <use xlink:href="#TimesNewRomanPSMT-59"/>
      <use xlink:href="#TimesNewRomanPSMT-65" x="62.216797"/>
      <use xlink:href="#TimesNewRomanPSMT-61" x="106.601562"/>
      <use xlink:href="#TimesNewRomanPSMT-72" x="150.986328"/>
     </g>
    </g>
   </g>
   <g id="matplotlib.axis_2">
    <g id="ytick_1">
     <g id="line2d_15">
      <path d="M 42.301563 289.03325 
L 399.421563 289.03325 
" clip-path="url(#p02dedd2681)" style="fill: none; stroke: #b0b0b0; stroke-width: 0.8; stroke-linecap: square"/>
     </g>
     <g id="line2d_16">
      <defs>
       <path id="m92ea393ef3" d="M 0 0 
L -3.5 0 
" style="stroke: #000000; stroke-width: 0.8"/>
      </defs>
      <g>
       <use xlink:href="#m92ea393ef3" x="42.301563" y="289.03325" style="stroke: #000000; stroke-width: 0.8"/>
      </g>
     </g>
     <g id="text_9">
      <!-- 0 -->
      <g transform="translate(30.301563 292.505125) scale(0.1 -0.1)">
       <use xlink:href="#TimesNewRomanPSMT-30"/>
      </g>
     </g>
    </g>
    <g id="ytick_2">
     <g id="line2d_17">
      <path d="M 42.301563 233.61575 
L 399.421563 233.61575 
" clip-path="url(#p02dedd2681)" style="fill: none; stroke: #b0b0b0; stroke-width: 0.8; stroke-linecap: square"/>
     </g>
     <g id="line2d_18">
      <g>
       <use xlink:href="#m92ea393ef3" x="42.301563" y="233.61575" style="stroke: #000000; stroke-width: 0.8"/>
      </g>
     </g>
     <g id="text_10">
      <!-- 100 -->
      <g transform="translate(20.301563 237.087625) scale(0.1 -0.1)">
       <defs>
        <path id="TimesNewRomanPSMT-31" d="M 750 3822 
L 1781 4325 
L 1884 4325 
L 1884 747 
Q 1884 391 1914 303 
Q 1944 216 2037 169 
Q 2131 122 2419 116 
L 2419 0 
L 825 0 
L 825 116 
Q 1125 122 1212 167 
Q 1300 213 1334 289 
Q 1369 366 1369 747 
L 1369 3034 
Q 1369 3497 1338 3628 
Q 1316 3728 1258 3775 
Q 1200 3822 1119 3822 
Q 1003 3822 797 3725 
L 750 3822 
z
" transform="scale(0.015625)"/>
       </defs>
       <use xlink:href="#TimesNewRomanPSMT-31"/>
       <use xlink:href="#TimesNewRomanPSMT-30" x="50"/>
       <use xlink:href="#TimesNewRomanPSMT-30" x="100"/>
      </g>
     </g>
    </g>
    <g id="ytick_3">
     <g id="line2d_19">
      <path d="M 42.301563 178.198249 
L 399.421563 178.198249 
" clip-path="url(#p02dedd2681)" style="fill: none; stroke: #b0b0b0; stroke-width: 0.8; stroke-linecap: square"/>
     </g>
     <g id="line2d_20">
      <g>
       <use xlink:href="#m92ea393ef3" x="42.301563" y="178.198249" style="stroke: #000000; stroke-width: 0.8"/>
      </g>
     </g>
     <g id="text_11">
      <!-- 200 -->
      <g transform="translate(20.301563 181.670124) scale(0.1 -0.1)">
       <use xlink:href="#TimesNewRomanPSMT-32"/>
       <use xlink:href="#TimesNewRomanPSMT-30" x="50"/>
       <use xlink:href="#TimesNewRomanPSMT-30" x="100"/>
      </g>
     </g>
    </g>
    <g id="ytick_4">
     <g id="line2d_21">
      <path d="M 42.301563 122.780749 
L 399.421563 122.780749 
" clip-path="url(#p02dedd2681)" style="fill: none; stroke: #b0b0b0; stroke-width: 0.8; stroke-linecap: square"/>
     </g>
     <g id="line2d_22">
      <g>
       <use xlink:href="#m92ea393ef3" x="42.301563" y="122.780749" style="stroke: #000000; stroke-width: 0.8"/>
      </g>
     </g>
     <g id="text_12">
      <!-- 300 -->
      <g transform="translate(20.301563 126.252624) scale(0.1 -0.1)">
       <use xlink:href="#TimesNewRomanPSMT-33"/>
       <use xlink:href="#TimesNewRomanPSMT-30" x="50"/>
       <use xlink:href="#TimesNewRomanPSMT-30" x="100"/>
      </g>
     </g>
    </g>
    <g id="ytick_5">
     <g id="line2d_23">
      <path d="M 42.301563 67.363248 
L 399.421563 67.363248 
" clip-path="url(#p02dedd2681)" style="fill: none; stroke: #b0b0b0; stroke-width: 0.8; stroke-linecap: square"/>
     </g>
     <g id="line2d_24">
      <g>
       <use xlink:href="#m92ea393ef3" x="42.301563" y="67.363248" style="stroke: #000000; stroke-width: 0.8"/>
      </g>
     </g>
     <g id="text_13">
      <!-- 400 -->
      <g transform="translate(20.301563 70.835123) scale(0.1 -0.1)">
       <use xlink:href="#TimesNewRomanPSMT-34"/>
       <use xlink:href="#TimesNewRomanPSMT-30" x="50"/>
       <use xlink:href="#TimesNewRomanPSMT-30" x="100"/>
      </g>
     </g>
    </g>
    <g id="text_14">
     <!-- Energy (PJ) -->
     <g transform="translate(14.14375 179.634281) rotate(-90) scale(0.1 -0.1)">
      <defs>
       <path id="TimesNewRomanPSMT-45" d="M 1338 4006 
L 1338 2331 
L 2269 2331 
Q 2631 2331 2753 2441 
Q 2916 2584 2934 2947 
L 3050 2947 
L 3050 1472 
L 2934 1472 
Q 2891 1781 2847 1869 
Q 2791 1978 2662 2040 
Q 2534 2103 2269 2103 
L 1338 2103 
L 1338 706 
Q 1338 425 1363 364 
Q 1388 303 1450 267 
Q 1513 231 1688 231 
L 2406 231 
Q 2766 231 2928 281 
Q 3091 331 3241 478 
Q 3434 672 3638 1063 
L 3763 1063 
L 3397 0 
L 131 0 
L 131 116 
L 281 116 
Q 431 116 566 188 
Q 666 238 702 338 
Q 738 438 738 747 
L 738 3500 
Q 738 3903 656 3997 
Q 544 4122 281 4122 
L 131 4122 
L 131 4238 
L 3397 4238 
L 3444 3309 
L 3322 3309 
Q 3256 3644 3176 3769 
Q 3097 3894 2941 3959 
Q 2816 4006 2500 4006 
L 1338 4006 
z
" transform="scale(0.015625)"/>
       <path id="TimesNewRomanPSMT-6e" d="M 1034 2341 
Q 1538 2947 1994 2947 
Q 2228 2947 2397 2830 
Q 2566 2713 2666 2444 
Q 2734 2256 2734 1869 
L 2734 647 
Q 2734 375 2778 278 
Q 2813 200 2889 156 
Q 2966 113 3172 113 
L 3172 0 
L 1756 0 
L 1756 113 
L 1816 113 
Q 2016 113 2095 173 
Q 2175 234 2206 353 
Q 2219 400 2219 647 
L 2219 1819 
Q 2219 2209 2117 2386 
Q 2016 2563 1775 2563 
Q 1403 2563 1034 2156 
L 1034 647 
Q 1034 356 1069 288 
Q 1113 197 1189 155 
Q 1266 113 1500 113 
L 1500 0 
L 84 0 
L 84 113 
L 147 113 
Q 366 113 442 223 
Q 519 334 519 647 
L 519 1709 
Q 519 2225 495 2337 
Q 472 2450 423 2490 
Q 375 2531 294 2531 
Q 206 2531 84 2484 
L 38 2597 
L 900 2947 
L 1034 2947 
L 1034 2341 
z
" transform="scale(0.015625)"/>
       <path id="TimesNewRomanPSMT-67" d="M 966 1044 
Q 703 1172 562 1401 
Q 422 1631 422 1909 
Q 422 2334 742 2640 
Q 1063 2947 1563 2947 
Q 1972 2947 2272 2747 
L 2878 2747 
Q 3013 2747 3034 2739 
Q 3056 2731 3066 2713 
Q 3084 2684 3084 2613 
Q 3084 2531 3069 2500 
Q 3059 2484 3036 2475 
Q 3013 2466 2878 2466 
L 2506 2466 
Q 2681 2241 2681 1891 
Q 2681 1491 2375 1206 
Q 2069 922 1553 922 
Q 1341 922 1119 984 
Q 981 866 932 777 
Q 884 688 884 625 
Q 884 572 936 522 
Q 988 472 1138 450 
Q 1225 438 1575 428 
Q 2219 413 2409 384 
Q 2700 344 2873 169 
Q 3047 -6 3047 -263 
Q 3047 -616 2716 -925 
Q 2228 -1381 1444 -1381 
Q 841 -1381 425 -1109 
Q 191 -953 191 -784 
Q 191 -709 225 -634 
Q 278 -519 444 -313 
Q 466 -284 763 25 
Q 600 122 533 198 
Q 466 275 466 372 
Q 466 481 555 628 
Q 644 775 966 1044 
z
M 1509 2797 
Q 1278 2797 1122 2612 
Q 966 2428 966 2047 
Q 966 1553 1178 1281 
Q 1341 1075 1591 1075 
Q 1828 1075 1981 1253 
Q 2134 1431 2134 1813 
Q 2134 2309 1919 2591 
Q 1759 2797 1509 2797 
z
M 934 0 
Q 788 -159 713 -296 
Q 638 -434 638 -550 
Q 638 -700 819 -813 
Q 1131 -1006 1722 -1006 
Q 2284 -1006 2551 -807 
Q 2819 -609 2819 -384 
Q 2819 -222 2659 -153 
Q 2497 -84 2016 -72 
Q 1313 -53 934 0 
z
" transform="scale(0.015625)"/>
       <path id="TimesNewRomanPSMT-79" d="M 38 2863 
L 1372 2863 
L 1372 2747 
L 1306 2747 
Q 1166 2747 1095 2686 
Q 1025 2625 1025 2534 
Q 1025 2413 1128 2197 
L 1825 753 
L 2466 2334 
Q 2519 2463 2519 2588 
Q 2519 2644 2497 2672 
Q 2472 2706 2419 2726 
Q 2366 2747 2231 2747 
L 2231 2863 
L 3163 2863 
L 3163 2747 
Q 3047 2734 2984 2696 
Q 2922 2659 2847 2556 
Q 2819 2513 2741 2316 
L 1575 -541 
Q 1406 -956 1132 -1168 
Q 859 -1381 606 -1381 
Q 422 -1381 303 -1275 
Q 184 -1169 184 -1031 
Q 184 -900 270 -820 
Q 356 -741 506 -741 
Q 609 -741 788 -809 
Q 913 -856 944 -856 
Q 1038 -856 1148 -759 
Q 1259 -663 1372 -384 
L 1575 113 
L 547 2272 
Q 500 2369 397 2513 
Q 319 2622 269 2659 
Q 197 2709 38 2747 
L 38 2863 
z
" transform="scale(0.015625)"/>
       <path id="TimesNewRomanPSMT-20" transform="scale(0.015625)"/>
       <path id="TimesNewRomanPSMT-28" d="M 1988 -1253 
L 1988 -1369 
Q 1516 -1131 1200 -813 
Q 750 -359 506 256 
Q 263 872 263 1534 
Q 263 2503 741 3301 
Q 1219 4100 1988 4444 
L 1988 4313 
Q 1603 4100 1356 3731 
Q 1109 3363 987 2797 
Q 866 2231 866 1616 
Q 866 947 969 400 
Q 1050 -31 1165 -292 
Q 1281 -553 1476 -793 
Q 1672 -1034 1988 -1253 
z
" transform="scale(0.015625)"/>
       <path id="TimesNewRomanPSMT-50" d="M 1313 1984 
L 1313 750 
Q 1313 350 1400 253 
Q 1519 116 1759 116 
L 1922 116 
L 1922 0 
L 106 0 
L 106 116 
L 266 116 
Q 534 116 650 291 
Q 713 388 713 750 
L 713 3488 
Q 713 3888 628 3984 
Q 506 4122 266 4122 
L 106 4122 
L 106 4238 
L 1659 4238 
Q 2228 4238 2556 4120 
Q 2884 4003 3109 3725 
Q 3334 3447 3334 3066 
Q 3334 2547 2992 2222 
Q 2650 1897 2025 1897 
Q 1872 1897 1694 1919 
Q 1516 1941 1313 1984 
z
M 1313 2163 
Q 1478 2131 1606 2115 
Q 1734 2100 1825 2100 
Q 2150 2100 2386 2351 
Q 2622 2603 2622 3003 
Q 2622 3278 2509 3514 
Q 2397 3750 2190 3867 
Q 1984 3984 1722 3984 
Q 1563 3984 1313 3925 
L 1313 2163 
z
" transform="scale(0.015625)"/>
       <path id="TimesNewRomanPSMT-4a" d="M 638 4122 
L 638 4238 
L 2453 4238 
L 2453 4122 
L 2300 4122 
Q 2041 4122 1922 3969 
Q 1847 3869 1847 3488 
L 1847 1416 
Q 1847 938 1742 641 
Q 1638 344 1381 123 
Q 1125 -97 763 -97 
Q 469 -97 300 48 
Q 131 194 131 381 
Q 131 534 209 613 
Q 313 709 450 709 
Q 550 709 629 643 
Q 709 578 831 294 
Q 903 125 1016 125 
Q 1100 125 1173 228 
Q 1247 331 1247 594 
L 1247 3488 
Q 1247 3809 1206 3913 
Q 1175 3991 1075 4047 
Q 941 4122 791 4122 
L 638 4122 
z
" transform="scale(0.015625)"/>
       <path id="TimesNewRomanPSMT-29" d="M 144 4313 
L 144 4444 
Q 619 4209 934 3891 
Q 1381 3434 1625 2820 
Q 1869 2206 1869 1541 
Q 1869 572 1392 -226 
Q 916 -1025 144 -1369 
L 144 -1253 
Q 528 -1038 776 -670 
Q 1025 -303 1145 264 
Q 1266 831 1266 1447 
Q 1266 2113 1163 2663 
Q 1084 3094 967 3353 
Q 850 3613 656 3853 
Q 463 4094 144 4313 
z
" transform="scale(0.015625)"/>
      </defs>
      <use xlink:href="#TimesNewRomanPSMT-45"/>
      <use xlink:href="#TimesNewRomanPSMT-6e" x="61.083984"/>
      <use xlink:href="#TimesNewRomanPSMT-65" x="111.083984"/>
      <use xlink:href="#TimesNewRomanPSMT-72" x="155.46875"/>
      <use xlink:href="#TimesNewRomanPSMT-67" x="187.019531"/>
      <use xlink:href="#TimesNewRomanPSMT-79" x="237.019531"/>
      <use xlink:href="#TimesNewRomanPSMT-20" x="287.019531"/>
      <use xlink:href="#TimesNewRomanPSMT-28" x="312.019531"/>
      <use xlink:href="#TimesNewRomanPSMT-50" x="345.320312"/>
      <use xlink:href="#TimesNewRomanPSMT-4a" x="400.935547"/>
      <use xlink:href="#TimesNewRomanPSMT-29" x="439.851562"/>
     </g>
    </g>
   </g>
   <g id="patch_220">
    <path d="M 42.301563 289.03325 
L 42.301563 22.92125 
" style="fill: none; stroke: #000000; stroke-width: 0.8; stroke-linejoin: miter; stroke-linecap: square"/>
   </g>
   <g id="patch_221">
    <path d="M 399.421563 289.03325 
L 399.421563 22.92125 
" style="fill: none; stroke: #000000; stroke-width: 0.8; stroke-linejoin: miter; stroke-linecap: square"/>
   </g>
   <g id="patch_222">
    <path d="M 42.301563 289.03325 
L 399.421563 289.03325 
" style="fill: none; stroke: #000000; stroke-width: 0.8; stroke-linejoin: miter; stroke-linecap: square"/>
   </g>
   <g id="patch_223">
    <path d="M 42.301563 22.92125 
L 399.421563 22.92125 
" style="fill: none; stroke: #000000; stroke-width: 0.8; stroke-linejoin: miter; stroke-linecap: square"/>
   </g>
   <g id="text_15">
    <!-- Generation (PJ)-by Fuel -->
    <g transform="translate(153.209844 16.92125) scale(0.14 -0.14)">
     <defs>
      <path id="TimesNewRomanPSMT-47" d="M 3928 4334 
L 4038 2997 
L 3928 2997 
Q 3763 3497 3500 3750 
Q 3122 4116 2528 4116 
Q 1719 4116 1297 3475 
Q 944 2934 944 2188 
Q 944 1581 1178 1081 
Q 1413 581 1792 348 
Q 2172 116 2572 116 
Q 2806 116 3025 175 
Q 3244 234 3447 350 
L 3447 1575 
Q 3447 1894 3398 1992 
Q 3350 2091 3248 2142 
Q 3147 2194 2891 2194 
L 2891 2313 
L 4531 2313 
L 4531 2194 
L 4453 2194 
Q 4209 2194 4119 2031 
Q 4056 1916 4056 1575 
L 4056 278 
Q 3697 84 3347 -6 
Q 2997 -97 2569 -97 
Q 1341 -97 703 691 
Q 225 1281 225 2053 
Q 225 2613 494 3125 
Q 813 3734 1369 4063 
Q 1834 4334 2469 4334 
Q 2700 4334 2889 4296 
Q 3078 4259 3425 4131 
Q 3600 4066 3659 4066 
Q 3719 4066 3761 4120 
Q 3803 4175 3813 4334 
L 3928 4334 
z
" transform="scale(0.015625)"/>
      <path id="TimesNewRomanPSMT-74" d="M 1031 3803 
L 1031 2863 
L 1700 2863 
L 1700 2644 
L 1031 2644 
L 1031 788 
Q 1031 509 1111 412 
Q 1191 316 1316 316 
Q 1419 316 1516 380 
Q 1613 444 1666 569 
L 1788 569 
Q 1678 263 1478 108 
Q 1278 -47 1066 -47 
Q 922 -47 784 33 
Q 647 113 581 261 
Q 516 409 516 719 
L 516 2644 
L 63 2644 
L 63 2747 
Q 234 2816 414 2980 
Q 594 3144 734 3369 
Q 806 3488 934 3803 
L 1031 3803 
z
" transform="scale(0.015625)"/>
      <path id="TimesNewRomanPSMT-69" d="M 928 4444 
Q 1059 4444 1151 4351 
Q 1244 4259 1244 4128 
Q 1244 3997 1151 3903 
Q 1059 3809 928 3809 
Q 797 3809 703 3903 
Q 609 3997 609 4128 
Q 609 4259 701 4351 
Q 794 4444 928 4444 
z
M 1188 2947 
L 1188 647 
Q 1188 378 1227 289 
Q 1266 200 1342 156 
Q 1419 113 1622 113 
L 1622 0 
L 231 0 
L 231 113 
Q 441 113 512 153 
Q 584 194 626 287 
Q 669 381 669 647 
L 669 1750 
Q 669 2216 641 2353 
Q 619 2453 572 2492 
Q 525 2531 444 2531 
Q 356 2531 231 2484 
L 188 2597 
L 1050 2947 
L 1188 2947 
z
" transform="scale(0.015625)"/>
      <path id="TimesNewRomanPSMT-6f" d="M 1600 2947 
Q 2250 2947 2644 2453 
Q 2978 2031 2978 1484 
Q 2978 1100 2793 706 
Q 2609 313 2286 112 
Q 1963 -88 1566 -88 
Q 919 -88 538 428 
Q 216 863 216 1403 
Q 216 1797 411 2186 
Q 606 2575 925 2761 
Q 1244 2947 1600 2947 
z
M 1503 2744 
Q 1338 2744 1170 2645 
Q 1003 2547 900 2300 
Q 797 2053 797 1666 
Q 797 1041 1045 587 
Q 1294 134 1700 134 
Q 2003 134 2200 384 
Q 2397 634 2397 1244 
Q 2397 2006 2069 2444 
Q 1847 2744 1503 2744 
z
" transform="scale(0.015625)"/>
      <path id="TimesNewRomanPSMT-2d" d="M 259 1672 
L 1875 1672 
L 1875 1200 
L 259 1200 
L 259 1672 
z
" transform="scale(0.015625)"/>
      <path id="TimesNewRomanPSMT-62" d="M 984 2369 
Q 1400 2947 1881 2947 
Q 2322 2947 2650 2570 
Q 2978 2194 2978 1541 
Q 2978 778 2472 313 
Q 2038 -88 1503 -88 
Q 1253 -88 995 3 
Q 738 94 469 275 
L 469 3241 
Q 469 3728 445 3840 
Q 422 3953 372 3993 
Q 322 4034 247 4034 
Q 159 4034 28 3984 
L -16 4094 
L 844 4444 
L 984 4444 
L 984 2369 
z
M 984 2169 
L 984 456 
Q 1144 300 1314 220 
Q 1484 141 1663 141 
Q 1947 141 2192 453 
Q 2438 766 2438 1363 
Q 2438 1913 2192 2208 
Q 1947 2503 1634 2503 
Q 1469 2503 1303 2419 
Q 1178 2356 984 2169 
z
" transform="scale(0.015625)"/>
      <path id="TimesNewRomanPSMT-46" d="M 1309 4006 
L 1309 2341 
L 2081 2341 
Q 2347 2341 2470 2458 
Q 2594 2575 2634 2922 
L 2750 2922 
L 2750 1488 
L 2634 1488 
Q 2631 1734 2570 1850 
Q 2509 1966 2401 2023 
Q 2294 2081 2081 2081 
L 1309 2081 
L 1309 750 
Q 1309 428 1350 325 
Q 1381 247 1481 191 
Q 1619 116 1769 116 
L 1922 116 
L 1922 0 
L 103 0 
L 103 116 
L 253 116 
Q 516 116 634 269 
Q 709 369 709 750 
L 709 3488 
Q 709 3809 669 3913 
Q 638 3991 541 4047 
Q 406 4122 253 4122 
L 103 4122 
L 103 4238 
L 3256 4238 
L 3297 3306 
L 3188 3306 
Q 3106 3603 2998 3742 
Q 2891 3881 2733 3943 
Q 2575 4006 2244 4006 
L 1309 4006 
z
" transform="scale(0.015625)"/>
      <path id="TimesNewRomanPSMT-75" d="M 2709 2863 
L 2709 1128 
Q 2709 631 2732 520 
Q 2756 409 2807 365 
Q 2859 322 2928 322 
Q 3025 322 3147 375 
L 3191 266 
L 2334 -88 
L 2194 -88 
L 2194 519 
Q 1825 119 1631 15 
Q 1438 -88 1222 -88 
Q 981 -88 804 51 
Q 628 191 559 409 
Q 491 628 491 1028 
L 491 2306 
Q 491 2509 447 2587 
Q 403 2666 317 2708 
Q 231 2750 6 2747 
L 6 2863 
L 1009 2863 
L 1009 947 
Q 1009 547 1148 422 
Q 1288 297 1484 297 
Q 1619 297 1789 381 
Q 1959 466 2194 703 
L 2194 2325 
Q 2194 2569 2105 2655 
Q 2016 2741 1734 2747 
L 1734 2863 
L 2709 2863 
z
" transform="scale(0.015625)"/>
      <path id="TimesNewRomanPSMT-6c" d="M 1184 4444 
L 1184 647 
Q 1184 378 1223 290 
Q 1263 203 1344 158 
Q 1425 113 1647 113 
L 1647 0 
L 244 0 
L 244 113 
Q 441 113 512 153 
Q 584 194 625 287 
Q 666 381 666 647 
L 666 3247 
Q 666 3731 644 3842 
Q 622 3953 573 3993 
Q 525 4034 450 4034 
Q 369 4034 244 3984 
L 191 4094 
L 1044 4444 
L 1184 4444 
z
" transform="scale(0.015625)"/>
     </defs>
     <use xlink:href="#TimesNewRomanPSMT-47"/>
     <use xlink:href="#TimesNewRomanPSMT-65" x="72.216797"/>
     <use xlink:href="#TimesNewRomanPSMT-6e" x="116.601562"/>
     <use xlink:href="#TimesNewRomanPSMT-65" x="166.601562"/>
     <use xlink:href="#TimesNewRomanPSMT-72" x="210.986328"/>
     <use xlink:href="#TimesNewRomanPSMT-61" x="244.287109"/>
     <use xlink:href="#TimesNewRomanPSMT-74" x="288.671875"/>
     <use xlink:href="#TimesNewRomanPSMT-69" x="316.455078"/>
     <use xlink:href="#TimesNewRomanPSMT-6f" x="344.238281"/>
     <use xlink:href="#TimesNewRomanPSMT-6e" x="394.238281"/>
     <use xlink:href="#TimesNewRomanPSMT-20" x="444.238281"/>
     <use xlink:href="#TimesNewRomanPSMT-28" x="469.238281"/>
     <use xlink:href="#TimesNewRomanPSMT-50" x="502.539062"/>
     <use xlink:href="#TimesNewRomanPSMT-4a" x="558.154297"/>
     <use xlink:href="#TimesNewRomanPSMT-29" x="597.070312"/>
     <use xlink:href="#TimesNewRomanPSMT-2d" x="630.371094"/>
     <use xlink:href="#TimesNewRomanPSMT-62" x="663.671875"/>
     <use xlink:href="#TimesNewRomanPSMT-79" x="713.671875"/>
     <use xlink:href="#TimesNewRomanPSMT-20" x="763.671875"/>
     <use xlink:href="#TimesNewRomanPSMT-46" x="788.671875"/>
     <use xlink:href="#TimesNewRomanPSMT-75" x="844.287109"/>
     <use xlink:href="#TimesNewRomanPSMT-65" x="894.287109"/>
     <use xlink:href="#TimesNewRomanPSMT-6c" x="938.671875"/>
    </g>
   </g>
   <g id="legend_1">
    <g id="patch_224">
     <path d="M 406.421563 206.973344 
L 505.645 206.973344 
Q 507.645 206.973344 507.645 204.973344 
L 507.645 106.981156 
Q 507.645 104.981156 505.645 104.981156 
L 406.421563 104.981156 
Q 404.421563 104.981156 404.421563 106.981156 
L 404.421563 204.973344 
Q 404.421563 206.973344 406.421563 206.973344 
z
" style="fill: #ffffff; opacity: 0.8; stroke: #cccccc; stroke-linejoin: miter"/>
    </g>
    <g id="patch_225">
     <path d="M 408.421563 115.981156 
L 428.421563 115.981156 
L 428.421563 108.981156 
L 408.421563 108.981156 
z
" style="fill: #5bab59"/>
    </g>
    <g id="text_16">
     <!-- Biomass/Biofuel -->
     <g transform="translate(436.421563 115.981156) scale(0.1 -0.1)">
      <defs>
       <path id="TimesNewRomanPSMT-42" d="M 2956 2163 
Q 3397 2069 3616 1863 
Q 3919 1575 3919 1159 
Q 3919 844 3719 555 
Q 3519 266 3170 133 
Q 2822 0 2106 0 
L 106 0 
L 106 116 
L 266 116 
Q 531 116 647 284 
Q 719 394 719 750 
L 719 3488 
Q 719 3881 628 3984 
Q 506 4122 266 4122 
L 106 4122 
L 106 4238 
L 1938 4238 
Q 2450 4238 2759 4163 
Q 3228 4050 3475 3764 
Q 3722 3478 3722 3106 
Q 3722 2788 3528 2536 
Q 3334 2284 2956 2163 
z
M 1319 2331 
Q 1434 2309 1582 2298 
Q 1731 2288 1909 2288 
Q 2366 2288 2595 2386 
Q 2825 2484 2947 2687 
Q 3069 2891 3069 3131 
Q 3069 3503 2766 3765 
Q 2463 4028 1881 4028 
Q 1569 4028 1319 3959 
L 1319 2331 
z
M 1319 306 
Q 1681 222 2034 222 
Q 2600 222 2897 476 
Q 3194 731 3194 1106 
Q 3194 1353 3059 1581 
Q 2925 1809 2622 1940 
Q 2319 2072 1872 2072 
Q 1678 2072 1540 2065 
Q 1403 2059 1319 2044 
L 1319 306 
z
" transform="scale(0.015625)"/>
       <path id="TimesNewRomanPSMT-6d" d="M 1050 2338 
Q 1363 2650 1419 2697 
Q 1559 2816 1721 2881 
Q 1884 2947 2044 2947 
Q 2313 2947 2506 2790 
Q 2700 2634 2766 2338 
Q 3088 2713 3309 2830 
Q 3531 2947 3766 2947 
Q 3994 2947 4170 2830 
Q 4347 2713 4450 2447 
Q 4519 2266 4519 1878 
L 4519 647 
Q 4519 378 4559 278 
Q 4591 209 4675 161 
Q 4759 113 4950 113 
L 4950 0 
L 3538 0 
L 3538 113 
L 3597 113 
Q 3781 113 3884 184 
Q 3956 234 3988 344 
Q 4000 397 4000 647 
L 4000 1878 
Q 4000 2228 3916 2372 
Q 3794 2572 3525 2572 
Q 3359 2572 3192 2489 
Q 3025 2406 2788 2181 
L 2781 2147 
L 2788 2013 
L 2788 647 
Q 2788 353 2820 281 
Q 2853 209 2943 161 
Q 3034 113 3253 113 
L 3253 0 
L 1806 0 
L 1806 113 
Q 2044 113 2133 169 
Q 2222 225 2256 338 
Q 2272 391 2272 647 
L 2272 1878 
Q 2272 2228 2169 2381 
Q 2031 2581 1784 2581 
Q 1616 2581 1450 2491 
Q 1191 2353 1050 2181 
L 1050 647 
Q 1050 366 1089 281 
Q 1128 197 1204 155 
Q 1281 113 1516 113 
L 1516 0 
L 100 0 
L 100 113 
Q 297 113 375 155 
Q 453 197 493 289 
Q 534 381 534 647 
L 534 1741 
Q 534 2213 506 2350 
Q 484 2453 437 2492 
Q 391 2531 309 2531 
Q 222 2531 100 2484 
L 53 2597 
L 916 2947 
L 1050 2947 
L 1050 2338 
z
" transform="scale(0.015625)"/>
       <path id="TimesNewRomanPSMT-73" d="M 2050 2947 
L 2050 1972 
L 1947 1972 
Q 1828 2431 1642 2597 
Q 1456 2763 1169 2763 
Q 950 2763 815 2647 
Q 681 2531 681 2391 
Q 681 2216 781 2091 
Q 878 1963 1175 1819 
L 1631 1597 
Q 2266 1288 2266 781 
Q 2266 391 1970 151 
Q 1675 -88 1309 -88 
Q 1047 -88 709 6 
Q 606 38 541 38 
Q 469 38 428 -44 
L 325 -44 
L 325 978 
L 428 978 
Q 516 541 762 319 
Q 1009 97 1316 97 
Q 1531 97 1667 223 
Q 1803 350 1803 528 
Q 1803 744 1651 891 
Q 1500 1038 1047 1263 
Q 594 1488 453 1669 
Q 313 1847 313 2119 
Q 313 2472 555 2709 
Q 797 2947 1181 2947 
Q 1350 2947 1591 2875 
Q 1750 2828 1803 2828 
Q 1853 2828 1881 2850 
Q 1909 2872 1947 2947 
L 2050 2947 
z
" transform="scale(0.015625)"/>
       <path id="TimesNewRomanPSMT-2f" d="M 1794 4444 
L 259 -88 
L 9 -88 
L 1544 4444 
L 1794 4444 
z
" transform="scale(0.015625)"/>
       <path id="TimesNewRomanPSMT-66" d="M 1319 2638 
L 1319 756 
Q 1319 356 1406 250 
Q 1522 113 1716 113 
L 1975 113 
L 1975 0 
L 266 0 
L 266 113 
L 394 113 
Q 519 113 622 175 
Q 725 238 764 344 
Q 803 450 803 756 
L 803 2638 
L 247 2638 
L 247 2863 
L 803 2863 
L 803 3050 
Q 803 3478 940 3775 
Q 1078 4072 1361 4255 
Q 1644 4438 1997 4438 
Q 2325 4438 2600 4225 
Q 2781 4084 2781 3909 
Q 2781 3816 2700 3733 
Q 2619 3650 2525 3650 
Q 2453 3650 2373 3701 
Q 2294 3753 2178 3923 
Q 2063 4094 1966 4153 
Q 1869 4213 1750 4213 
Q 1606 4213 1506 4136 
Q 1406 4059 1362 3898 
Q 1319 3738 1319 3069 
L 1319 2863 
L 2056 2863 
L 2056 2638 
L 1319 2638 
z
" transform="scale(0.015625)"/>
      </defs>
      <use xlink:href="#TimesNewRomanPSMT-42"/>
      <use xlink:href="#TimesNewRomanPSMT-69" x="66.699219"/>
      <use xlink:href="#TimesNewRomanPSMT-6f" x="94.482422"/>
      <use xlink:href="#TimesNewRomanPSMT-6d" x="144.482422"/>
      <use xlink:href="#TimesNewRomanPSMT-61" x="222.265625"/>
      <use xlink:href="#TimesNewRomanPSMT-73" x="266.650391"/>
      <use xlink:href="#TimesNewRomanPSMT-73" x="305.566406"/>
      <use xlink:href="#TimesNewRomanPSMT-2f" x="344.482422"/>
      <use xlink:href="#TimesNewRomanPSMT-42" x="372.265625"/>
      <use xlink:href="#TimesNewRomanPSMT-69" x="438.964844"/>
      <use xlink:href="#TimesNewRomanPSMT-6f" x="466.748047"/>
      <use xlink:href="#TimesNewRomanPSMT-66" x="516.748047"/>
      <use xlink:href="#TimesNewRomanPSMT-75" x="550.048828"/>
      <use xlink:href="#TimesNewRomanPSMT-65" x="600.048828"/>
      <use xlink:href="#TimesNewRomanPSMT-6c" x="644.433594"/>
     </g>
    </g>
    <g id="patch_226">
     <path d="M 408.421563 130.120219 
L 428.421563 130.120219 
L 428.421563 123.120219 
L 408.421563 123.120219 
z
" style="fill: #b067b3"/>
    </g>
    <g id="text_17">
     <!-- Geothermal -->
     <g transform="translate(436.421563 130.120219) scale(0.1 -0.1)">
      <defs>
       <path id="TimesNewRomanPSMT-68" d="M 1041 4444 
L 1041 2350 
Q 1388 2731 1591 2839 
Q 1794 2947 1997 2947 
Q 2241 2947 2416 2812 
Q 2591 2678 2675 2391 
Q 2734 2191 2734 1659 
L 2734 647 
Q 2734 375 2778 275 
Q 2809 200 2884 156 
Q 2959 113 3159 113 
L 3159 0 
L 1753 0 
L 1753 113 
L 1819 113 
Q 2019 113 2097 173 
Q 2175 234 2206 353 
Q 2216 403 2216 647 
L 2216 1659 
Q 2216 2128 2167 2275 
Q 2119 2422 2012 2495 
Q 1906 2569 1756 2569 
Q 1603 2569 1437 2487 
Q 1272 2406 1041 2159 
L 1041 647 
Q 1041 353 1073 281 
Q 1106 209 1195 161 
Q 1284 113 1503 113 
L 1503 0 
L 84 0 
L 84 113 
Q 275 113 384 172 
Q 447 203 484 290 
Q 522 378 522 647 
L 522 3238 
Q 522 3728 498 3840 
Q 475 3953 426 3993 
Q 378 4034 297 4034 
Q 231 4034 84 3984 
L 41 4094 
L 897 4444 
L 1041 4444 
z
" transform="scale(0.015625)"/>
      </defs>
      <use xlink:href="#TimesNewRomanPSMT-47"/>
      <use xlink:href="#TimesNewRomanPSMT-65" x="72.216797"/>
      <use xlink:href="#TimesNewRomanPSMT-6f" x="116.601562"/>
      <use xlink:href="#TimesNewRomanPSMT-74" x="166.601562"/>
      <use xlink:href="#TimesNewRomanPSMT-68" x="194.384766"/>
      <use xlink:href="#TimesNewRomanPSMT-65" x="244.384766"/>
      <use xlink:href="#TimesNewRomanPSMT-72" x="288.769531"/>
      <use xlink:href="#TimesNewRomanPSMT-6d" x="322.070312"/>
      <use xlink:href="#TimesNewRomanPSMT-61" x="399.853516"/>
      <use xlink:href="#TimesNewRomanPSMT-6c" x="444.238281"/>
     </g>
    </g>
    <g id="patch_227">
     <path d="M 408.421563 144.259281 
L 428.421563 144.259281 
L 428.421563 137.259281 
L 408.421563 137.259281 
z
" style="fill: #86b4d8"/>
    </g>
    <g id="text_18">
     <!-- Hydro -->
     <g transform="translate(436.421563 144.259281) scale(0.1 -0.1)">
      <defs>
       <path id="TimesNewRomanPSMT-48" d="M 1316 2272 
L 3284 2272 
L 3284 3484 
Q 3284 3809 3244 3913 
Q 3213 3991 3113 4047 
Q 2978 4122 2828 4122 
L 2678 4122 
L 2678 4238 
L 4491 4238 
L 4491 4122 
L 4341 4122 
Q 4191 4122 4056 4050 
Q 3956 4000 3920 3898 
Q 3884 3797 3884 3484 
L 3884 750 
Q 3884 428 3925 325 
Q 3956 247 4053 191 
Q 4191 116 4341 116 
L 4491 116 
L 4491 0 
L 2678 0 
L 2678 116 
L 2828 116 
Q 3088 116 3206 269 
Q 3284 369 3284 750 
L 3284 2041 
L 1316 2041 
L 1316 750 
Q 1316 428 1356 325 
Q 1388 247 1488 191 
Q 1622 116 1772 116 
L 1925 116 
L 1925 0 
L 109 0 
L 109 116 
L 259 116 
Q 522 116 641 269 
Q 716 369 716 750 
L 716 3484 
Q 716 3809 675 3913 
Q 644 3991 547 4047 
Q 409 4122 259 4122 
L 109 4122 
L 109 4238 
L 1925 4238 
L 1925 4122 
L 1772 4122 
Q 1622 4122 1488 4050 
Q 1391 4000 1353 3898 
Q 1316 3797 1316 3484 
L 1316 2272 
z
" transform="scale(0.015625)"/>
       <path id="TimesNewRomanPSMT-64" d="M 2222 322 
Q 2013 103 1813 7 
Q 1613 -88 1381 -88 
Q 913 -88 563 304 
Q 213 697 213 1313 
Q 213 1928 600 2439 
Q 988 2950 1597 2950 
Q 1975 2950 2222 2709 
L 2222 3238 
Q 2222 3728 2198 3840 
Q 2175 3953 2125 3993 
Q 2075 4034 2000 4034 
Q 1919 4034 1784 3984 
L 1744 4094 
L 2597 4444 
L 2738 4444 
L 2738 1134 
Q 2738 631 2761 520 
Q 2784 409 2836 365 
Q 2888 322 2956 322 
Q 3041 322 3181 375 
L 3216 266 
L 2366 -88 
L 2222 -88 
L 2222 322 
z
M 2222 541 
L 2222 2016 
Q 2203 2228 2109 2403 
Q 2016 2578 1861 2667 
Q 1706 2756 1559 2756 
Q 1284 2756 1069 2509 
Q 784 2184 784 1559 
Q 784 928 1059 592 
Q 1334 256 1672 256 
Q 1956 256 2222 541 
z
" transform="scale(0.015625)"/>
      </defs>
      <use xlink:href="#TimesNewRomanPSMT-48"/>
      <use xlink:href="#TimesNewRomanPSMT-79" x="72.216797"/>
      <use xlink:href="#TimesNewRomanPSMT-64" x="122.216797"/>
      <use xlink:href="#TimesNewRomanPSMT-72" x="172.216797"/>
      <use xlink:href="#TimesNewRomanPSMT-6f" x="205.517578"/>
     </g>
    </g>
    <g id="patch_228">
     <path d="M 408.421563 158.417094 
L 428.421563 158.417094 
L 428.421563 151.417094 
L 408.421563 151.417094 
z
" style="fill: #d27a78"/>
    </g>
    <g id="text_19">
     <!-- Natural Gas -->
     <g transform="translate(436.421563 158.417094) scale(0.1 -0.1)">
      <defs>
       <path id="TimesNewRomanPSMT-4e" d="M -84 4238 
L 1066 4238 
L 3656 1059 
L 3656 3503 
Q 3656 3894 3569 3991 
Q 3453 4122 3203 4122 
L 3056 4122 
L 3056 4238 
L 4531 4238 
L 4531 4122 
L 4381 4122 
Q 4113 4122 4000 3959 
Q 3931 3859 3931 3503 
L 3931 -69 
L 3819 -69 
L 1025 3344 
L 1025 734 
Q 1025 344 1109 247 
Q 1228 116 1475 116 
L 1625 116 
L 1625 0 
L 150 0 
L 150 116 
L 297 116 
Q 569 116 681 278 
Q 750 378 750 734 
L 750 3681 
Q 566 3897 470 3965 
Q 375 4034 191 4094 
Q 100 4122 -84 4122 
L -84 4238 
z
" transform="scale(0.015625)"/>
      </defs>
      <use xlink:href="#TimesNewRomanPSMT-4e"/>
      <use xlink:href="#TimesNewRomanPSMT-61" x="72.216797"/>
      <use xlink:href="#TimesNewRomanPSMT-74" x="116.601562"/>
      <use xlink:href="#TimesNewRomanPSMT-75" x="144.384766"/>
      <use xlink:href="#TimesNewRomanPSMT-72" x="194.384766"/>
      <use xlink:href="#TimesNewRomanPSMT-61" x="227.685547"/>
      <use xlink:href="#TimesNewRomanPSMT-6c" x="272.070312"/>
      <use xlink:href="#TimesNewRomanPSMT-20" x="299.853516"/>
      <use xlink:href="#TimesNewRomanPSMT-47" x="324.853516"/>
      <use xlink:href="#TimesNewRomanPSMT-61" x="397.070312"/>
      <use xlink:href="#TimesNewRomanPSMT-73" x="441.455078"/>
     </g>
    </g>
    <g id="patch_229">
     <path d="M 408.421563 172.556156 
L 428.421563 172.556156 
L 428.421563 165.556156 
L 408.421563 165.556156 
z
" style="fill: #fee566"/>
    </g>
    <g id="text_20">
     <!-- Solar -->
     <g transform="translate(436.421563 172.556156) scale(0.1 -0.1)">
      <defs>
       <path id="TimesNewRomanPSMT-53" d="M 2934 4334 
L 2934 2869 
L 2819 2869 
Q 2763 3291 2617 3541 
Q 2472 3791 2203 3937 
Q 1934 4084 1647 4084 
Q 1322 4084 1109 3886 
Q 897 3688 897 3434 
Q 897 3241 1031 3081 
Q 1225 2847 1953 2456 
Q 2547 2138 2764 1967 
Q 2981 1797 3098 1565 
Q 3216 1334 3216 1081 
Q 3216 600 2842 251 
Q 2469 -97 1881 -97 
Q 1697 -97 1534 -69 
Q 1438 -53 1133 45 
Q 828 144 747 144 
Q 669 144 623 97 
Q 578 50 556 -97 
L 441 -97 
L 441 1356 
L 556 1356 
Q 638 900 775 673 
Q 913 447 1195 297 
Q 1478 147 1816 147 
Q 2206 147 2432 353 
Q 2659 559 2659 841 
Q 2659 997 2573 1156 
Q 2488 1316 2306 1453 
Q 2184 1547 1640 1851 
Q 1097 2156 867 2337 
Q 638 2519 519 2737 
Q 400 2956 400 3219 
Q 400 3675 750 4004 
Q 1100 4334 1641 4334 
Q 1978 4334 2356 4169 
Q 2531 4091 2603 4091 
Q 2684 4091 2736 4139 
Q 2788 4188 2819 4334 
L 2934 4334 
z
" transform="scale(0.015625)"/>
      </defs>
      <use xlink:href="#TimesNewRomanPSMT-53"/>
      <use xlink:href="#TimesNewRomanPSMT-6f" x="55.615234"/>
      <use xlink:href="#TimesNewRomanPSMT-6c" x="105.615234"/>
      <use xlink:href="#TimesNewRomanPSMT-61" x="133.398438"/>
      <use xlink:href="#TimesNewRomanPSMT-72" x="177.783203"/>
     </g>
    </g>
    <g id="patch_230">
     <path d="M 408.421563 186.695219 
L 428.421563 186.695219 
L 428.421563 179.695219 
L 408.421563 179.695219 
z
" style="fill: #b3b3b3"/>
    </g>
    <g id="text_21">
     <!-- Nuclear -->
     <g transform="translate(436.421563 186.695219) scale(0.1 -0.1)">
      <defs>
       <path id="TimesNewRomanPSMT-63" d="M 2631 1088 
Q 2516 522 2178 217 
Q 1841 -88 1431 -88 
Q 944 -88 581 321 
Q 219 731 219 1428 
Q 219 2103 620 2525 
Q 1022 2947 1584 2947 
Q 2006 2947 2278 2723 
Q 2550 2500 2550 2259 
Q 2550 2141 2473 2067 
Q 2397 1994 2259 1994 
Q 2075 1994 1981 2113 
Q 1928 2178 1911 2362 
Q 1894 2547 1784 2644 
Q 1675 2738 1481 2738 
Q 1169 2738 978 2506 
Q 725 2200 725 1697 
Q 725 1184 976 792 
Q 1228 400 1656 400 
Q 1963 400 2206 609 
Q 2378 753 2541 1131 
L 2631 1088 
z
" transform="scale(0.015625)"/>
      </defs>
      <use xlink:href="#TimesNewRomanPSMT-4e"/>
      <use xlink:href="#TimesNewRomanPSMT-75" x="72.216797"/>
      <use xlink:href="#TimesNewRomanPSMT-63" x="122.216797"/>
      <use xlink:href="#TimesNewRomanPSMT-6c" x="166.601562"/>
      <use xlink:href="#TimesNewRomanPSMT-65" x="194.384766"/>
      <use xlink:href="#TimesNewRomanPSMT-61" x="238.769531"/>
      <use xlink:href="#TimesNewRomanPSMT-72" x="283.154297"/>
     </g>
    </g>
    <g id="patch_231">
     <path d="M 408.421563 200.834281 
L 428.421563 200.834281 
L 428.421563 193.834281 
L 408.421563 193.834281 
z
" style="fill: #ddb3f9"/>
    </g>
    <g id="text_22">
     <!-- Wind -->
     <g transform="translate(436.421563 200.834281) scale(0.1 -0.1)">
      <defs>
       <path id="TimesNewRomanPSMT-57" d="M 5991 4238 
L 5991 4122 
Q 5825 4122 5722 4062 
Q 5619 4003 5525 3841 
Q 5463 3731 5328 3319 
L 4147 -97 
L 4022 -97 
L 3056 2613 
L 2097 -97 
L 1984 -97 
L 725 3422 
Q 584 3816 547 3888 
Q 484 4006 376 4064 
Q 269 4122 84 4122 
L 84 4238 
L 1653 4238 
L 1653 4122 
L 1578 4122 
Q 1413 4122 1325 4047 
Q 1238 3972 1238 3866 
Q 1238 3756 1375 3363 
L 2209 984 
L 2913 3006 
L 2788 3363 
L 2688 3647 
Q 2622 3803 2541 3922 
Q 2500 3981 2441 4022 
Q 2363 4078 2284 4103 
Q 2225 4122 2097 4122 
L 2097 4238 
L 3747 4238 
L 3747 4122 
L 3634 4122 
Q 3459 4122 3378 4047 
Q 3297 3972 3297 3844 
Q 3297 3684 3438 3288 
L 4250 984 
L 5056 3319 
Q 5194 3706 5194 3856 
Q 5194 3928 5148 3990 
Q 5103 4053 5034 4078 
Q 4916 4122 4725 4122 
L 4725 4238 
L 5991 4238 
z
" transform="scale(0.015625)"/>
      </defs>
      <use xlink:href="#TimesNewRomanPSMT-57"/>
      <use xlink:href="#TimesNewRomanPSMT-69" x="90.384766"/>
      <use xlink:href="#TimesNewRomanPSMT-6e" x="118.167969"/>
      <use xlink:href="#TimesNewRomanPSMT-64" x="168.167969"/>
     </g>
    </g>
   </g>
  </g>
 </g>
 <defs>
  <clipPath id="p02dedd2681">
   <rect x="42.301563" y="22.92125" width="357.12" height="266.112"/>
  </clipPath>
 </defs>
</svg>
