<?xml version="1.0" encoding="UTF-8" standalone="no"?>
<!DOCTYPE svg PUBLIC "-//W3C//DTD SVG 1.1//EN"
 "http://www.w3.org/Graphics/SVG/1.1/DTD/svg11.dtd">
<!-- Generated by graphviz version 2.43.0 (0)
 -->
<!-- Title: snakemake_dag Pages: 1 -->
<svg width="161pt" height="154pt"
 viewBox="0.00 0.00 161.00 154.00" xmlns="http://www.w3.org/2000/svg" xmlns:xlink="http://www.w3.org/1999/xlink">
<g id="graph0" class="graph" transform="scale(1 1) rotate(0) translate(4 150)">
<title>snakemake_dag</title>
<polygon fill="white" stroke="transparent" points="-4,4 -4,-150 157,-150 157,4 -4,4"/>
<!-- 0 -->
<g id="node1" class="node">
<title>0</title>
<text text-anchor="start" x="13.5" y="-125.6" font-family="sans" font-weight="bold" font-size="18.00">visualization</text>
<text text-anchor="start" x="7.5" y="-101.8" font-family="sans" font-size="10.00"> </text>
<text text-anchor="start" x="11.5" y="-101.8" font-family="sans" font-weight="bold" font-size="14.00">↪ input</text>
<text text-anchor="start" x="69.5" y="-101.8" font-family="sans" font-size="10.00"> </text>
<text text-anchor="start" x="7.5" y="-82" font-family="monospace" font-size="10.00">Scripts/Capacity_VIS.py</text>
<text text-anchor="start" x="7.5" y="-64" font-family="monospace" font-size="10.00">Scripts/Emission_VIS.py</text>
<text text-anchor="start" x="7.5" y="-46" font-family="monospace" font-size="10.00">Scripts/Energy_VIS.py</text>
<text text-anchor="start" x="7.5" y="-28" font-family="monospace" font-size="10.00">Scripts/Landuse_VIS.py</text>
<text text-anchor="start" x="139.5" y="-10" font-family="sans" font-size="10.00"> &#160;</text>
<polygon fill="#d95757" stroke="#d95757" points="1.5,-116 1.5,-116 153.5,-116 153.5,-116 1.5,-116"/>
<polygon fill="#d95757" stroke="#d95757" points="1.5,-22 1.5,-22 153.5,-22 153.5,-22 1.5,-22"/>
<polygon fill="none" stroke="#d95757" stroke-width="2" points="1,-1 1,-145 152,-145 152,-1 1,-1"/>
</g>
</g>
</svg>
