<svg width="2844" height="998" xmlns="http://www.w3.org/2000/svg" xmlns:xlink="http://www.w3.org/1999/xlink" xml:space="preserve" overflow="hidden"><defs><clipPath id="clip0"><rect x="2152" y="1223" width="2844" height="998"/></clipPath><clipPath id="clip1"><rect x="2152" y="1223" width="2843" height="998"/></clipPath><linearGradient x1="3685.5" y1="1252" x2="3685.5" y2="1988" gradientUnits="userSpaceOnUse" spreadMethod="reflect" id="fill2"><stop offset="0" stop-color="#FFFFFF"/><stop offset="0.0833333" stop-color="#FEFEFE"/><stop offset="0.166667" stop-color="#FEFEFE"/><stop offset="0.25" stop-color="#FEFEFE"/><stop offset="0.333333" stop-color="#FDFDFD"/><stop offset="0.416667" stop-color="#FCFCFC"/><stop offset="0.5" stop-color="#FBFBFB"/><stop offset="0.583333" stop-color="#FAFAFA"/><stop offset="0.666667" stop-color="#F8F8F8"/><stop offset="0.75" stop-color="#F7F7F7"/><stop offset="0.833333" stop-color="#F5F5F5"/><stop offset="0.916667" stop-color="#F3F3F3"/><stop offset="1" stop-color="#F2F2F2"/></linearGradient><clipPath id="clip3"><rect x="2152" y="1223" width="2843" height="998"/></clipPath><clipPath id="clip4"><rect x="2152" y="1223" width="2843" height="998"/></clipPath><clipPath id="clip5"><rect x="2152" y="1223" width="2843" height="998"/></clipPath><clipPath id="clip6"><rect x="2430" y="1251" width="2514" height="740"/></clipPath><clipPath id="clip7"><rect x="2430" y="1251" width="2514" height="740"/></clipPath><clipPath id="clip8"><rect x="2430" y="1251" width="2514" height="740"/></clipPath><clipPath id="clip9"><rect x="2152" y="1223" width="2843" height="998"/></clipPath><clipPath id="clip10"><rect x="2152" y="1223" width="2843" height="998"/></clipPath><clipPath id="clip11"><rect x="2152" y="1223" width="2843" height="998"/></clipPath><clipPath id="clip12"><rect x="2152" y="1223" width="2843" height="998"/></clipPath><clipPath id="clip13"><rect x="2152" y="1223" width="2843" height="998"/></clipPath><clipPath id="clip14"><rect x="2152" y="1223" width="2843" height="998"/></clipPath><clipPath id="clip15"><rect x="2152" y="1223" width="2843" height="998"/></clipPath><clipPath id="clip16"><rect x="2152" y="1223" width="2843" height="998"/></clipPath><clipPath id="clip17"><rect x="2152" y="1223" width="2843" height="998"/></clipPath><clipPath id="clip18"><rect x="2152" y="1223" width="2843" height="998"/></clipPath><clipPath id="clip19"><rect x="2152" y="1223" width="2843" height="998"/></clipPath><clipPath id="clip20"><rect x="2430" y="1751" width="105" height="618"/></clipPath><clipPath id="clip21"><rect x="2152" y="1223" width="2843" height="998"/></clipPath><clipPath id="clip22"><rect x="2534" y="1751" width="106" height="618"/></clipPath><clipPath id="clip23"><rect x="2152" y="1223" width="2843" height="998"/></clipPath><clipPath id="clip24"><rect x="2639" y="1751" width="105" height="618"/></clipPath><clipPath id="clip25"><rect x="2152" y="1223" width="2843" height="998"/></clipPath><clipPath id="clip26"><rect x="2743" y="1751" width="106" height="618"/></clipPath><clipPath id="clip27"><rect x="2152" y="1223" width="2843" height="998"/></clipPath><clipPath id="clip28"><rect x="2848" y="1751" width="106" height="618"/></clipPath><clipPath id="clip29"><rect x="2152" y="1223" width="2843" height="998"/></clipPath><clipPath id="clip30"><rect x="2953" y="1751" width="105" height="618"/></clipPath><clipPath id="clip31"><rect x="2152" y="1223" width="2843" height="998"/></clipPath><clipPath id="clip32"><rect x="3057" y="1751" width="106" height="618"/></clipPath><clipPath id="clip33"><rect x="2152" y="1223" width="2843" height="998"/></clipPath><clipPath id="clip34"><rect x="3162" y="1751" width="106" height="618"/></clipPath><clipPath id="clip35"><rect x="2152" y="1223" width="2843" height="998"/></clipPath><clipPath id="clip36"><rect x="3267" y="1751" width="105" height="618"/></clipPath><clipPath id="clip37"><rect x="2152" y="1223" width="2843" height="998"/></clipPath><clipPath id="clip38"><rect x="3371" y="1674" width="106" height="798"/></clipPath><clipPath id="clip39"><rect x="2152" y="1223" width="2843" height="998"/></clipPath><clipPath id="clip40"><rect x="3476" y="1674" width="105" height="798"/></clipPath><clipPath id="clip41"><rect x="2152" y="1223" width="2843" height="998"/></clipPath><clipPath id="clip42"><rect x="3580" y="1674" width="106" height="798"/></clipPath><clipPath id="clip43"><rect x="2152" y="1223" width="2843" height="998"/></clipPath><clipPath id="clip44"><rect x="3685" y="1674" width="106" height="798"/></clipPath><clipPath id="clip45"><rect x="2152" y="1223" width="2843" height="998"/></clipPath><clipPath id="clip46"><rect x="3790" y="1674" width="105" height="798"/></clipPath><clipPath id="clip47"><rect x="2152" y="1223" width="2843" height="998"/></clipPath><clipPath id="clip48"><rect x="3894" y="1674" width="106" height="798"/></clipPath><clipPath id="clip49"><rect x="2152" y="1223" width="2843" height="998"/></clipPath><clipPath id="clip50"><rect x="3999" y="1674" width="105" height="798"/></clipPath><clipPath id="clip51"><rect x="2152" y="1223" width="2843" height="998"/></clipPath><clipPath id="clip52"><rect x="4103" y="1674" width="106" height="798"/></clipPath><clipPath id="clip53"><rect x="2152" y="1223" width="2843" height="998"/></clipPath><clipPath id="clip54"><rect x="4208" y="1674" width="106" height="798"/></clipPath><clipPath id="clip55"><rect x="2152" y="1223" width="2843" height="998"/></clipPath><clipPath id="clip56"><rect x="4313" y="1674" width="105" height="798"/></clipPath><clipPath id="clip57"><rect x="2152" y="1223" width="2843" height="998"/></clipPath><clipPath id="clip58"><rect x="4417" y="1674" width="106" height="798"/></clipPath><clipPath id="clip59"><rect x="2152" y="1223" width="2843" height="998"/></clipPath><clipPath id="clip60"><rect x="4522" y="1674" width="105" height="798"/></clipPath><clipPath id="clip61"><rect x="2152" y="1223" width="2843" height="998"/></clipPath><clipPath id="clip62"><rect x="4626" y="1674" width="106" height="798"/></clipPath><clipPath id="clip63"><rect x="2152" y="1223" width="2843" height="998"/></clipPath><clipPath id="clip64"><rect x="4731" y="1674" width="106" height="798"/></clipPath><clipPath id="clip65"><rect x="2152" y="1223" width="2843" height="998"/></clipPath><clipPath id="clip66"><rect x="4836" y="1751" width="105" height="618"/></clipPath><clipPath id="clip67"><rect x="2152" y="1223" width="2843" height="998"/></clipPath><clipPath id="clip68"><rect x="2152" y="1223" width="2843" height="998"/></clipPath><clipPath id="clip69"><rect x="2152" y="1223" width="2843" height="998"/></clipPath><clipPath id="clip70"><rect x="2152" y="1223" width="2843" height="998"/></clipPath><clipPath id="clip71"><rect x="2152" y="1223" width="2843" height="998"/></clipPath><clipPath id="clip72"><rect x="2152" y="1223" width="2843" height="998"/></clipPath><clipPath id="clip73"><rect x="2152" y="1223" width="2843" height="998"/></clipPath><clipPath id="clip74"><rect x="2152" y="1223" width="2843" height="998"/></clipPath></defs><g clip-path="url(#clip0)" transform="translate(-2152 -1223)"><g clip-path="url(#clip1)"><rect x="2430" y="1252" width="2511" height="736" fill="url(#fill2)"/></g><g clip-path="url(#clip3)"><path d="M2430.5 1988.5 4940.5 1988.5" stroke="#D9D9D9" stroke-width="3.4375" stroke-linejoin="round" stroke-miterlimit="10" fill="none" fill-rule="evenodd"/></g><g clip-path="url(#clip4)"><path d="M2430.5 1988.5 2430.5 2133.5M3057.6 1988.5 3057.6 2133.5M4417.65 1988.5 4417.65 2133.5M4940.5 1988.5 4940.5 2133.5" stroke="#D9D9D9" stroke-width="3.4375" stroke-linejoin="round" stroke-miterlimit="10" fill="none"/></g><g clip-path="url(#clip5)"><path d="M2430.5 2133.5 2430.5 2220.5M3057.6 2133.5 3057.6 2220.5M4417.65 2133.5 4417.65 2220.5M4940.5 2133.5 4940.5 2220.5" stroke="#D9D9D9" stroke-width="3.4375" stroke-linejoin="round" stroke-miterlimit="10" fill="none"/></g><g clip-path="url(#clip6)"><path d="M2482 1482.74C2516.88 1487.5 2551.77 1494.2 2586.65 1497.03 2621.54 1499.86 2656.42 1499.2 2691.3 1499.73 2726.19 1500.26 2761.07 1502 2795.96 1500.22 2830.84 1498.43 2865.72 1495.83 2900.61 1489.03 2935.49 1482.22 2970.38 1472.91 3005.26 1459.38M3109.91 1407.85C3144.8 1391.26 3179.68 1371.31 3214.56 1359.83 3249.45 1348.36 3284.33 1342.02 3319.22 1339.01 3354.1 1336 3388.99 1339.77 3423.87 1341.78 3458.75 1343.8 3493.64 1347.38 3528.52 1351.09 3563.41 1354.81 3598.29 1360.99 3633.17 1364.08 3668.06 1367.17 3702.94 1367.31 3737.83 1369.63 3772.71 1371.96 3807.59 1375.13 3842.48 1378.04 3877.36 1380.96 3912.25 1384.43 3947.13 1387.11 3982.01 1389.79 4016.9 1393.45 4051.78 1394.13 4086.67 1394.81 4121.55 1392.28 4156.43 1391.19 4191.32 1390.1 4226.2 1388.47 4261.09 1387.6 4295.97 1386.73 4330.85 1388.52 4365.74 1385.97M4470.39 1372.25C4505.27 1368.97 4540.16 1363.88 4575.04 1366.28 4609.93 1368.69 4644.81 1377.95 4679.7 1386.7 4714.58 1395.45 4749.46 1407.89 4784.35 1418.8 4819.23 1429.7 4854.12 1441.01 4889 1452.12" stroke="#00B050" stroke-width="8.02083" stroke-linecap="round" stroke-linejoin="round" stroke-miterlimit="10" stroke-opacity="0.301961" fill="none"/></g><g clip-path="url(#clip7)"><path d="M2482 1482 2587.08 1482 2692.09 1482 2796.09 1482 2901.09 1482 3005.1 1482M3110.1 1411 3215.11 1411 3319.11 1411 3424.11 1411 3528.12 1411 3633.12 1411 3738.12 1411 3842.13 1411 3947.13 1411 4051.13 1411 4156.14 1411 4261.14 1411 4365.14 1411M4470.15 1482 4575.15 1482 4679.15 1482 4784.16 1482 4889 1482" stroke="#00B050" stroke-width="8.02083" stroke-linecap="round" stroke-linejoin="round" stroke-miterlimit="10" stroke-dasharray="16.0417 16.0417" fill="none"/></g><g clip-path="url(#clip8)"><path d="M2482.5 1481.55 2482.5 1988.5M2586.58 1481.55 2586.58 1988.5M2691.59 1481.55 2691.59 1988.5M2796.59 1481.55 2796.59 1988.5M2900.6 1481.55 2900.6 1988.5M3005.6 1459.55 3005.6 1988.5M3110.6 1407.55 3110.6 1988.5M3214.61 1359.54 3214.61 1988.5M3319.61 1338.5 3319.61 1988.5M3423.61 1341.54 3423.61 1988.5M3528.62 1351.54 3528.62 1988.5M3633.62 1364.55 3633.62 1988.5M3737.62 1369.55 3737.62 1988.5M3842.63 1378.55 3842.63 1988.5M3946.63 1387.55 3946.63 1988.5M4051.63 1394.55 4051.63 1988.5M4156.64 1391.55 4156.64 1988.5M4260.64 1387.55 4260.64 1988.5M4365.64 1385.55 4365.64 1988.5M4469.65 1372.55 4469.65 1988.5M4574.65 1366.55 4574.65 1988.5M4679.65 1386.55 4679.65 1988.5M4783.66 1418.55 4783.66 1988.5M4888.5 1452.55 4888.5 1988.5" stroke="#A6A6A6" stroke-width="3.4375" stroke-linejoin="round" stroke-miterlimit="10" stroke-opacity="0.329412" fill="none"/></g><g clip-path="url(#clip9)"><text fill="#595959" font-family="Nunito Sans,Nunito Sans_MSFontService,sans-serif" font-weight="400" font-size="41" transform="matrix(1 0 0 1 2362.44 1998)">0</text></g><g clip-path="url(#clip10)"><text fill="#595959" font-family="Nunito Sans,Nunito Sans_MSFontService,sans-serif" font-weight="400" font-size="41" transform="matrix(1 0 0 1 2275.12 1916)">1,000</text></g><g clip-path="url(#clip11)"><text fill="#595959" font-family="Nunito Sans,Nunito Sans_MSFontService,sans-serif" font-weight="400" font-size="41" transform="matrix(1 0 0 1 2275.12 1835)">2,000</text></g><g clip-path="url(#clip12)"><text fill="#595959" font-family="Nunito Sans,Nunito Sans_MSFontService,sans-serif" font-weight="400" font-size="41" transform="matrix(1 0 0 1 2275.12 1753)">3,000</text></g><g clip-path="url(#clip13)"><text fill="#595959" font-family="Nunito Sans,Nunito Sans_MSFontService,sans-serif" font-weight="400" font-size="41" transform="matrix(1 0 0 1 2275.12 1671)">4,000</text></g><g clip-path="url(#clip14)"><text fill="#595959" font-family="Nunito Sans,Nunito Sans_MSFontService,sans-serif" font-weight="400" font-size="41" transform="matrix(1 0 0 1 2275.12 1589)">5,000</text></g><g clip-path="url(#clip15)"><text fill="#595959" font-family="Nunito Sans,Nunito Sans_MSFontService,sans-serif" font-weight="400" font-size="41" transform="matrix(1 0 0 1 2275.12 1507)">6,000</text></g><g clip-path="url(#clip16)"><text fill="#595959" font-family="Nunito Sans,Nunito Sans_MSFontService,sans-serif" font-weight="400" font-size="41" transform="matrix(1 0 0 1 2275.12 1425)">7,000</text></g><g clip-path="url(#clip17)"><text fill="#595959" font-family="Nunito Sans,Nunito Sans_MSFontService,sans-serif" font-weight="400" font-size="41" transform="matrix(1 0 0 1 2275.12 1343)">8,000</text></g><g clip-path="url(#clip18)"><text fill="#595959" font-family="Nunito Sans,Nunito Sans_MSFontService,sans-serif" font-weight="400" font-size="41" transform="matrix(1 0 0 1 2275.12 1262)">9,000</text></g><g clip-path="url(#clip19)"><g clip-path="url(#clip20)"><text fill="#595959" font-family="Nunito Sans,Nunito Sans_MSFontService,sans-serif" font-weight="700" font-size="41" transform="matrix(6.12323e-17 -1 1 6.12323e-17 2496.32 2104)">1:00</text></g></g><g clip-path="url(#clip21)"><g clip-path="url(#clip22)"><text fill="#595959" font-family="Nunito Sans,Nunito Sans_MSFontService,sans-serif" font-weight="700" font-size="41" transform="matrix(6.12323e-17 -1 1 6.12323e-17 2600.93 2104)">2:00</text></g></g><g clip-path="url(#clip23)"><g clip-path="url(#clip24)"><text fill="#595959" font-family="Nunito Sans,Nunito Sans_MSFontService,sans-serif" font-weight="700" font-size="41" transform="matrix(6.12323e-17 -1 1 6.12323e-17 2705.54 2104)">3:00</text></g></g><g clip-path="url(#clip25)"><g clip-path="url(#clip26)"><text fill="#595959" font-family="Nunito Sans,Nunito Sans_MSFontService,sans-serif" font-weight="700" font-size="41" transform="matrix(6.12323e-17 -1 1 6.12323e-17 2810.15 2104)">4:00</text></g></g><g clip-path="url(#clip27)"><g clip-path="url(#clip28)"><text fill="#595959" font-family="Nunito Sans,Nunito Sans_MSFontService,sans-serif" font-weight="700" font-size="41" transform="matrix(6.12323e-17 -1 1 6.12323e-17 2914.77 2104)">5:00</text></g></g><g clip-path="url(#clip29)"><g clip-path="url(#clip30)"><text fill="#595959" font-family="Nunito Sans,Nunito Sans_MSFontService,sans-serif" font-weight="700" font-size="41" transform="matrix(6.12323e-17 -1 1 6.12323e-17 3019.38 2104)">6:00</text></g></g><g clip-path="url(#clip31)"><g clip-path="url(#clip32)"><text fill="#595959" font-family="Nunito Sans,Nunito Sans_MSFontService,sans-serif" font-weight="700" font-size="41" transform="matrix(6.12323e-17 -1 1 6.12323e-17 3123.99 2104)">7:00</text></g></g><g clip-path="url(#clip33)"><g clip-path="url(#clip34)"><text fill="#595959" font-family="Nunito Sans,Nunito Sans_MSFontService,sans-serif" font-weight="700" font-size="41" transform="matrix(6.12323e-17 -1 1 6.12323e-17 3228.6 2104)">8:00</text></g></g><g clip-path="url(#clip35)"><g clip-path="url(#clip36)"><text fill="#595959" font-family="Nunito Sans,Nunito Sans_MSFontService,sans-serif" font-weight="700" font-size="41" transform="matrix(6.12323e-17 -1 1 6.12323e-17 3333.22 2104)">9:00</text></g></g><g clip-path="url(#clip37)"><g clip-path="url(#clip38)"><text fill="#595959" font-family="Nunito Sans,Nunito Sans_MSFontService,sans-serif" font-weight="700" font-size="41" transform="matrix(6.12323e-17 -1 1 6.12323e-17 3437.83 2130)">10:00</text></g></g><g clip-path="url(#clip39)"><g clip-path="url(#clip40)"><text fill="#595959" font-family="Nunito Sans,Nunito Sans_MSFontService,sans-serif" font-weight="700" font-size="41" transform="matrix(6.12323e-17 -1 1 6.12323e-17 3542.44 2130)">11:00</text></g></g><g clip-path="url(#clip41)"><g clip-path="url(#clip42)"><text fill="#595959" font-family="Nunito Sans,Nunito Sans_MSFontService,sans-serif" font-weight="700" font-size="41" transform="matrix(6.12323e-17 -1 1 6.12323e-17 3647.05 2130)">12:00</text></g></g><g clip-path="url(#clip43)"><g clip-path="url(#clip44)"><text fill="#595959" font-family="Nunito Sans,Nunito Sans_MSFontService,sans-serif" font-weight="700" font-size="41" transform="matrix(6.12323e-17 -1 1 6.12323e-17 3751.67 2130)">13:00</text></g></g><g clip-path="url(#clip45)"><g clip-path="url(#clip46)"><text fill="#595959" font-family="Nunito Sans,Nunito Sans_MSFontService,sans-serif" font-weight="700" font-size="41" transform="matrix(6.12323e-17 -1 1 6.12323e-17 3856.28 2130)">14:00</text></g></g><g clip-path="url(#clip47)"><g clip-path="url(#clip48)"><text fill="#595959" font-family="Nunito Sans,Nunito Sans_MSFontService,sans-serif" font-weight="700" font-size="41" transform="matrix(6.12323e-17 -1 1 6.12323e-17 3960.89 2130)">15:00</text></g></g><g clip-path="url(#clip49)"><g clip-path="url(#clip50)"><text fill="#595959" font-family="Nunito Sans,Nunito Sans_MSFontService,sans-serif" font-weight="700" font-size="41" transform="matrix(6.12323e-17 -1 1 6.12323e-17 4065.5 2130)">16:00</text></g></g><g clip-path="url(#clip51)"><g clip-path="url(#clip52)"><text fill="#595959" font-family="Nunito Sans,Nunito Sans_MSFontService,sans-serif" font-weight="700" font-size="41" transform="matrix(6.12323e-17 -1 1 6.12323e-17 4170.12 2130)">17:00</text></g></g><g clip-path="url(#clip53)"><g clip-path="url(#clip54)"><text fill="#595959" font-family="Nunito Sans,Nunito Sans_MSFontService,sans-serif" font-weight="700" font-size="41" transform="matrix(6.12323e-17 -1 1 6.12323e-17 4274.73 2130)">18:00</text></g></g><g clip-path="url(#clip55)"><g clip-path="url(#clip56)"><text fill="#595959" font-family="Nunito Sans,Nunito Sans_MSFontService,sans-serif" font-weight="700" font-size="41" transform="matrix(6.12323e-17 -1 1 6.12323e-17 4379.34 2130)">19:00</text></g></g><g clip-path="url(#clip57)"><g clip-path="url(#clip58)"><text fill="#595959" font-family="Nunito Sans,Nunito Sans_MSFontService,sans-serif" font-weight="700" font-size="41" transform="matrix(6.12323e-17 -1 1 6.12323e-17 4483.95 2130)">20:00</text></g></g><g clip-path="url(#clip59)"><g clip-path="url(#clip60)"><text fill="#595959" font-family="Nunito Sans,Nunito Sans_MSFontService,sans-serif" font-weight="700" font-size="41" transform="matrix(6.12323e-17 -1 1 6.12323e-17 4588.57 2130)">21:00</text></g></g><g clip-path="url(#clip61)"><g clip-path="url(#clip62)"><text fill="#595959" font-family="Nunito Sans,Nunito Sans_MSFontService,sans-serif" font-weight="700" font-size="41" transform="matrix(6.12323e-17 -1 1 6.12323e-17 4693.18 2130)">22:00</text></g></g><g clip-path="url(#clip63)"><g clip-path="url(#clip64)"><text fill="#595959" font-family="Nunito Sans,Nunito Sans_MSFontService,sans-serif" font-weight="700" font-size="41" transform="matrix(6.12323e-17 -1 1 6.12323e-17 4797.79 2130)">23:00</text></g></g><g clip-path="url(#clip65)"><g clip-path="url(#clip66)"><text fill="#595959" font-family="Nunito Sans,Nunito Sans_MSFontService,sans-serif" font-weight="700" font-size="41" transform="matrix(6.12323e-17 -1 1 6.12323e-17 4902.4 2104)">0:00</text></g></g><g clip-path="url(#clip67)"><text fill="#595959" font-family="Nunito Sans,Nunito Sans_MSFontService,sans-serif" font-weight="700" font-size="41" transform="matrix(1 0 0 1 2688.56 2203)">Night</text></g><g clip-path="url(#clip68)"><text fill="#595959" font-family="Nunito Sans,Nunito Sans_MSFontService,sans-serif" font-weight="700" font-size="41" transform="matrix(1 0 0 1 3698.56 2203)">Day</text></g><g clip-path="url(#clip69)"><text fill="#595959" font-family="Nunito Sans,Nunito Sans_MSFontService,sans-serif" font-weight="700" font-size="41" transform="matrix(1 0 0 1 4623.89 2203)">Night</text></g><g clip-path="url(#clip70)"><text fill="#595959" font-family="Nunito Sans,Nunito Sans_MSFontService,sans-serif" font-weight="700" font-size="41" transform="matrix(6.12323e-17 -1 1 6.12323e-17 2247.09 1669)">MW</text></g><g clip-path="url(#clip71)"><path d="M3041 1264 3157 1264" stroke="#00B050" stroke-width="8.02083" stroke-linecap="round" stroke-linejoin="round" stroke-miterlimit="10" stroke-opacity="0.301961" fill="none" fill-rule="evenodd"/></g><g clip-path="url(#clip72)"><text fill="#385723" font-family="Nunito Sans,Nunito Sans_MSFontService,sans-serif" font-weight="700" font-size="41" transform="matrix(1 0 0 1 3169.43 1274)">Actual (typical day)</text></g><g clip-path="url(#clip73)"><path d="M3616 1264 3731 1264" stroke="#00B050" stroke-width="8.02083" stroke-linecap="round" stroke-linejoin="round" stroke-miterlimit="10" stroke-dasharray="16.0417 16.0417" fill="none" fill-rule="evenodd"/></g><g clip-path="url(#clip74)"><text fill="#385723" font-family="Nunito Sans,Nunito Sans_MSFontService,sans-serif" font-weight="700" font-size="41" transform="matrix(1 0 0 1 3744.11 1274)">Downsampled (typical day)</text></g></g></svg>