<svg xmlns="http://www.w3.org/2000/svg" viewBox="0 0 620 650" role="img" aria-label="RESource logo">
<defs><linearGradient id="cgrad" x1="0" y1="0" x2="1" y2="1">
<stop offset="0" stop-color="#1f7a4d"/><stop offset="0.5" stop-color="#2f9e57"/><stop offset="1" stop-color="#16506e"/>
</linearGradient></defs>
<polygon points="456.0,286.1 546.1,338.1 546.1,442.1 456.0,494.1 365.9,442.1 365.9,338.1" fill="#cfe0ec" stroke="#ffffff" stroke-width="4"/>
<line x1="456.0" y1="390.0666419935816" x2="454.0" y2="442.0666419935816" stroke="#ffffff" stroke-width="3.2" stroke-linecap="round" opacity="0.72"/><line x1="456.0" y1="390.0666419935816" x2="456.0" y2="420.1" stroke="#ffffff" stroke-width="3.2" stroke-linecap="round" opacity="0.72"/><line x1="456.0" y1="390.0666419935816" x2="430.0" y2="375.1" stroke="#ffffff" stroke-width="3.2" stroke-linecap="round" opacity="0.72"/><line x1="456.0" y1="390.0666419935816" x2="482.0" y2="375.1" stroke="#ffffff" stroke-width="3.2" stroke-linecap="round" opacity="0.72"/><circle cx="456.0" cy="390.0666419935816" r="4.4" fill="#ffffff" opacity="0.72"/>
<polygon points="300.0,376.1 390.1,428.1 390.1,532.1 300.0,584.1 209.9,532.1 209.9,428.1" fill="#bcd7cf" stroke="#ffffff" stroke-width="4"/>
<line x1="300.0" y1="480.1332839871632" x2="298.0" y2="532.1332839871632" stroke="#ffffff" stroke-width="3.2" stroke-linecap="round" opacity="0.72"/><line x1="300.0" y1="480.1332839871632" x2="300.0" y2="510.1" stroke="#ffffff" stroke-width="3.2" stroke-linecap="round" opacity="0.72"/><line x1="300.0" y1="480.1332839871632" x2="274.0" y2="465.1" stroke="#ffffff" stroke-width="3.2" stroke-linecap="round" opacity="0.72"/><line x1="300.0" y1="480.1332839871632" x2="326.0" y2="465.1" stroke="#ffffff" stroke-width="3.2" stroke-linecap="round" opacity="0.72"/><circle cx="300.0" cy="480.1332839871632" r="4.4" fill="#ffffff" opacity="0.72"/>
<polygon points="144.0,286.1 234.1,338.1 234.1,442.1 144.0,494.1 53.9,442.1 53.9,338.1" fill="#c7dbe6" stroke="#ffffff" stroke-width="4"/>
<line x1="144.0" y1="390.0666419935816" x2="142.0" y2="442.0666419935816" stroke="#ffffff" stroke-width="3.2" stroke-linecap="round" opacity="0.72"/><line x1="144.0" y1="390.0666419935816" x2="144.0" y2="420.1" stroke="#ffffff" stroke-width="3.2" stroke-linecap="round" opacity="0.72"/><line x1="144.0" y1="390.0666419935816" x2="118.0" y2="375.1" stroke="#ffffff" stroke-width="3.2" stroke-linecap="round" opacity="0.72"/><line x1="144.0" y1="390.0666419935816" x2="170.0" y2="375.1" stroke="#ffffff" stroke-width="3.2" stroke-linecap="round" opacity="0.72"/><circle cx="144.0" cy="390.0666419935816" r="4.4" fill="#ffffff" opacity="0.72"/>
<polygon points="144.0,105.9 234.1,157.9 234.1,261.9 144.0,313.9 53.9,261.9 53.9,157.9" fill="#b7d3c6" stroke="#ffffff" stroke-width="4"/>
<line x1="144.00000000000003" y1="209.93335800641836" x2="142.00000000000003" y2="261.93335800641836" stroke="#ffffff" stroke-width="3.2" stroke-linecap="round" opacity="0.72"/><line x1="144.00000000000003" y1="209.93335800641836" x2="144.0" y2="239.9" stroke="#ffffff" stroke-width="3.2" stroke-linecap="round" opacity="0.72"/><line x1="144.00000000000003" y1="209.93335800641836" x2="118.0" y2="194.9" stroke="#ffffff" stroke-width="3.2" stroke-linecap="round" opacity="0.72"/><line x1="144.00000000000003" y1="209.93335800641836" x2="170.0" y2="194.9" stroke="#ffffff" stroke-width="3.2" stroke-linecap="round" opacity="0.72"/><circle cx="144.00000000000003" cy="209.93335800641836" r="4.4" fill="#ffffff" opacity="0.72"/>
<polygon points="300.0,15.9 390.1,67.9 390.1,171.9 300.0,223.9 209.9,171.9 209.9,67.9" fill="#cbdfe9" stroke="#ffffff" stroke-width="4"/>
<line x1="299.99999999999994" y1="119.86671601283678" x2="297.99999999999994" y2="171.86671601283678" stroke="#ffffff" stroke-width="3.2" stroke-linecap="round" opacity="0.72"/><line x1="299.99999999999994" y1="119.86671601283678" x2="300.0" y2="149.9" stroke="#ffffff" stroke-width="3.2" stroke-linecap="round" opacity="0.72"/><line x1="299.99999999999994" y1="119.86671601283678" x2="274.0" y2="104.9" stroke="#ffffff" stroke-width="3.2" stroke-linecap="round" opacity="0.72"/><line x1="299.99999999999994" y1="119.86671601283678" x2="326.0" y2="104.9" stroke="#ffffff" stroke-width="3.2" stroke-linecap="round" opacity="0.72"/><circle cx="299.99999999999994" cy="119.86671601283678" r="4.4" fill="#ffffff" opacity="0.72"/>
<polygon points="456.0,105.9 546.1,157.9 546.1,261.9 456.0,313.9 365.9,261.9 365.9,157.9" fill="#c0d9d0" stroke="#ffffff" stroke-width="4"/>
<line x1="455.99999999999994" y1="209.9333580064183" x2="453.99999999999994" y2="261.9333580064183" stroke="#ffffff" stroke-width="3.2" stroke-linecap="round" opacity="0.72"/><line x1="455.99999999999994" y1="209.9333580064183" x2="456.0" y2="239.9" stroke="#ffffff" stroke-width="3.2" stroke-linecap="round" opacity="0.72"/><line x1="455.99999999999994" y1="209.9333580064183" x2="430.0" y2="194.9" stroke="#ffffff" stroke-width="3.2" stroke-linecap="round" opacity="0.72"/><line x1="455.99999999999994" y1="209.9333580064183" x2="482.0" y2="194.9" stroke="#ffffff" stroke-width="3.2" stroke-linecap="round" opacity="0.72"/><circle cx="455.99999999999994" cy="209.9333580064183" r="4.4" fill="#ffffff" opacity="0.72"/>
<line x1="528.0" y1="150.0" x2="552.0" y2="150.0" stroke="#e9e07a" stroke-width="3.4" stroke-linecap="round"/><line x1="526.5" y1="162.9" x2="549.9" y2="168.2" stroke="#e9e07a" stroke-width="3.4" stroke-linecap="round"/><line x1="522.3" y1="175.2" x2="543.9" y2="185.6" stroke="#e9e07a" stroke-width="3.4" stroke-linecap="round"/><line x1="515.3" y1="186.2" x2="534.1" y2="201.1" stroke="#e9e07a" stroke-width="3.4" stroke-linecap="round"/><line x1="506.2" y1="195.3" x2="521.1" y2="214.1" stroke="#e9e07a" stroke-width="3.4" stroke-linecap="round"/><line x1="495.2" y1="202.3" x2="505.6" y2="223.9" stroke="#e9e07a" stroke-width="3.4" stroke-linecap="round"/><line x1="482.9" y1="206.5" x2="488.2" y2="229.9" stroke="#e9e07a" stroke-width="3.4" stroke-linecap="round"/><line x1="470.0" y1="208.0" x2="470.0" y2="232.0" stroke="#e9e07a" stroke-width="3.4" stroke-linecap="round"/><line x1="457.1" y1="206.5" x2="451.8" y2="229.9" stroke="#e9e07a" stroke-width="3.4" stroke-linecap="round"/><line x1="444.8" y1="202.3" x2="434.4" y2="223.9" stroke="#e9e07a" stroke-width="3.4" stroke-linecap="round"/><line x1="433.8" y1="195.3" x2="418.9" y2="214.1" stroke="#e9e07a" stroke-width="3.4" stroke-linecap="round"/><line x1="424.7" y1="186.2" x2="405.9" y2="201.1" stroke="#e9e07a" stroke-width="3.4" stroke-linecap="round"/><line x1="417.7" y1="175.2" x2="396.1" y2="185.6" stroke="#e9e07a" stroke-width="3.4" stroke-linecap="round"/><line x1="413.5" y1="162.9" x2="390.1" y2="168.2" stroke="#e9e07a" stroke-width="3.4" stroke-linecap="round"/><line x1="412.0" y1="150.0" x2="388.0" y2="150.0" stroke="#e9e07a" stroke-width="3.4" stroke-linecap="round"/><line x1="413.5" y1="137.1" x2="390.1" y2="131.8" stroke="#e9e07a" stroke-width="3.4" stroke-linecap="round"/><line x1="417.7" y1="124.8" x2="396.1" y2="114.4" stroke="#e9e07a" stroke-width="3.4" stroke-linecap="round"/><line x1="424.7" y1="113.8" x2="405.9" y2="98.9" stroke="#e9e07a" stroke-width="3.4" stroke-linecap="round"/><line x1="433.8" y1="104.7" x2="418.9" y2="85.9" stroke="#e9e07a" stroke-width="3.4" stroke-linecap="round"/><line x1="444.8" y1="97.7" x2="434.4" y2="76.1" stroke="#e9e07a" stroke-width="3.4" stroke-linecap="round"/><line x1="457.1" y1="93.5" x2="451.8" y2="70.1" stroke="#e9e07a" stroke-width="3.4" stroke-linecap="round"/><line x1="470.0" y1="92.0" x2="470.0" y2="68.0" stroke="#e9e07a" stroke-width="3.4" stroke-linecap="round"/><line x1="482.9" y1="93.5" x2="488.2" y2="70.1" stroke="#e9e07a" stroke-width="3.4" stroke-linecap="round"/><line x1="495.2" y1="97.7" x2="505.6" y2="76.1" stroke="#e9e07a" stroke-width="3.4" stroke-linecap="round"/><line x1="506.2" y1="104.7" x2="521.1" y2="85.9" stroke="#e9e07a" stroke-width="3.4" stroke-linecap="round"/><line x1="515.3" y1="113.8" x2="534.1" y2="98.9" stroke="#e9e07a" stroke-width="3.4" stroke-linecap="round"/><line x1="522.3" y1="124.8" x2="543.9" y2="114.4" stroke="#e9e07a" stroke-width="3.4" stroke-linecap="round"/><line x1="526.5" y1="137.1" x2="549.9" y2="131.8" stroke="#e9e07a" stroke-width="3.4" stroke-linecap="round"/>
<circle cx="470" cy="150" r="52" fill="#f6ee8f"/>
<polygon points="300.0,196.0 390.1,248.0 390.1,352.0 300.0,404.0 209.9,352.0 209.9,248.0" fill="url(#cgrad)" stroke="#ffffff" stroke-width="6"/>
<circle cx="266" cy="286" r="20" fill="none" stroke="#ffffff" stroke-width="4"/><line x1="291.0" y1="286.0" x2="299.0" y2="286.0" stroke="#ffffff" stroke-width="4" stroke-linecap="round"/><line x1="283.7" y1="303.7" x2="289.3" y2="309.3" stroke="#ffffff" stroke-width="4" stroke-linecap="round"/><line x1="266.0" y1="311.0" x2="266.0" y2="319.0" stroke="#ffffff" stroke-width="4" stroke-linecap="round"/><line x1="248.3" y1="303.7" x2="242.7" y2="309.3" stroke="#ffffff" stroke-width="4" stroke-linecap="round"/><line x1="241.0" y1="286.0" x2="233.0" y2="286.0" stroke="#ffffff" stroke-width="4" stroke-linecap="round"/><line x1="248.3" y1="268.3" x2="242.7" y2="262.7" stroke="#ffffff" stroke-width="4" stroke-linecap="round"/><line x1="266.0" y1="261.0" x2="266.0" y2="253.0" stroke="#ffffff" stroke-width="4" stroke-linecap="round"/><line x1="283.7" y1="268.3" x2="289.3" y2="262.7" stroke="#ffffff" stroke-width="4" stroke-linecap="round"/>
<line x1="342" y1="306" x2="340" y2="410.0" stroke="#ffffff" stroke-width="6.4" stroke-linecap="round" opacity="1.0"/><line x1="342" y1="306" x2="342.0" y2="366.0" stroke="#ffffff" stroke-width="6.4" stroke-linecap="round" opacity="1.0"/><line x1="342" y1="306" x2="290.0" y2="276.0" stroke="#ffffff" stroke-width="6.4" stroke-linecap="round" opacity="1.0"/><line x1="342" y1="306" x2="394.0" y2="276.0" stroke="#ffffff" stroke-width="6.4" stroke-linecap="round" opacity="1.0"/><circle cx="342" cy="306" r="8.8" fill="#ffffff" opacity="1.0"/>
<g font-family="Inter, 'Segoe UI', Arial, sans-serif" font-weight="800">
<text x="172" y="602" font-size="84" fill="#1f5f86">RES</text>
<text x="326" y="602" font-size="84" fill="#3b4652">ource</text>
</g></svg>